<mxfile host="app.diagrams.net" modified="2022-11-02T04:33:42.010Z" agent="5.0 (Windows NT 10.0; Win64; x64) AppleWebKit/537.36 (KHTML, like Gecko) Chrome/107.0.0.0 Safari/537.36 Edg/107.0.1418.26" etag="60MRLghBEOms6V1IYwDh" version="20.5.1" type="github">
  <diagram id="koOklXgtQJTAygmiLDTQ" name="第 1 页">
    <mxGraphModel dx="1994" dy="672" grid="1" gridSize="10" guides="1" tooltips="1" connect="1" arrows="1" fold="1" page="1" pageScale="1" pageWidth="827" pageHeight="1169" math="0" shadow="0">
      <root>
        <mxCell id="0" />
        <mxCell id="1" parent="0" />
        <mxCell id="uUMPkl429nScn1y42nC5-1" value="" style="rounded=0;whiteSpace=wrap;html=1;" parent="1" vertex="1">
          <mxGeometry x="20" y="370" width="80" height="100" as="geometry" />
        </mxCell>
        <mxCell id="uUMPkl429nScn1y42nC5-2" value="" style="shape=image;verticalLabelPosition=bottom;labelBackgroundColor=default;verticalAlign=top;aspect=fixed;imageAspect=0;image=data:image/png,iVBORw0KGgoAAAANSUhEUgAAANMAAAEYCAMAAADxgTMoAAAAAXNSR0IArs4c6QAAAARnQU1BAACxjwv8YQUAAALQUExURf////7+/v39/fr6+vv7+/z8/Pn5+evr6/T09Pj4+PX19fDw8MjIyM7OzuHh4UZGRqqqqt7e3q2trdra2o+Pj5iYmNnZ2e3t7erq6rq6uk5OTvb29tzc3L29vfPz8+7u7vf39/Ly8vHx8e/v74iIiFBQUHl5eefn5zs7OwAAABMTE8HBwa6urtbW1nh4eJOTk5ubm5mZmYSEhI2NjYmJid3d3bu7u6+vr4eHh8zMzLGxsdHR0cXFxaOjo5GRkcfHx4GBgaKiop2dnebm5kFBQSYmJoqKipaWluzs7IKCgtTU1L+/v2JiYiUlJYODg6amppeXl5CQkHt7e3Z2douLi3Jycnp6eoyMjIWFhcbGxlNTU56enn5+fqenp+Dg4La2ttLS0rCwsLm5uaGhoc/Pz2ZmZry8vJqampycnLe3t8LCwpKSks3NzTQ0NNjY2KysrBUVFQkJCWtra2pqapSUlDk5OVZWVm1tbVxcXF9fX3R0dHV1deXl5ampqenp6dDQ0Nvb27S0tAICAlhYWL6+viAgIOPj49PT08vLy8nJycrKytXV1ScnJzg4OBAQEKioqAsLCwMDA+jo6LKysrW1tcPDw9fX19/f3+Li4gYGBhISEhQUFBoaGh0dHRgYGB4eHgwMDG5ubo6Ojnd3d6CgoMTExMDAwLi4uDIyMjc3N2lpabOzs2NjY1dXVyQkJFlZWVtbW0hISJ+fn0tLS3x8fF1dXaSkpEVFRU9PT2FhYTY2NkdHRz4+PnNzczExMU1NTVFRUVJSUjo6OoaGhklJSWVlZUNDQ29vb1RUVJWVlaurq39/f2RkZGhoaAEBAWBgYHFxcVpaWuTk5KWlpV5eXn19fYCAgC4uLmdnZ0BAQHBwcA8PDxwcHCIiIiEhIVVVVSMjIxYWFg4ODhERERsbGxkZGWxsbCgoKC0tLUJCQkpKSkxMTD8/P0RERC8vLwAAAAETUDEAAADwdFJOU///////////////////////////////////////////////////////////////////////////////////////////////////////////////////////////////////////////////////////////////////////////////////////////////////////////////////////////////////////////////////////////////////////////////////////////////////////////////////////////////AJShaEcAAAAJcEhZcwAAFxEAABcRAcom8z8AABYCSURBVHhe7Z1LduMst4Y1BGZAh041acBaDIimR8W4smhUW3M4z7vBsZ3UVydJWb79ep1YW4CQEJt94eZlx44dO3bs2LFjx44dO3Y8N/w8bowb3WbgpjfbsWML+KLv8lK8nFa3+ETZ3Ay4EVKI9javDk/15NXIlO0APLCDBNH45jjDR6Rva5sR38XIYPGHX79+6zXaDWagnel7/v8EPitXKukcqcUYeWIXQlqyiyEUHVzJ0YWlhBj9wgP9+h0gvg/fWiPDTg7KwpUYWgstQobaAselrHmJzX14rq+Bl5KPDcnYz6jiePiWluBcIUmuIS+ZYuYSMvfLJfqiB/p1INEPkCMZut+WxRoCJakj914Pvcbelxx8qq29M8434dMsFGXyzkg4oRRC04iyg08pLYlg45Ml2wP1NN/H98BrIvOmHN6K5x0p30Jeui0ED6L7Qc0L/glffkT/pif66Xs0vLenh4GjSHXSP4QPNKsNoEb0M9DoJvVX/Ig5/w1qEKMRbXP3n7+zf8MdXuWOHQ8A75zLOfPNUcoJxaQ/fa6mo/6M/6fR/VzMDO19xG/hF59xRAu2me7bOBqQQqmh+RSX3Fz1voYgCwy7L2L/8Z1iKOiV4HIoOeRMdE3YhIWrQvh+qS7L9Bk/LtNSwyTAASMyHnw61AxnYOyF2uMS3pbyKxTXevFvIf3Orqe3WFaCult9XN0vWYPfxnZlOhp9Qq/OB3yqeNBZc/giKwbtwfHgPae1p3AIayp1aQeXDyG32pcESaxl8C2oTF3M0HrtfeXTK4TILuP/52U6gz8ED7sdSlgrtuTaFuzlhvtxwP+gDvNaW29rDD1mKjD20PNKXcbg335gvsnI+q9XofJep0x4H66kiKOBheGj845GRAgeiGx03Kic0hBWGas6lUzz4z9T2zOPb0DPDa83H7kBORYXW2zZ0VrNo/lHo/IuGGUyl5B6bw6i4YuGukZvfDnTPRNUF9QT4jTShGmjOeXS0Fq1Wtyz1lNdoqoJLl+Ta3B3pEXn7tOTlkl1EaigFAvSr4VKiUpzQe1JZXpG3lM9uSVlSR11HzSEkcc3Uz/CqMPng+rJLVggDU3Ysq+t1ITCQ1hYma4iy2+MUU8xLhgoS6VYtKelBarp2ctUeolwXQ9LRTUuvUkSPm2ZZEdQTz2hnpxDPCwppIZZHILx5fPWU0rq0FNfY0keEnMGO0tlel651zLNqDlM/IwhEbznxJsd8az1JHuvoWhjqVh9vkZcnBbW+Nw6t6wuqUxveUE0rEvN2NFmwz4r72FH9IpB7krDX04lLLiiT96e4oKNl0pM+BpAwwHOLf5pyzR5r0o40IhadLJnERdU1DPbe/BewhPEiIUB19IK5lHqz1umUU/Bh9yz7KKEtKjlkBDvz15P6lILSImgQdbq1ra08tTtqS0+puSSBMTo68D4C/HJ6+kTKFJ46vbUMPTK6CD3ZvilhAzMT9vHouf+9Wa9479/vQmjv5wj1BOX6S/Yy/QYKOI2sZqxnWGQ4+RtU7tc4znnQzHQ+lPgIH8IpIL+BiQhzkjRM9k/wTvywpD82PftW/QJY5ki2EOgHoNf1C0XA/RM9ZiIPa4h1LV+LFQIwbUYc6YMtXmPrUkJc+6YnhhnjwzXaq9ZY2kfqj0UTBfs5hqahjiwnVtMGAB4pTl+qKercMz14LMx+MfRYY9v47DFxnAyRrTIKM9AXd02RY2KFGLk+nnVg8PmbNm4uE3jMtL0v1lpF5hX7NhxHXjNTDStQUujvVnP4pMgBYRYoNFLrKF5MJqHFAs+N4c6QsilhizIf3ARHhQOyVXWFt5aKP6to5TyqJCWYnc9VIcT0CjUE5VJunQI6JI80ju4OUsWQY4iKrEUX9RnFfBNzX45/hmOx3/GyGhbRZcltG24H6pIV4UG1JPAC0BPSXspnm/D0GQGok8nZzgPPEvOBZYnx43brBl6A5N6NHNhx44dYGPxpnb/fgej5xme0iBkQWh1gi9LSeaQXMcZ3RD4RzXgPLQcMBfa+NKjt440d6VElFSpmp7hqkN7mah+7FLF3+sa2opjeGi4hzh/lKnxzJWi4tN2zKaSavZJK3wCoS22n8xGvCES3ixmnmpAC4Qa3iEOO9USTK9KpYaMIZH4l26U5iSB9BW63/SW4USajzn+ZB6cTo7hI9EkwHso3/OptgGPLn+vJHGgyOEZmnFhxyI2tDQKE6kZhm4ED8Ckk7rEtCHGHYwERv5gluOOl8dHTn9oyUfrt2UF1kZRRjPYB1HJBVjcJ5fGyklFSD/hoRBNuVS0hzNus3zbvh5WHAlEeVcZDPi58i7kWvC14O6SbgyUx6IOP8Wi2CTgfzB5fktktE6tv9+aQ0etueX3MjlUcbTHhlKZRgGQ+sh6XHo8KU5tYeqjiSvcWAT27EiRtzmDTeRm00cQktLiUoVxNoZjHS9E6QLhku4m+U32gyHG/yDMuVwyfCQnJ13CZ/Qljptvg7HOdLS0I7Sg5x3v4Qo9CxfsEXWY9OXnb3hoybPjVpABZkvjzRYrWups1tumLH8dlCYBoBUGriDR9BelmjwSzjkt95IxGzIJEYNI9sceejLk1R3wofyhV3fA7+i11lVbBFAONFF2qFfKFFxyPruGRT4vvDG+c1sTyM2ZKxjwpKwPT92WiCjUrEsJxYR09lk958G8X+XP/7iNEeNz/nf6vP/NE/vMwynlkb4W7A6Wq53ZH5pF3ZNNvYnqgzStomKaZtG/6Ro7kUo6EoTzOQpuS8FRf+Ro9AxX1Ej/nijPbu2tMESC/kRs7Kzt2HEOmTzaN2jaPrbrB8bLveTed1B6QyVpgV+9GFVAECIaQipOMh39ZPIvlvXRbPA/AEnee4uHfgiX215IN5l+snkDDWvUuwXB/wQ6VwxmohhJe85WMJkMDNwIxDcpkkwNo81CkkgER8F4NM2n1c0Fp5OBs5gRayfmYMjBnhlty9h2x+E/2ZOY42O09JKgN2FeL5pMhzEFBAxyfI0EQ9eJVqDCjxdwkF6aWf5si6MdO3bs+Bb8MBOQxjPgiBQxz1NG0Aao6RA8B3INB0yGflg/jCnlWioiuBUfUVMSw/gdX9177b7Fx+CprYV6WC8NBG0VoB7LsCSKVrVmRIV6irqSNSAVDgPOkAGpU1kXMWlfGZlHHHDhh66VFpYKlokxaGlOo4zmaBGW/JK2E9GWbOrwGfHeCbwNrJR8CeNbt+cZZEzJkhlGEUf7E6mwSZ6HX9DHqEHbyaBnzLz7jv9pWI8lvCCWMFmuY3kK9tA8S+0wqpWXF4+bA5K7oaa6k9PoUysatHm0saY/oRwqPmFY17Ve7klbJOWid2gph1DPRVsEaUhqxj8wsBT0zDnWdjmSb36u9t6N+La4wDnkUFwp06QwZhSML4e0mxhS7ESCEy1Z9x6uYAWIUI58bwlTISdnTfrDRsimL6f+Ws2SNceeML0BS2W6ypSP5P6kTBO9h5tS4mBn2CbWBTyw7fwYe4MmIwaOx/FC7Uyp5mdcMg7fxDGLkfeO/yEgI2ijWZaQRs4UAj8MLXTaOntu06zGrAMi0JKqrZuzshTrWFK7LwXXJCcnCbA4BZ1zVEmZv3lyAmk/rSr7OcohrjJOa1tLwfxGXmfXMMVj0IbZqCSQ1tolHWodPTtxbLC9hN5qPKy1Jdnw/Y08XFUnKEHVaZSu9cOFRgsdzbF+6h6yC67WaZSD65Vn4045h9pX9WGuVRv9JUraa11X53Xsde191E8oY1lbJFKDcNVrogQFrpr5UiXRWsWB4UOZzp0Y8uROn6okU9Kf7br9J0iOebgHASsWFCkTPCVXB2tJf8AyUiLJO76Q2pK+CGOuLPqg2IwHxbcYUArHikJYy4i366egh4U9fPk+ZSBReItQquvx3rfhzd9Qwb/xXo/eyodLbBYGcVeroS+Dt3qmQkRY2DydUIVMnJHUtB2U3ogJCRPFWPYWYN8j4J+hJyXD40OKf2QxmEEgxpCLC8ZAr41eygwYSWQd6GTy1bxCLGdX24ko+1OEpdIlR1qHY4SuuE7fQKr9gISIPddCM+lZE2JtPdeENtRfXEF+c1KOYtgbgV1rZ2Rz/jD+88Tmi/EFa0/ah2qcnuE6A7rp7XBocW1Itdp6rxFJoYGZspTiIszOF/IsyYDNi5YSYaL5ghHvSgraaljvWWawqtMnKBVJIQonMV/B2wCA86gIQskk4N6kqMWxJDxJh+tMOEI84UHpFlS+BiookyZcI7+pNk3I1nTsit6BXhqnFD2ijwjDpULyk4rvKhXXPdFVG/5W7PwqcV7FtHVBYaDc9BsOEvGk1RBebRk2CWdCfKuBd+N4hLCx/vzS3qmw/JI1302RCk3IYlkgSkQSmRKSZIQPq0JtRKek9RqRsS3PdLnsDukNYnmlQ30PXKeePmOLfP/QdE44u9+GZYKF4HHlX5xbtIm03WuIWq18ELHF7TcrU6atyG+X8NJvieCqedhfeys5pAKU+jNpcvOCK2KrUX1tcoo64sm5A8JK5ihmGjYmjTpoO5je0Fe0/ut7pVuVCWdgaH/TOcPSw56TYjblbOTJDLgqtupc3ngi01+x1SD1xh3xf8VW7/Ml6+mOZdrq3nfwZt6x19PXcc962sv0dbwi721ln3wFr1imrfj+nu1pq3vfsz3t9fR13LWeNrKf71lPp9VV1xVU96ynzcp0R/9pl3tfx2Pw3nXx+V1t0JnyH9iqnu4p9/YyfR33HFjdrD29oCy/Z5m24pG9nq6LrerpFW2jV+S9VxwDuGc9bVWmlxyreWXeu505/o7NbKPj0PPFHKLbYDNZfv3h9C/jFWX5Vrz3knbEzntXxSvqp63GqLeq/69gM50rtXQH3SRsWqb7FGlvT9/AVu/qK9jKz0lOk/f+CTb9z3CiNOdvEmBOETSc0VvxiOaCa2K+zeM3UrO0Rb3TOota9U6IkVHL2Y3gY/PN7XRkdExvmY4TwU4s3FYoCu059gjYsRmS+6B255nPqK2LGE6G4whxeclFuqSm74uSjAZzih0TTAjcqCEdkUIsWgpTsqbpc3AlR68VC7mF7LQ7uxpSDrQEEc4txLtYxu/BZLekSFOivXBV1IqNULPti5l91RUk1Ba6gtZna/UGjXhTHZJas3UXreeiBRag1hQ7/7WFlcBYa9BvxYW1E9Wrj2sKTb8vrTnbMRXtsN+1fI+UtqRYm0uG2iiZdm22qd21aY9nvrTUw7u66Up6JKrPSNiiDWa0uqI0h7TVsnAd9I30NfkrMay9CvDlOMNUJN6WflrUlNEcnBbjKYWlTfh+I50WdOhGcLXWeWyLU4u66GkZ/dkKkUH4Zw2ZCMcFI4GaDW+EtjLNx2M74uyyAIo4v8/VoUUz2tCtOKpJq4ciJaTuqCjtT0CD0aKikJfAF81Gq82iKRs1NS8GpW11/byFL52mVWOlanSZs3U0JSTXUG9kyrf2iqNJbotiO3zXFoPXyg1HUwmFfxg+KKoSp5VN2lpHRLdWpFaXwhoWTmg/mVTamqKhlImJPq8kyqWTmoSIjU7704nWSPWtd3CwxU38Uzta1QSv0wLgIbUDWgONxlqTtiv2KSIHdSaMtqJVTrCSWhMsp4YGkfPYSVwroDjTklklLckhCSVk573vgU9Mz2MO4kOMTr/UQm7T+5FoO3qP1BZvNye9Vq0W5vF9Uy3ZonWaGtWYfA5atYZ0pgKoNtSNJCXBnmZDHl8q2ObQ+k9ak5QHlJSRtIt+Zz54uB92oZVZ80GpaF0gKjXr3GvdlFoWuibRnKyx3XMq6gledoMZznyZZZB9jigZ7ABkl0S1ogotScJOe0sj7UirzasIIFQ2heScFhNeSu2HxGPw0o7XwR3Gmm4KbUeM2JboNn1plIYczPaUQYqwDsThNACZuqRDAwfEhhmymD9ywrCEgVMmiAopYfSAejukbXWFxI2SePlR+t5MniDDkMl4HFVWiywhDgWbjQP+AoZOLRlxXYjPWiofoEjQXe44Jfox6KqNQzpJ+oqLYhk1TiDJjwT6HRzF9rAShXVVk9fN/tWc+G9uM9NS+3QMeY7twtvFf0A2m4DOGLWYM5w7/ea4ywuJqAGqMMtK1Rn/yH4OslulDkwRyKWwaPQ48t40hsQ/gUmZ30buq+Sy2gbGe7AwI+EeHY7x5p6DEXn+gLMC5KucB7/TIsZV28A2RtA2YtrHLbaEL1+1kcLYHiPDlDS40lJRgDa55LAk7Z4hl1YhWFDk0dDSiiQXfHYSFS3HVhcZbnxI5tRH/BMlqlkb9Fxvm5mP4KFb1VPJMgpy4PEdzEyCaM5ri5lCmVQAnqrKBc8UXEWSI05pCr4JlhTJaZu94XgpN+eVh/wXmVoypzj3roeuHUBt+4b5CNcHPMALO7HCZLOBGaw0g7ItmI6xBjs5hcyXf5bkIjXCdBi6l6HXhXb74TngEExvBARN2X4kBftOLVxr3sdO5vZjwXCqvCwaO3ESJkuGkeAkEwZ4X+py0M8B4tkSZKa8OpO4HHFvrpo+cvEJmo9wdaTae8Rbx8Tu2oFKe3zAJ9rECQkOEXrRbk6SxXh0TfsR1qqfxNLOT8439SZxrUQ4V7eeYz0Qpb4mu6Jj5xNVSKQUUhqtrdIPm/EeKtIYbOhb6UZ9I35HjGi+hx7mzZrLagnsqH2fRrw+JDJ1jKTWpRZq3S+K0anysy95X9v6h6bWjcBX4MTuZj/aINtBwSaXZQdYMkEeO2XEftD11vVkD69wfc0BfbmUlGCM3d0KSdaCNpfBdIgQtRVkU8PxW/ED8fPglUAamEh7YcKUrRWiIwJOZsfgOxxFdW3WgHUB/4l7uUJWBDlI/m0nuP+AJD9Qe/bgCNLOOYMr1OjVZawQUzv4feoW1mALJ2ibpF/sMV2DuFZocivlkoOpHFF5ITvEh6VXHtsJ7uvjxFM0pXPcmN/ugBcv3p+As/IMXRnfgqN5bivbbw91zr4ce75ge8O5HyNDLwQNjm49gnPCtJo2hjarfTn2234w9OaQszUKdRu+uAU0PDRlxAtKwNcB3hZ+1jy5Bza4t/Y1fbVpYrj0dx253gYvKBo83vMkXwWaKfYEv+XxPbyOqr3A6xlH7vP22k8O9c9OcscDQ3OWHmNezxWhUd6XMyTSPVepbwONt03yIfGDdpE0jvBiFWWTJ15Omu/q6W/Q6KwmveI5m7ml7lCCYPCkQU3T7vYGNT1Zs6oMmsQsWDDmp9HKRik46gqTzBq8tRz4VqBltTVC1JqKFJesue+xuawBdB7HVU1JCW5MXGk+hdby4jTNg5Qpajy+8ZCB2NQ1LyTWWltWcA2UtoUcNRkkRv0Kk+ObROEGNp0PTpMXfCy52dKxbL8PwCMVTaSvIXZ9tCBA01uWqCFbjYu60HoN5JDjwWWVk0ZOCAkipaJWXFlXTSZrK+Ed76jVvq68hs1xfG0fj8IY9/cOjoKErWwmwfvIOsyoROJPzeYwFrSZA8aUALaU1rEJgGShefmv19m6Y8e1cRMJfWPsDX/Hs+Gx2uErSoUdO3bseBgsy/8BQ3dVJb0tI0AAAAAASUVORK5CYII=;" parent="1" vertex="1">
          <mxGeometry x="25.15" y="373.75" width="69.7" height="92.5" as="geometry" />
        </mxCell>
        <mxCell id="uUMPkl429nScn1y42nC5-4" value="" style="rounded=0;whiteSpace=wrap;html=1;" parent="1" vertex="1">
          <mxGeometry x="100" y="220" width="80" height="100" as="geometry" />
        </mxCell>
        <mxCell id="uUMPkl429nScn1y42nC5-5" value="" style="rounded=0;whiteSpace=wrap;html=1;" parent="1" vertex="1">
          <mxGeometry x="100" y="510" width="80" height="100" as="geometry" />
        </mxCell>
        <mxCell id="uUMPkl429nScn1y42nC5-8" value="" style="endArrow=classic;html=1;rounded=0;exitX=0.5;exitY=0;exitDx=0;exitDy=0;entryX=0;entryY=0.5;entryDx=0;entryDy=0;" parent="1" source="uUMPkl429nScn1y42nC5-1" target="uUMPkl429nScn1y42nC5-4" edge="1">
          <mxGeometry relative="1" as="geometry">
            <mxPoint x="100" y="400" as="sourcePoint" />
            <mxPoint x="260" y="400" as="targetPoint" />
            <Array as="points">
              <mxPoint x="60" y="270" />
            </Array>
          </mxGeometry>
        </mxCell>
        <mxCell id="uUMPkl429nScn1y42nC5-9" value="documnet&lt;br&gt;classification" style="edgeLabel;resizable=0;html=1;align=center;verticalAlign=middle;" parent="uUMPkl429nScn1y42nC5-8" connectable="0" vertex="1">
          <mxGeometry relative="1" as="geometry">
            <mxPoint x="-35" y="10" as="offset" />
          </mxGeometry>
        </mxCell>
        <mxCell id="uUMPkl429nScn1y42nC5-12" value="" style="endArrow=classic;html=1;rounded=0;entryX=0;entryY=0.5;entryDx=0;entryDy=0;" parent="1" target="uUMPkl429nScn1y42nC5-5" edge="1">
          <mxGeometry relative="1" as="geometry">
            <mxPoint x="60" y="470" as="sourcePoint" />
            <mxPoint x="110" y="280" as="targetPoint" />
            <Array as="points">
              <mxPoint x="60" y="560" />
            </Array>
          </mxGeometry>
        </mxCell>
        <mxCell id="uUMPkl429nScn1y42nC5-13" value="documnet&lt;br&gt;NER" style="edgeLabel;resizable=0;html=1;align=center;verticalAlign=middle;" parent="uUMPkl429nScn1y42nC5-12" connectable="0" vertex="1">
          <mxGeometry relative="1" as="geometry">
            <mxPoint x="-35" y="10" as="offset" />
          </mxGeometry>
        </mxCell>
        <mxCell id="uUMPkl429nScn1y42nC5-14" value="" style="shape=image;verticalLabelPosition=bottom;labelBackgroundColor=default;verticalAlign=top;aspect=fixed;imageAspect=0;image=data:image/png,iVBORw0KGgoAAAANSUhEUgAAAOIAAAEsCAYAAADehW+nAAAAAXNSR0IArs4c6QAAAARnQU1BAACxjwv8YQUAAAAJcEhZcwAAFxEAABcRAcom8z8AACR/SURBVHhe7Z0JmBTV2f3x80uMMYvL3xhNXJ9E/SducUONMWoSjRuuGPcFxQ0VFRFBVhEREQUDioosKorDoogbiIjIMqCsKsg2bMMwwLDv0FXne09V99AODXQ3Q9ednvPzOdbS1V1DV52+t+6973trQAgROTKiEA4gIwrhADKiEA4gIwrhADKiEA4gIwrhADKiEA4gIwrhADKiEA4gIwrhADKiEA4gIwrhADKiEA4gIwrhADKiEA4gIwrhADKiEA4gIwrhADKiEA4gIwrhADKiEA5Q6UYsKyvDwoUL41uZETOt8IDFtjJnC7DKB5bZdrFtz+O2rYvcs24dsHJlqEWLgJISYMMGYMECuzbFsOvN6w5s3AisXQusXm6v27VaZe/ltVtgWmvXclF8fb5po22LrWRtxKKiIjRu3PhHpltrV6HYrszcuXPjezKjw2rgzmXAE3bB29lVvNYu7m2mBiuAFravrr1GY4rcUVoKNGoE3HEHUK8ecMUVdm3aAa++atelQbj/nXfCfV8MA+6tC9xs+05+GbjFDPugXceOdl2vWWrX0/SUbTe16/mwSWwlayOutJ/HW265JdAG+3n0fR/Tpk3Dli1WdGXJC3bBeKGet2WB/Qo/aL+s9UytbB+NeIcZcaH9morcscIMQwPWqQM89hhw++1A69ZAjx7AM88ALVsCI0YAbdsCI82I9c2INOfpZsTHFwNd7Dq+vz68dlR7u5b8YW1o2qJSsZyMjDhmzBjMnz8/vhVWQ+vYFWIpmC2tzGA17ZezplV5TjadaPqjFbKHm/5k+/9gy9/Zxx9qOta2/xw/drfIPvsp+3uqO6zk1Kpl30dN4KyzgKOOstpKh7A6yiooq6RLllgV1H4wWV1dZgYrttLuVvv+jptl120acIKtn2hGPNo+66j4teQ15bX8vYnX8aRU12AXdJP9DVWVtIxIo7Ha2a9fPwwbNuxHpR7XY7HsiylWV2rMNs0xWY02LfHY3SH7O66vwhezsphlZtpvP/s+7O5IiKXgjuAdcaoZr4aZtIYZrob9Xqe8dhWV6jpko6LwR7uqkpYRWfWk2TzPQ9++fTFx4kRMnz492N4es2fPDqqvO+NW+4UNvsh5Dsj+jjr291R3UhmxWbP4i9thvVUzz7bnycBcqb7b3S0774lWylZV0jJiAj4HLrE6yfLlyzF+/Hhs3rw5/sq2zJgxIy0jXsUS0S78j37dopL9HSyhqzvJVdOEunePv7gd1pkRjzcjsGRK+d3ubtl5D8/+CSlyMjLi7uALe+7oas8aXdc4IPs7htvfIzKHVVM2yqT8XnOkvuvCv6UqErkRhRAZGJFVUvYdkh09GwohMictI9J4s+wJfgU7lYyNGzdi8ODBWM326xTweD5PCiHSI+0SsWLDzJw5c3ZoRJWaQqSPnhGFcIBIjejF1mNN2Vgsn9/f9B7WLZ8YbK8q/dw0DCuKP8CKhR/ZchA2rp0Tf5cQ+UekRoxtXo1Zo27At5+civmTmmCZGXL6l1dg/sRGmPb5P1E05nYsmtYBM7+qbcvn4u8SIv/IuRF9bwvWrZiMNUsLsbJkCBZMaW5GuxZFY+9CUWFdzBp9M2aNvB5F4+7BnGDfnZg58josnNoOqxePsBKzMD9k//6Na8JWaCFybsQtG5dg0gd/wMjuNTDmzRoo7B2K62PesvW3/ydccp8tE8dwffQb+aOvXq+B2WPqxL8VUd2pFCOyhXTcuHHBgPCdDQDfsnEpJg/6E0b3NIPFDZe2eHyeaFSPGkEtQAhSaSVir169gpConQUFB0b88M8Y3ctuyFRmqyYaZT9ERWPvjn8rorpTaUZkn+K8efOCcKkdISOGkhFFMpX+jJhW1VRGlBHFj4igsWYpJg06NrgRg8aYaqqRfEYsrBv/VkR1JxIjTv7wTyoRgxJRjTUiJOdG9L2NWFkyGGVz+2DZvL7VVvz3r102Pv6tiOpOzo0ohNgWGVEIB5ARhXAAGVEIB5ARhXAAGVEIB5ARhXAAGVEIB5ARhXAAGVEIB5ARhXAAGVEIB5ARhXAAGVEIB5ARhXAAGVEIB5ARhXAAGVEIB5ARhXAAGVEIB5ARhXAAGVEIB5ARhXCAamPETViDUkzBchShDNOxFNOwCJOCvUvxA4ox1jQOS/A9fPtPiFzihBEXLQKmTAGmTwcmTAiXS5cCP/wAjB0b7psxA1i8GJg/H/j22/D4kpL4B6TBYnyHvv5N+Nh7GAP82/G+dyc+85/AUL8p+tt2gXc9Rvud8Lr3dyzDzPi7hMgNThjxqaeA008HbrkF+MMfgGuvBXr0AGrVAq6+GmjQAHj8caBTJ6BuXeCPfwSOPx548834B2wHD5uxzmy13jTL/wwDvNsDjfO7YoT/DL7yn8UX3pP43GuGT7wGGGrLvt5NmO1/HrynMuRjx5PyCEEiM2JRETB+PDBxItC6NXDppUCzZsCNN4ZGfOghoHFjoGVLYPBg4MMPgS+/BPr1A555Bnj11bDE3BFz/BFoEdsPT5naBNofrWO/wjOx36JVbO9gu13sEDwdO8C2f27H7hWsPxnbJ3589modX5apdBVpEJkRb7oJ2HdfYP/9gUMOAX7+c+D3vweOPDLUoYeG2yefDMybF39Thszyh+KRWA08bmpsahLX9taT9+2qGsWXS+xZVIidEZkRL7nETm5n35n22w/4/vv4mzJktj8Mj5kZnjA1zbFoaC7ZECTEzrBbPRquuGJb06XSQQcBU6fG35QhMqKoKtitHg3nn7+t6VLpJz8JW0mzYYY/GPXMDA+bWEVtaHp0J+IxPHZX9VB8uRhZFueiWmG3ejR8+inQtWuo118HevUCevYE3ngjbA1N7GPjzMaN8TdlyCosRKHfNWglLfS74Eu/LUb6HYLWUorro/2Ott4+2A5bUtthrP9S8J5d0dj4cgNWxP8aIbZPZEasSFkZsMLu2YULrUo5G9iyJexf5PrkycC0acCSJUBpadjPyO25c+NvToPV/sKga+Iz7wl84jfAYL8RhnpNzYzPYaB3N9736gbGecO7CJv9DfF3CZEbIjei5wEdOoRV1QceAM45B2jYEHjrLaBevVDsP3ztNeCdd4AnngAuuAD497/Dbo0dwX7E9SgL+vNm+B+bEW/E295VVvK1xQf+vWbKJhjmt8SnXgP09q7AAL+OGfFiTPMH2nuWb0dl9qlr42cQonKIzIhr1gDLloWjZbp0Aa68EnjuubDDnkZkPyH7C9u2DU3JKiyNSNPedVfYwT90aPgZLEljKfrNF/jj0NE7Hp29E9HF+wte9k4znYKu3um2PDW+fVr5dhfvJFuvGT/+pJR6wT5vmNcyfgYhKofIjMiOe3ZNJPTLXwIHHBCu77UXsPfewK9/HfY1so9xn33CdR6T6H888MDw+GOOAWam6DfnaBo2mrABhv16mYitralU39TPqrhCVCaRGZEjaVK1kmYjmpLPjBXZHd0XNPV73h3xMwhROdhtHA2XX76tobLVb36TeribjCiqCnYbR0O6I2vSEaunqUrEmf6QoCqZ6B+sDD1oYqOPEJWJ3cbRwC6IwsLKEQePb0jR41Dsf4P/ejXxsomNMJUhft5wr038DEJUDpEZUQixFRlRCAeI3Ijs/5sxI4ywYIML4xMXLAhH2DAKf9y48PmPr7PPMDGq5rvvwv7DdCnxx2OK/w7G+91t2ceWrwdD2Yr8YZjs98Y4/2VM8HsEx3jYEn+XELkhciPSTBdeGAYDc7TMX/4Sdug/+yzwr3+F/Y3szGeUPsegXnwxcN554TKTweA/+IPQ07sQ7/l1g1E1HNo2xG+CD/0H8LH/ML70n8bnfgu86/0n/g4hckckRuQ4UpZ2LP1Gjwb+Y/c+h7Ldey9w661AnTphhD6Hs3EEDQeDN2kSGvLuu4HbbweaNweGDAEmTdpWX38NLLIStQSF5YO+P/YeCYxY4N2AD70H0N+7DZ96DfGRVx/veNfgTe8Se/1f6OfdjBFeu+A9uyoO/C5FlqEjoloRiRGZGOqww8JuB46OYT8gR9YccUSoww8PI/QT+u1vw+XBB4ev8Rhu873szK8ojshp1QwYg3pBGBTDkdj1wEj95FEy3MdlxRE1DUzJIU3ZiKFXD5gY0SHEzojEiIyg+OlP7eR29t2lBvWtxMVjgbFSdczvbnEQAY3PzHBC7Ay7ZXMPB3qzBExloMpSI3umnCAjiiqC3bK5h3GGqcxTmbr/HmBcUtU011LVVGSC3bK5Z/36MAI/EaH/yith2FNC3E7el9hOtT/xGRVVOMaeRZMaa77xX8NE/w1M8HuWi9vszpjo98Ik/81gm/raf2WbhpdspMYakS6RGDEqVqMEm+z/DBReZzZdheIgAfA6lGE5ZpuKsBZWbxYix0RuxJUrgUcfDfsJqZtvDkvLvn3DroqHHw632a/IiPzHHgPq17eq5/1hp366KOW+cJnIjcg8NJddFvYjsj+RnfuM0me/IY3Izv333w/7DRmpz45/Hk8jcpTNjnAh5f6uiH+7kk9VDyIxIktBlnyc14LmO/NM4JRTwtAojq5h/pp//jOMWWR+GhqPS+ZCveii8Bi+dtVVwDXXbD+JVJQp9ytDLU2dYydqyF01IBIjsh8xVUtntuJsUamIMuV+ZYhxlM/GficjVgPsNs497Ef8xS+2NVS24rC2VESZ6bsyxJE+HWJHyojVALuNcw9LxD333NZQ2Wp7JaKMKKoKdhvnnrVrgaefDhtgOO1atmrRIhSNnYqZ/mflqTJoyMRY0oQS21wmKzk1RpRiBrq2sQNlxGpAJEbMFexMf8u7Cn282njHu9rWawUJhrnex7sWb3qXBuvc19u7PMjyzUgMdmXwPVGrt/1tg7x6muy0GhC5ETdt2joRKefDKCgIc9Aw1nDAAODdd4Hhw8OQJ6bf57EffwwMHBgGD6fLCszBcP9pfO2/ii/9Nvjcb44xfid85/cN5sT4xH846NZgOv41WBR/lxC5IXIjsivj3HOB664D/vEP4IQTwrhEVj3Zp8j4RMYjPvJIOCkNg4X/+tewS2NnMwYnU4bp6O/fhg+8e8snmxnjv4ihfjMM9h/DYK8RvvG7WSl5GVb4c+LvEiI3RGJEzu6UKO3efjvsT+T8+UylT+MxKv/OO8POfHbcM/U+l3yu5H4e06gR0K1bWIImi2n5mV6DlOEH9A8mmLk7iLzv5p0Dptdn8C/XOc9FWEW9JMjQxrT83by/B9VUTkyTiXgejlcVIhsiMSK7L5hCP9Hq+bOfAXvsEXZpMDyK4utMu88lYxeZdp9zJSaO4Wt8T3LraUI0NZmNrfMjMtg30TCTWGeDSCLnaaKhhvu5r2I0xc50n4nPlkJkg922uYdGpLFSmagyxFE7ZC5y131BM3NqNyGywW7b3FOxRKxsJUpEGpEG4WgZmnF3iqXoe57Vm4XIArttcw/7/VjNTGWiytANN4TnmYNwiBurnBwyRsNUNGViO1GycZ1D4jIVq78DvNvCEwuRIXbb5p7Nm8NMa4mU+Vzn6Bh2WySW3Je8/c034T4uuZ04Jjn1fkLs5iAbsQrz/UIsMHEAOCcgnekPNn0aLKf6A4LRN5zElOvf+u8G68X+18F7MtE8E+MZhciGSIyYCt8Pl0w4nFgnjObnvBbJ+7jOmYYzgfPpM4/pKO8FfGbLIX5jjPJfCBINf+Y3DVIsMlqfYVKcFViIXOKEETt2DPsQ2X94+unhkt0brGJSTZuGgcFMMMw8p2efDfz970CfPvEPSIMSjI8HBNdFod/ZTNgh6NAf5rcKgoOHeI8HxuSIllJ/cvxdQuSGyIzIqbvLrOBhjlP2E3LiUhqOMYeMMWRyYUbjN2sW9he2bx9G6nN679vsUYxR/WPHxj9sOyTPBsU+wk6xY9HBOxKveGeiQ+wI/Dd2HF6JnYHOsRPQ3jsM7WIHo5P3/4PjKs4CtTN1MjGgWIhsiMyIzOR9/PFhin3qoIOAU08NS8STTwZOOilcZ8AwX+c2R9XMnx//gDRInh+R3RiJhpXEeqLfkEtus0EnsZ+trZmI/ZVT/LfjZxYiMyIzIqPsU7V47ki/+lU4GU265DIMioMEOG5ViGyw2zsaOI40ldl2JPY9ZpIwSkYUVQW7vaOBjS/MOVO7dnrieFSOM+WUbekyw986xK3ikLTK1j2myf5b8TMLkRmRGTEXLPW3DvpONVC7MtXXtNAfHz+zEJmR10YUoqogIwrhANXKiCswF0swNRiKthTTg+zfi/E91trehRiPYowLxNT8QuSSyI3I4WsMDmb0PUfOvPBCuP3JJ8BLL4UTygwaBPTuHabP4JIR++zknzUr/iFpwum5OU03s3kzJQZnDWaajCF+I/TyLsRIv33wGiP2fWQ4hk6IXSByIzKjG1tEGZ3PETMcVdOlC9CjRzjvBaPyhw0LR9ZwBiiOwGEWcLa4ptOnuAlrytPuD/da4z3vDgzy7sO3fh8z3OMY63fGZ16TIFXGML9l8Dq3WXpWTIG/PcWwOX42IbIjEiMmT8vGUq9WrXBMKVNgcG4LpuFncC/NybQZifny2XXx1VfAF18AM2YAq1fHP3AHcLKZJ+Ip7JlO/6nYr4Ml1TL2MzwTOyhIwf9UbF+0iP0kSMnf2o5pHfvlNinwK6q16enY/wv6K4XYFSIxYqYTlTKan6FT2cBB3A/GwuFriZT6VGKby4qvJe/fkTgUjoMFZvhWjxZiF7DbPPdkOnU3x6FykHg2MI8MO9xTjYbZVdGwzWP/G8Q2CrEr2G2eezKdhIYlYjrV0FT09q4IEjulGqi9q+KwNpaK0/2P4mcTIjvsNs89y5cD550H1KyZnjgVG58rs4FzHnaMhyoxheLr3rnl6u6dF6RP5P7u3j9s33m2PD/YrhjmlEoMr3rVOyuI0BdiV4jEiFHBPsQFGIcSfzzm+2NQ5A9DMb4JWkin+x8Gk5nyeW8pMshcLEQl4IQR580LW0GLioDJk8MIi+LicLo15qjhzMATJ4bVU+aj4bHTpgHLlsU/IE2G+60xyL8/SCrMDN/v+XUxwm+Hj/wHg3kwCv3/lvcxCpFLIjcip+5muv3bbw+7KjhrcLt2QOfO4T5G6TN7N9NpMDUGj+VswYzkp2l3BufDZ2InVh+HeI2CxpuB3l3BHBgf+PcF6fc/9R7Dx95Dtn2PvX5DsM7SMTk51I7EBFUl/gRswYb4WYXIjEiMyMRPfE5kiTZnDlCnTphen2n0mVq/bdvQiG3ahOIENUyR8d57QOvW4bwY3bunNwkNZ3di9wUj77e2eO5R3k3B7Wax/wm6Idglwe1MUyoyAwD7E8vM9EJkQyRGZCl46KHAfvsBBxwQRt7vuy+w//7hkun099or3GY3B9Psc9+xx4bV1Ex417suiEekuSoqYbrk7Yr70hFbTpnvZhkyHHMnRJxIjMjuCxotVVfFjkRj8tkwE3ZnP2JCLBU5172MKLLFbu/ck23K/QMPBKZOjX9ImnAS0vvNKEyZsbtEo3PIm6qmIlvs9s492abcZ7U1k+RRhPlKn/OOQxfvpN2mTt4J6On9CyuRQYo5IZKw2zv3VEy5z9ZPTjpKk/EZkEt2V7D0Y1WU3RlTpmRuQrIJa7EOS7Eey3ejyrABKzTFtsiaSIxYkTFjgE6dwolLmVSqf/8w1pAximw9ZXwip+xmv+L774etqgyPGjky/gEO42FLMCX4N/6rQVfJZL93EPfIbOPfoi/GoAtmbRxo/95WmD+pMcrm9MaapWOw6IeOWDq7B0qmPovS6Z2xfMH7WPhdm+C1qkBJSdjlxJA2tng/+SQwYgTwwQdhSBsTRzPOlF1TvK7cx0TTPJ6zSKcLE1QPHRpG5XDqd3Zx8fN4Lk7vzozxo0aFP+xsof/ss/BeYgHACXNdwQkjtmoVTsfNsKc//xm4+OKwL/H664G77w4vKM332mthYmImG+YQOX7xrrPZyks2GL3snRYMqxvo3x3MVDzIr4c3cSW64WJ8uO4WjBh2GMa//zvM+PJKzJ/8BL4fchamD6+F7z49HdM+/wdmjb4J335yshn0hfgnuw1rL7ymd9wRTo/AZNG8lhSnzWPcad++4Tp/gI85BjjttDAMLpNIm48+As46C3jggfD97Gd+8cVw2oZ69YD77gsNyS4vht1xanhO2cBM8pnOn7I7icyI/CVkin2akBeLF4pLxiIy+JcXqm7d8EJxyaBhfrk8hukVGa/IefX5BUepFi3CJX+ZE3AWKs6rEc7P3wgF/o3BiB4OLliOOfZqMdZtno+pP9THN5OuwtiJF2DamNqBCacPvyzQzJHXBUbkcsaIazBt2AXBsqiwDoqntMyZFkxqig2r02uEmmmHseTjd8IYUt7wHHzBa8VAbl7ruXPDuFLWeNhox/ewT5nG5YgpjqjaGSxtE481LAGZI5fnY3aHV14J+5vZ98wSl0blcR9/HM4sxvhXGp+1MJeIzIgcyJ2qQYba3pTcLiv5+ZWNNu28Q4L+y0T6fg4mhz1FJtiyrgSTBxyJsd1r4Os39sDYt2qgsPcecXG9osL9Y+y40b1yp6+61cDyYrur04A3farvJiFOIFQZ8LEk1eezClpVsT8/GvhLmerLrKpK7t9chQV43jsqMCH7GdnF0c37mz0tbg0h2bRuPiYOPBKj30hlOnc0qmcNrFiYXuAzHxX23DP190Mx9UllwMeWVJ/PzA1VFfvzo4HpMVJ9mVVVyf2bq6xEbO8dGsQrctgc+xk5A1VFI054/3CMslKHpZyrGtmDRrR6XRqwOpjqu0mIz2yVAau4qT6f6VSqKvbnR8OVV277RW5PrKpur7qaav9P49rL9JOk7f+NL7mPr+1pqvjebJVcIq7GQrzknYxWsf3RxtTSxOiO5EHh+VgismWSjSV8vq84ZQKfEdkKXhmwVZQNLxWVzthjV7FbKBoY3sTWrIKCMJKCD/RskGFjDcWB4KzKsKGGLab33BMu2XjD1lS2njLTG59L+vULW+Cogr4e2hYMxjMFn6FVwQC0LxiO1gUD0abgI3QsGBcsO/QdhZYF/fBSwbTy92Ur/v1cJmcQYCpGNtgk9zVuMnsmPyN6sXVBSVM2tw+WzevrrMrmvoPN6xfF/2qxu4jEiGwlYxcF0yJyzkM2XR93HHDiiWH3BQd3cx/nSeQ250g8+uiwOZzNzzyW62wW52eU/ug+8fERrsXbqIkC/B1f4gG8h39jKO7AIFyJ/rjA1m9HTxyPSbCHDSEcIBIjZpqzZmcaO36DPZV9iil+H0zwuweBvm97V+JD/3587D8UBPqyM53xh/29W/GWd1nQt/ep9yi+8wukKqBv/XfxvT8g6JfNR+w2zj2ZZnHbmUZOKsXrOCZonWQrZavYz4P8pU/G9gnWqRaxnwbbzFfKHKbMX9oytnfKsCbJPTHChXlo+fydj9htnHt2hxG74Y9Bf10i4FfKL7ErqEVsLxmxMsk0wfDONPybUnTHseX9dlL+id1ArNnIiJUIWxjr19869nBXNW1BKbr6MmI+S0asAmxAKTp6MmI+S0asAqwxI3aSEfNaMmIVQEbMf8mIVQAZMf8lI1YBVmMRnvMOD8KOkpM6SfkjDqCnIRnLmY/khRHXoSyY9amjd3zK5E5S1deL3gno6p2BtVgSv+r5RV4YkYOsN2AlmMQpeaC1lE/iNOnLg2udj+SFEYWo6siIQjiAjCiEA8iIQjiAjCiEA8iIQjiAjCiEA8iIQjiAjCiEA8iIQjiAjCiEA8iIQjiAjCiEA8iIQjiAjCiEA8iIQjiAjCiEA8iIQjiAjCiEA8iIQjiAjCiEA8iIQjiAjCiEA8iIQjiAjCiEA8iIQjiAjCiEA8iIQjiAjCiEA8iIQjiAjCiEA8iIQjiAjCiEA8iIQjiAjCiEA8iIQjiAjCiEA8iIQjiAjCiEA8iIQjiAjCiEA8iIQjiAjCiEA8iIQjiAjCiEA8iIQjiAjCiEA8iIQjiAjCiEA8iIQjhA3hlxow8MWg+8ugZ4YTXw1lqgi623t/Uets79n9jrQrhEXhqx3vJQT64E+q8D/lYK3FAGdDQz3m/7HzYJ4RJ5YcT1Zr4+ZriuVtq9ZKq7DLjLdJuZj+vX2fKiJcClpgsWh689b6bk8VL+qK/dA1WVvDBiSQw4qNj+MUWmOaa5Saq4nbxfyh/ZtT/c7oGqSl4YsdSMeGyJ/WNosHlStZRd+xPtHqiqyIhSfkhGjB4ZUZIRHUBGlGREB5ARJRnRAWRESUZ0ABlRkhEdQEaUZEQHkBElGdEBZERJRnQAGVGSER1gm7GmUvWTxppGT3L0BdXN9LLpxdVABxNjEBmVwTAobvOY10yJ46X8kKIvHOPTDaHpuq8FepmeXgW0N3W2i/W6bdOUQrhEXhrxKTPd4yuA52w5wH4lb10G1CkL97daCdxo62usFBXCFfLGiCzp7jaD3W2mu2opUGsJcF4pcI7pAls/25anLAJONZ27GKhtx/BYKQ9l9wF/gKsSeWNEGq/GLFPyAzxbUank9eR9Un6qKEyJUpXIGyOyuhlchFRN21L1kv3QNrJHk6qEjCjln2TE6JARpXLJiNEhI0rlkhGjQ0aUyiUjRoeMKJVLRowOGVEql4wYHTKiVC4ZMTpkRKlcMmJ0yIhSuWTE6JARpXLJiNEhI0rlkhGjQ0aUyrULRmSQ+XIPWBADik0Ml1tsy3lbwu1Nuyl8Lm+MmDL6QqqeyjL6YrUZkHNnPmImbrcqXN5sP/CX273FbA83LA0zP5gnK528MWJyPKJUzWX3QTbxiJxtmgam2Zh6g1O+32Ofx9hVZnfgsq0ZdMNuKBXzxohCZMM6KwX/bSVezUXAmaXACbY80XRose1fDMy36iirpnOtGFxmx7LaukVGFKJyWWXG2ntBWJ0NqrX2fBnI1o9eCKyw13OBjCiqNXwu/A1TcdJ8FRp8jisBlsqIQux+ZEQhHEBGFMIBZEQhHEBGFMIBZEQhHEBGFMIBZEQhHEBGFMIBZEQhHEBGFMIBZEQhHEBGFMIBZEQhHEBGFMIBZEQhHEBGFMIBZEQhHEBGFMIBZEQhHEBGFMIBZEQhHEBGFMIBZEQhHEBGFMIBZEQhHEBGFMIBtpn7ImlqtyMXAktkxMzgBJNvrAV6mnqY/rs6nKqN89y9ZcvnbfvrTcBummfSWYrt137KFGD6dGD8BGDq9PX4aul7GLfuXQxf8wo+Ly3AgIWdMHr1uygsHY6BizpjyOJeGLW5C0oxKf4p6bHAbujyc40HZs6wEmX5JszdOAmzls3GD8umYuGmqSjdPBvzVs7D/LUzULx5CpbEZmMRJmAz1sc/KXckzwZVUdcv1SQ0GbPaHHaFfXEtV4ZGbGHL/9j2BfYl97Xre+HicM676kajRsAZNe2mugI4+mDgysuBhiPuwn2f34iGhdej89cd0GJEY7w+qzkeGX4najZpgmue64SXyq7Gd3gj/inp0aAB8NezgWtrA4fZua63c7327gLc+tUZaDOzNtrNugKNCm/GQ6OuRf3B9+Oa/rVw08i/oMecFuiIQ7DAL4x/UvWjShtxnZnv9aRJJW8tAx5aHk4oWcfWOdvrxWZEziZ8qanOMqCzlYw8Pt80yH5sgh9v+05mzQpLpAlWAj72qBni1tVo3uctXNO2K65+vj1uHXgj6o+/AE1G3YvWE+5Fo1F18OKU5mgx+SbcOfRyPDj2Iryy9hIM9h9Bod8F4/yugcaavvG7YY2VX8SzE86cufVcDRuGRm//wkY82n4S7m81Ec8N+gDtp9+BN9ZfjwFlrfDiD4+i16KGeHZMG7Qa1Rjt51yPHitvQV/UtnO9aJ88KUkTrVSegpiVlflOlTbiwpj9A/iQnTy3XWKZSsnPAPkk+/efYt6gET2rfteqBey7L3DAAcBvfwOcf80sdMcv0Mwud0tTCxPXm5qeiC8bx5d8rTm3vRp4NFYDjySpvqmRqQjDgu9/vZn/4ou3nutgKwX3/hnwaNsZ6Ib90Rn7WUl3IDrhCDzvH4EOONS2D8MLpk74PV607U440l47HB1iR6Fd7GC0ie1fridj++HZ2O/KjZ/PVGkjLjIj7jPf/hE0WXKLV3WT/fvPt6o3n3+9jVY9/Kvtsyub0N8un2PGOAyPm4ma7oIam1rF9sZcfBV8/zTi6af/+FzUf+pNRSu7tR73TfaebNXQ1Dy2J1bDHnTzHPvaqi4lFUvE6ir7959RutWIZ55p+5KMUfOi2XjJSqiH4zd3tmKp2MRUhOHB908jnnrqj89F1b5PRswU+9qqLmVWFzvXbsBULV7VTfXs2Th4RrQfp549gaZNgZYtgeZPAK/2KUF/1EIXrya67oJeMnXzzgme38hme3Tr3n3ruQLZeu9PZqCdGf8pb78fVTUzlaqmQuwSGwOzlmBisMxeaqwRQuQQGVEIB5ARhXAAGVEIB5ARhXAAGVEIB5ARhXAAGVEIB5ARHcL3fXgMaRDVDhlRCAeQEYVwABlRCAeQEYVwABlRCAeQEYWIHOD/ALFePFZotCvlAAAAAElFTkSuQmCC;" parent="1" vertex="1">
          <mxGeometry x="104.22" y="512.5" width="71.57" height="95" as="geometry" />
        </mxCell>
        <mxCell id="uUMPkl429nScn1y42nC5-16" value="Blank document&lt;br style=&quot;font-size: 12px;&quot;&gt;&lt;font color=&quot;#ff8000&quot;&gt;F1：96.42&lt;/font&gt;" style="text;html=1;resizable=0;autosize=1;align=center;verticalAlign=middle;points=[];fillColor=none;strokeColor=none;rounded=0;fontSize=12;" parent="1" vertex="1">
          <mxGeometry x="85" y="610" width="110" height="40" as="geometry" />
        </mxCell>
        <mxCell id="uUMPkl429nScn1y42nC5-19" value="" style="rounded=0;whiteSpace=wrap;html=1;fontSize=12;fontColor=#FF8000;" parent="1" vertex="1">
          <mxGeometry x="235" y="267.5" width="235" height="305" as="geometry" />
        </mxCell>
        <mxCell id="uUMPkl429nScn1y42nC5-20" value="" style="endArrow=classic;html=1;rounded=0;fontSize=12;fontColor=#FF8000;exitX=1;exitY=0.5;exitDx=0;exitDy=0;entryX=0;entryY=0.5;entryDx=0;entryDy=0;" parent="1" source="uUMPkl429nScn1y42nC5-1" target="uUMPkl429nScn1y42nC5-19" edge="1">
          <mxGeometry width="50" height="50" relative="1" as="geometry">
            <mxPoint x="180" y="470" as="sourcePoint" />
            <mxPoint x="230" y="420" as="targetPoint" />
          </mxGeometry>
        </mxCell>
        <mxCell id="uUMPkl429nScn1y42nC5-24" value="&lt;font color=&quot;#000000&quot;&gt;&lt;b&gt;movie &lt;br&gt;and &lt;br&gt;delete&lt;/b&gt;&lt;/font&gt;" style="text;html=1;resizable=0;autosize=1;align=center;verticalAlign=middle;points=[];fillColor=none;strokeColor=none;rounded=0;fontSize=12;fontColor=#FF8000;" parent="1" vertex="1">
          <mxGeometry x="480" y="360" width="60" height="60" as="geometry" />
        </mxCell>
        <mxCell id="uUMPkl429nScn1y42nC5-28" value="" style="rounded=0;whiteSpace=wrap;html=1;fontSize=12;fontColor=#000000;" parent="1" vertex="1">
          <mxGeometry x="570" y="345.25" width="310" height="140" as="geometry" />
        </mxCell>
        <mxCell id="uUMPkl429nScn1y42nC5-35" value="" style="shape=image;verticalLabelPosition=bottom;labelBackgroundColor=default;verticalAlign=top;aspect=fixed;imageAspect=0;image=data:image/png,iVBORw0KGgoAAAANSUhEUgAAAvIAAAPoCAAAAACZykXZAAAgAElEQVR4AezBBXiT58KA4edNUkeDU4rT4gynwGDIgDJcizMcBjTAsCKDIcVpcB3uLoPiuqLFrS0txZ0ipZI2ef8kbAs7O+fM/sMVyHffQqJQOBIhUSgciZAoFI5ESBQKRyIkCoUjERKFwpEIiULhSIREoXAkQqJQOBIhUSgciZAoFI5ESBQKRyIkCoUjERKFwpEIiULhSIREoXAkQqJQOBIhUSgciZAoFI5ESBQKRyIkCoUjERKFwpEIiULhSIREoXAkQqJQOBIhUSgciZAoFI5ESBQKRyIkCoUjERKFwpEIiULhSIREoXAkQqJQOBIhUSgciZAoFI5ESBQKRyIkCoUjERKFwpEIiULhSIREoXAkQqJQOBIhUSgciZAoFI5ESBQKRyIkCoUjERKFwpEIiULhSIREoXAkQqJQOBIhUSgciZAoFI5ESBQKRyIkCoUjERKFwpEIiULhSIREoXAkQqJQOBIhUSgciZAoFI5ESBQfGSlRYRKCn5mEwIQKiTCpMDMJqeJXj9K7wD1PgY3pUfq4DI+y38vxNiEj3MvBfxT2isxF+Y1HhpxcKCGwiL+dUkSFjfFKCf6qpIhifEhC8vExJbvwXyWq1NKUmErFn5foakp0coJEV/5Aoit/wdsXXrx6m5133rz2JCqXhneivZw47ZUNY0w+/oKnr5KKEJUuAz+74Zk6IcZYSP0kPveV/K6QHO4Zm5dfPU7nAg+yCWxMj9O91T7Odt8zPiED3PfkPzr/mkyF+Q2JwKTiHSlVvM+k4i8zqfiQhMReXC0sgCSjO2ZPkzNEGn3ueL9Mx89epsMs0eQOibd9+K9uOGdIib/0hQdWxvDC/OLN07z8W1cLGi7myIG8WpQ/cKUof4EhIS1JhtS8k5SUhhfpVLwTm0bN/bSpkLFaFB+KkNiLeHfMXiRlwyxZPHB3d01yi/DmZxHemD1PzspfJRPc+YUx2RWFQxMShcKRCIlC4UiERKFwJEKiUDgSIVEoHImQKBSOREgUCkciJAqFIxEShcKRCIlC4UiERKFwJEKiUDgSIfl/8Dw2bSYUio+BkPxlidGF+a12q+b0QKH4GAjJX9bzdBi/NS1+OArFR0FI/pqnM8NPq/bk5z+5kjErCoX9EpK/5tV3izbuvBnCv3dh7fotJVAo7JeQ/FVNkl/c8N3gxjtR58vmwqbz2hteKOzEi5MqzIy5iqL4hZD8VUOn5H4g57XnnR9bT+vMr2J0OWegsBeHqmOVyr9eA4HCSkj+qsTECaHHChzJhpXpVTrBr8aN2VMVu/fqlUcGPn0JUy+v52dq/0bNUFgIyV93unIyX+3k3xj+Ro+dC9934G50xsFFi7vxiYvN/wIb9cKvUZgJyZ9ieuuh4heJG7sl1NnNv7FyV3Bm7Nn1yevisWo9Oj+fthXteZ/nqqooQEj+jE1bXear+dWl+ncmDObfeDu2fSH+i5dvBchMz0wqyPBCItO7887bl8KYzvWhCY1Imworw1NNZkHKE6nJLHgVp8qi4mevEzNDwmPhmoV3jE+kTOfxOEVgdMmMRfJTUN/ImO2NRGR34p1HQzfG8QuvdcVSQdxLtwx8zJ4nCpBpUic+J4Mrv3iWTnOhwV1+o8Ahz6T49IY4LSQ4aYDnSVlVYJAukPBCoNI+A0SGFyaQ7ul552Vc6rSQ8jIj8DY2gxuGOG3y6wxYxccKVFkE75ieGD3SgTE2I3ZMSP6ElyVj9tXkPa9+qFKav6HnPDXGgiO+TXypMrUPCzcZ687NiUVc070iVU//VplUV59PHITV0aoFLroxfphw6zp589BbTu2mpOedPqFhXBkb/Uq0G6q6GVdUw5zewlRjZ6utanWWtwdLYHa5XIokbymvnZnEk0ZBWG3dO5f3aPJ92+ph18OZB3TR8vEaOUbtmmxoFaxbQ7vJWXgnvtZql7J3+Rd99UPurTw5ZSO0+7I9sYsmP530jfup79/mC0js/5PalLbLvHiBaLXnqQpjxyVYvFkx4e5nIRlWrz5fe2iho/3O+Y6qtWzL1quDd2I1YJpKOs1p44rF6wHLDYV25eZqz0Nq7JeQ/Blz+nSby/teGTLxN7S9PDPJmFfVZdpTlTHXk29maBY92ovFpgFz1XnGecg5XL/jnQer1yXib7mvHfCDWjP3i5V9Myf1KrURi9jJQaXC6Ho19Nn55ue8Sl8+Wf5K1TqdnFbGzzjtpI3w31EPs6RKXxdOLp/2WOKXxFbdnhuzN96P+BeB+7sllZrHUj5e8QOL9x94r/C8VDm4/eZ8WiwiB/z4aN5I/lWhowMivw9bu9Gwe8DokXx+t6h4Uqjq+Hymt08rPJyYmOis1s1KNiSrOgwx5ZmYVZ/9aFjvuBlzvnZy311rRin3dKdq/lAsU9KRSZ5jJ4SPWFUPiw6Xq0U07LndD7OE5g+zO6ujToV2N4YL7JeQ/FfPlrXPhFm1S1Hp+OdGXdkI3Ox0FLMbPQ5zavQuLC6pikLgk21d07q0zMbPSj696bpz0GU1x2MWb8jI4RHHsIiYaLh5gt7nQqHa/HTjUhrWMt3JqeJS//08Xna2fS1nLOqMLcOb1HrvmhrT56vyYPbG+xH/oseFA+4Lh2mvaPiIxXquaHo39/5q7Kl3NysWgzc939/4Lr8zYfNpN4NxRIFAQ89RbCvlxY2+z6pN5WWBZx0qJDbMc6VZL1ONYq8Hz3BKGPZTNp9MtzPpXw77/t7wZXReFDtgSZdivTQsOrH/TgZtZLU9Tpj10o7lSY6tdTE7V/paoZNNNCfqx7pcF9gvIfmvwqvvL4RZR68Rz9O58U/1vFbUaKj5ha8fySX63qz+leqOcRfvPH12Zem48HCnLZkWZ+Wd5Z41uNepWJzmTvcNyWnVx8ov4J0L3/zEmY7t7uf4cUuGZ4asKuD+0wk+o3kyIGZILScs6jjnMB34adbliFrpL610xexojRT+RaszJ7dsKnr6CB+zWM8VTW9XPFyAPfXuZsXi/ts+NQKN/M7MLCu3ztq2TxpaFBuH2cNlJz5fVdkYf6Th+RSMfeoHeK1O26ZDaufn/c/MzjL+5uOa9bdr2w0//cTUbXzAkXtzevLshb7FTwcOzFp5XINF+4tVjW9CNlfG7EH5vedXfbbwjsv4BTEC+yUk/5U0qQRmJtXjklvK808N2jnakFIks98w1b3bMyMbD1NdO7MLq+dfh3uOrYjZtJff8x7TwQdu6w6lG5xasyPmKO/MWnCJNfPnXynbUdfAL2SNPxz3c+00MCNwvuaSBljU8S2Y7N7wTJhXuxkdsBo1mt/x8/92/vNhd535iMV6rmh6N9+Bz9lT725WrO7XLb2E35v1JmzDlkU/QtOC4+BW0JJ8h2euzEpCyiWNSXWr/qFM8KJBMx3D927MGdX/YNwX+1Ysvdp5WO7YvLL45MIzuusnPwscNXP5gp0bT7liUfxR3hS3BYWwONe2+bjlxv53XSfMjRHYLyH5c5KS6viOczWtFy0Ef4JRqPg3QsfvBG52OorZjR6HOTVyD1Zf3/nRFXmloBNds4/mX6xon+lmGq73OsQ70R2PsvyHw/B90Sb9p08ayLGv9RUycCutFrrUaoFFnbFlgEPXe41aeVqLRYlL/E76kiOrzv7+rjMfsVjPFU3v5t5fjT317mbF6nHtFsMlv9M58nTeu3HjhlKw+RhO1yv6fWHtZ1+N42nDA05qEV2zS7maMNanOW3H5jaV9s4Tk2qr69NhI58XiKXaNlffnWumt/wmd0rNI0CT9WrMCrQZhUWywU11vpRqeZv5m/YyYW6MwH4JyZ8TVk82mZiaxmIz/8nmR734RUiaivwbkw+EALdqNFeRXPXx8I6aBysv+2C266vaZZKSm456++XNdbN78p4nU9UvD44dVjM1j6OOYjXz/L4m9e8PbW/UnCk+LXJNz0yGQq96GUzuqj3VDS6bxjbGos7YMsCiTbtf9b5xxB2ILvec3+vzxdPnoy978xGL9VzR9G7eJU+eR+64lRUz0937bWe3fsnvfBd2o0NY2JL88+Y2qty6zJsVx5t6NM7TtfhRXfX7RbWrcuff24YHq5e3oETrwRwqO/LtBP3SR7ud1q5IEPuTzk1vs3maU2Qj53qxvTedGD8UiwJtRmFmbLL/WKnzpVr5nzwTf3DJqks9Ovlgt4TkzzGsK+8NBGQfzH9wvmyp0/wiYvMQ/o1Vp2YAiXNOXRKJbQtszL/Vq3P9dJjdOWA0CGMBcctI8cq8782EdelHNLh47IrP9gH1sNr4xP11ueLr4wVUKImZcevrRPWV8F5RP+Y/V3ZUZiz69CoEPL1cnUe7WqQC9tXi90rniDGl7+TvwkdMdmteK3HeurgUVY/uzlgM2Wfy2RHP78zIcm7C9gP6/d94OMWtCLrl9Eor6u9ISBWXuvmV80879FNPXS6yjfoCgipVAcJf+HIrKMzp6ddVxscZ4r54fVEbl+za906G7pP3rU+HRWO/bpjF1Xu6rujrabuNcW4DSjdXOb/oOhS7JSR/hWynncF/Mt6rHe9cPifWV++Pfdn/Jb/XdCOfJlN/Pb+zvjkKIflL3izqq+YP7Z1lan10uht2JaFkOL/TdCOfqPOl+FddF6BASP4XjFJzxdsZ+9J7fvebe/gN1aKv+US9GrSA3yp8JCMKhOR/4enqdlrszY4GHsZEfqPsaT5ZZ1re4n3Oq5uiACH5n5ACu/PG+xH/4usf+HTN68l7XJe1QGEmJA7DOHa05Dey7CvGp8uw77swfuG6vDkKCyFxHMmtN/Ibo77jk/aox+mHWGj8hvqisBISBxLd6jTvyReSn0/ctXEHX9dx0nT/HMXPhMSRXKj5nF/kaOHbjE/fQ4OXCoWNkDiUo10jeKfKnCIoHJCQ/LFHqVLxqUhYvkkDpOQbkB+FIxKSP1Yz7SYUik+DkPyxpoVHOmH1xskVheJjJiR/zKgSvHMitSgsUPy/uGfKieKDE5I/kLKuWHF+NXBZmBeK/w/3fL8ZguKDE5I/ssz0Nb+65dN9Jv/Wy3Qo/oqIfn1ro/jghOQvSdpy6bMW/DsR3ij+khS1QPHBCclfZVSjUHy0hEShcCRColA4EiFRKByJkCgUjkRIFApHIiQKhSMREoXCkQiJQuFIhEShcCRColA4EiFRKByJkCgczOunKqzSvCbNa3UOFc9deSwAzYX4SslYiNSvkWkz8AkSEoWDGT7OGat8UTJ/lOuXTuqzmQlVY2ZEjZUqz02R4l06BWO2ti/vF00BU2b329myxz94qUq+XtLIfyddS4r7MaplmT97u9W5sOtA7IiQKByLqcgN/o6M7neyZo9/8Jo/w6Wk5s4dfqaN1GI/hEThYMaO4MPSRmqxH0KicDB6HR+WNlKL/RCSj9Dbk5VdUPxNeh0fljZSi/0Qkg/huKZYCu9IDycsUjbX1GKWrFZhlizeAtLVFTPj8qKFk91cko0uCSrXm845+RfPR/v5JW9LVxOzlDg34YxVikHjTILGCbM7O5N9yxnVxjhUqQ0mVywMTgIMTm9TYXGxgDtgPHCxxOduWCSHXHNTfZnHOWpPS3c37uzwz4BZ8rpHGlGmEmbXQzz9jO7OQORuDZBSpAYfoYAZfFjaSC32Q0g+gOQi0Vog0ahxJqnPOCy2Np7WD7OlB7KZgCueW9XwpuIeDWDwfpw6sVSFmMeFDmX+bG+m8m9dVZgSnTXJFVvyi8CgUsfdgH21anrkS25bDuiz26eYDPFZmJZ7s+a8wfPzAWUuVnDK0uR89SFY6K+lkcnX9G3KuDmDaXctPSlHx/7k8TaHX5mOsG/Uia/33nOvvqBaeClZM2HN8zHD4f6ciI3Vbt3R+hfqKVjcxSldUsNFzrC6DRbtl/ERarWWD0sbqcV+CMk/sK2QN3+G6cDFgcC4EqvWQLWDmD0o+6D6AczudtkLlBycZ89IaNS5ljNg8IkhY4/9J+mZZ1gyrdtdGh1P2hHzbuLSZlpa3mm5npVtgEcnlm6H4msKw+63M4+mmpq3hpgxnFmpf9hlOlXu5b4J56DKIRWQ/PkpyF519rG3R+ZDmWYZO9NnVoYR7fxOs7gTO/zjBwRd/upRptNhppE3IFff/LVdLvY8kX56K+cZATBoUIb7U/dehYrBZbl7wu1EULZpBUrzEQrux4eljdRiP4TkH1g5KPv3daSaP5ZwrWUUp8rFR/zUe153zLY0If2ZfJg9OP31Sxpu5WCNwsMbu2JhyJdxZDnPpptZ2uHGrunykvZK7Qe1Q558Pxtm9sZqeQcoc1KN2Y3ad2DWN5jtrlv2uDPHG8RWD3EiKPBkeYgsFYdXhCvwyucx6S7kAla2o8phATP78sPXHOvw/EIeah7wupSO3XW7LISwCilpz+eBy2WTUm2rDpz6+jpVjsCpCkCtHzXAzvpDgvgo9Z/Oh6WN1GI/hOSfmDDUxbV/oIY/9qD0I06Vg2dldxQFUmochUWdseo9m9ohtDi7siLvPM83oQc03czSDjBAfyd7cqGo2iGYypyn3g4sUlpvNslc4S5YtNgAeYPrY1as6iwYNp4lHSEq/4kKEJv/Be4hnwPzf7iYlCUyNbCyHQ22ASPHsKkJjNh0VdwoYUh7siBPSgwJgDs+iZki0/Jo5EIqHcfiyBek17fjVAXM2i1yhp31p/Xjo9RuJR+WNlKL/RCSf+BB05N1tVtrrnHlD6UUu8GpcsgBMRtVwKb+zaZR5QhWN2tHM7le/QlN+Vl092nFoOlmlnaAhQt2ZUouFFU7BHxP0mkxFjsajNv1k9Philg0usUlNAu+BsqUnw3DxuMT1Jh7DZcWg+29W07BNxQuN1xSNz5LZGpgZTsabANGjsE7qAnR/X/QXioBn08vzcwcjeGOT2KmyLQMHwdze2ARVgZq7OdUheox0dBjLtwv3HUKH6Va+/iwtJFa7IeQ/AOmEVP81s348jP+2JNS9zlVDsMXm7Ni1inz16Xi3TZ8hdXYEbi6ljrAbzXdzNIOWCUXiqodwpXy8W4ni2OxftCpfe1ouhGLeh6jP0tCvbgDVHpw1Z3h48C11UwPLCYunF+TvGHp6Lr6QI34LJGpgZXtaLAN+O57cAqYjJmh8hlIO6O9FMAdn8RMkWkZPIm05/JikVjhIjX2c6rCiNqVwXX4MB4W6qDno9QvmA9LG6nFfgjJP3GjVdlgd/6M3XWhT27N5qs3MgBbOl7NMbs3LddiFTdlNB57K/JbTTeztANWyYWiCgYcPfwwa9+hWLyoVHNmdLnn6mO+mDXdE/Go4T00Czvim3JCw+up3wPe7f3zAa1Dr5W7yuRvowv4T8qXlCUyNbCyHQ22AfcanAf3/M0aF4V7c2e+IYO28bA0cMcnMVNk2vjPIskamQorvxCKnXS/UHLgpOjBG9GMH3i12KRv+Sh9uR8bZ6PRNRFEWvXrZHc3iUiK4/+bNlKL/RCSf+LhxTr8ObvrQmbX52+1kVowVr660iXtVy8KnUyDVXipeL6dzG813czSDlglF4oSHnGoj/liFVamWBW58QntlmPWbFNMrjEjQb2hcdmiSwC5qs9LoPZiTyj2NrpMGG4375VfXS2XIUtkauB6hdcNtmF2f8JsCeQ8lhPY0jYe6DHdlTs+iZki074p8Jiskamw2tSM9Ody3yrUewprWoPHwUwFJnzLR+nbqdhMy/ys0A2kpmHanTPGlktGE9UyPiEdSekev85njDLye665VQ/cZHruqlSvTZilj02TkMx/ke98auyHkPxDR0NL1eKPna6czMnyV3Unb2vhTLmKpuSkKzCvO1ZH6sWhDcvNbzTdzNIOWCUXiiqzbtpsKh7RYBbbYn9pJ5xOJ+U8mwlotikm1/M5cx6Re23g6bvpYsNqmn5asgSosS6DqYCMnvMNzqfbmi4+KGDIEpkaOFLD2GAb/Pi8PT9OOA5saDakaVnCJmxLhk1NuOOTmDU8TVKFC2SNTIVVl8UUPelxqkK9HRi39H5M6/Z1pvXjo1RrHzahvvzCpMLintPTnOJN9hv3qxsOJQn+lSldVXExncwlTmnUD1IAU97b2WPfCt7nunAjNp+dcMV+CMk/JKUQ/AlFr3KqHM/rbcsMfWZF50gSMwIpdDoVZld1X7wNov7EQryv6WaWdsAquVBU7ZDYStcZMxyzmHw9ZgM95zFpIND49JX08Mz/AL6PKq7kWcMl3iRGjtiGa3jOOyUyRKh6zxb5nm6sGeNjyBKZGljbigbbYFbMFEjeO+YUbWdnmNgfmNUH9H2545NY5aCaJZ1gY1MsXpWLoMZ+TlXoNw042eCpR9aoaf34KAX3wybUl/+FwCBsyh1zxn4IyYcRWT6WU+WQz7Uqdtb32wXcKmhgRVvM6rw8efyr1zTcyvuabmZpB6ySC0XVDmFvbTJO6CSg5foTFYAJQymzqAQ0DbmZDbj+xRPoP5XlHeZ3A97UOukannPyoHKn2N4QCl8lxseQJTI1cLx6coNt0G/B8ZLAgu60WZgjbVh6uO8dz6LO3PFJzBSZlntFX9F+iQqz2b1Jr2/HqQq5rqQCTjR+DNP68TGSZc5hE+rL/0JgEDbaSC32Q0g+jN11yXomB1YjxyzuBKRUP0bz9cCGFgu7cKRxrOZAFd7TdDNLO2CVXCiqdgixX52Amb05XK3kOcxiCiYxrzvUPLCkI2aBQdB/KpfLuZ3OD2+K3M12IXPnHwZNJKXNevrqifExZIlMDaxsR4NtMLdXu+XAgu4EBHf+Qd8XTLUOaMMzsqwjmSLTwqKuMHAS8Lr8DUZ9B6cqsLsOZkdqGJnWj4+RqXA4NqG+/C8EBmGjjdRiP4TkA0hOdp/eH/wXaYSzFLs6PNNNT3YyGeocIceqKm8DlnuE5TWFtzlPrsnNTGosTCnJx747TfnpFaRKmmL36x57dJ3ofLRmMllaXL0d5dpk4Gdc7hEKOSZWGbkETy9dS3gdsJT+U4kr8Kj4nEpMHEKngV0vvXYr7r41qlSqK7HdjOelU8myRa+cfXSbtEVS+qjauLYYVOTMwoWcqNBtYVavzl229LtXfkWHpAeP0BSW4+slLO+XkK5se4/kWccoc8z14pqILXilbhMIDJhG93l8jEyFw7EJ9eV/oe0qbLSRWuyHkHwAkd0T7iYJkvNRfdKdNuEJca4evjt29oqNQ5XaPeUpGm2La5FvnDCkdh/bHIuoxm8fmRJxdTVN65z05cXXgEiff9/RDVtfq1KpNTLBY26TQfq0YPBIfR8344t6O4C3MwL7TSNp6pazHmnk4yz+PUQlo0YmepzP1unWof21vKpuS9akFOdW+4QVfifuDG219Php93TPjNWGVNVsPHntUNq8579o2CrN9JuuaqTBULUVXF8dvgGo7JuzbTpO/ODmQkp89ZaYDZzSaAsfJf912IT68r/Qcx422kgt9kNIPoTYFCcBpJhc0hhjD312JCnx83KGC6kOy8xF9mg0SEPGAgUxE9cLaLGQ5565JUYnf6HZXqcEhy64YpaUqaWGa/u19QRgdHMzxAvAJDU3vJ2OGOtjJtd5fg4k7ngIVCiHKU4CIpXqlmu2u4as7jceF3Zxiz3ZkDMlXh9s5EzSjgdQsIYaM0M8Mto7Nf8ief1LoW6u5V/JUNfSfJT0OmzGBWJ29/nqWLVb56KQODq+441iPk4y+tbZpnnVpshkmSXlmdrkng9i3pCbu082F7ykSq5S41DpK+G3iscHuO3J7IyZKW1O7rwS7nkxCwziPbv8sB9ConAweh02Y4cBj0s9INtjk9PKFoR/fc4gvc+mPlTThGi7/LLvWwJz9ILyJ191PfCCncmNsaqRdRVWob7VDmNVfzuNt1LmDGaBQbwnOAD7ISQKB6PXYbOhGZAYPWrDkY2zpMuyljBs0uayWRk8aXmVxWParBw0mRMVqh+a2SDnwm5LIoJ2Jjce/3R6rpltvOe2vCXSBsx5daTC0TqJsorpJ+m3Q73F3/D5UcwCg7ARu+pgP4RE4WD0OmwGTMFiRfulHY5snpE2LB/NN+7y40DNejugy5brmRtfvvyiQp2F3Gj/PGrU6B0pjde2HDd8/8QLd9+WcArN+DIlg5PxWaWEC6nWdlLnP5kurOMuL8wCg3hPcAD2Q0gUDkavw+ZIFSxWtF/SkRtFTOMCabBjl9/zMi93V4DddcNKtYxbVu3K2dJsaOG365Xnqvi125jVZ3up0w3Jp4kQWBWMj3KaPIj0kRnCm4emwiwwCBuxuzb2Q0gUDkavw2a6DosV7Zd0xDi3z5jhNNmyyy+6QOaLmeFm4VMF8lWt2ntSPw0bWgyYwuKGV+62o//0LY3AmF8TIbA46Zsn3Gn0+tf3mmza1eOGO2aBQbxnXnfsh5AoHIxeh83SDlisaL+kIxysMWZ4SsGoXX5xA1bf8ITk+9mdm2xL43K4IFyu/mzsMKy+/25LIzDmqbISqxC/uj8y4lhPf+/w6CbHU2EWGMR7dtTDfgiJwsHoddiMH4rFivZLOsLBGjX20/mHXX4RQ86fS49Vx2UEB2C2oYWqfrO2mM3qs6URGAtkLZFs6F0OQvwKXdKM3LinZNzUtLq7bpgFBvGe7fWxH0KicDB6HTb+a7BY0X5JRzhYo8tCJg45/9nRqszpidXoUdTag1lU7SiqHhLArD5bGoGxUCSwuhWE+H1xiJFrI/xCai5sEJoKs+NVTfzK42xB7IeQKByMXodNuSOumK1oP7M3HKwxZjjttl31wi/kcFWsTvpSICw1Zi+Gz02/7ktgVp8tjcCYL9cC1cHivhDiV/6EGLk24k7Jt3kMl90xi/Ex8CttpBb7ISQKB6PXYeMcnhuzFe0HT4CBU8YMTykYdaA6zbcdrIzVkIk57tXeLTAL8WN9cyB4yNV8YMzVLBirq2WyRjiNXBvBynZ4hbthFuNj4FcipBb2Q0gUDkavw8Y5PDdmK9ov6Uh4EeOY4SkFnG8IU0WnowKrk23OdN08fijcdk7Vf1GD1Ydoq9IAACAASURBVB7QZfGZMmDMW2QXVvu/zHvDaeTaCCIKG73C3TCL8TFgExyA/RAShYPR67BxDs+N2dgRSzpypZjr6WLUjbjJ8wo3p/WD19OLNl3R/r5+Uo5zmWTxrn0XdWV+N5jVZ0sjMObXRAhIchYhfvmuO32/KhzTD11zRLhhFuNjwCY4APshJAoHo9dhk/90eszCS4/q8qbHrs6LSMmnPpOBPXUCgjHpVh0v1GtulMfnke2Wp+QY1ie+UpdvwNhuzZZGQHOn1bBl/Po8G5vnu+4U3uknoNnR226YxfgYsAkOwH4IicLB6HXYeJ3LiFnXRU4amVjwJy0pBaNy/5T9RZ1Lzdyu/1Rtw4ib+8YOa7Aj86XMuTOVNKxv9QMs7kKrpc6Ef/OqRLLmwN1b7qXvuGys12PNaB2PysVdyY7Zj/V4T3AA9kNIFA5Gr8Om1Wosyp0RUt1yUAlIKRLBpWK81i2Bikvu1ZQq045Va2m+Pn8UOC9uC3N7iXRn8/L1UiEB15tvCqlMVQ7nuV1/O/zQeVl7zKILGbAJDsB+CInCweh12Ozyw+JOgkCdWw3IGIPI5QKPGr1Z4pNW3koWxixJr3HJUU4TVWSRN/D2Hu5eEHdPhZnIY4pBunvdSkrtCTIqU1rMrpRMwWZuD+yHkCgcjF6HTagv/8FbU2re98opycWdP+lQDcmv0odnwn4IicLB6HXYhPrys2cuqYFLps+4m/ViKRX/Uey9NLnCCrvx3yzqyns2NsV+CInCweh12OyvgdWdFg807UfxtMQbn8QSjVoWV72a0ByzJ3WqTsei41lnkuqPclbReos2850LXsY6Hc/v1mRb6MU7Izam6d3QXYNVYBA2HmE+2A8hUTgYvQ6bRZ2xSKpwM+19n2squq95g3e7cYlk21Ies3s5a+zDovZeQK0NKYX//lhV3iNZTSVvygTIcrAwFpeqvYDKu1JjFRiEjTZSi/0QEoWD0euwCfXFItFzfPc86ggVrGndfmLW3XUr7nPH4ny5lG0NMHsYsGGY06xnWxtiepqv5DEpiOp2cGKqgBTfI07A8GkZ+xTYtH1aZ6wCg7BxOlwR+yEkCgej12ET6ovF7rqLOs+/MEfAxuZzehKdr+VarMYPY+dXWEwavLtOaCX/NRCbO9vZVEDv2ReL95zXfhlmZa9dzU2ET9sVWC3ojk36iIzYDyFROBi9DptQXyyGjc+ytzgWG5vP6Ul0Pt8jTlgs7kK/aVhMGry7TnQ+/zUQW+D52dJA79kXSvSY32cG8PAz1xtuvKwSvq0OFlMGYqON1GI/hEThYPQ6bEJ9sbj09ZXzhbHY0GJdC6LzNdyKxQpd6X266VhMGry7TnQ+/zWQXPnhxfRA79kXSizu0mwDcKzKj3WBEL/ddbAIDMJGG6nFfgiJwsHoddis8ceq19xWyzWYrW+3JpVr5kIt12IR0XpKNd10LCYN3lOr4fZWq+FVrrazMOs9+0KJzU0HTQSOVTlTBjhY67YnFoFB2GgjtdgPIVE4GL0Omy2NsFrfkhHfY7axOahz3PZfg8X6k11LaH7wx2zS4O2elRPGD4VYr/IHMOs9+2j4QMOxUsCxKmtbAgdr3fbEIjAIG22kFvshJAoHM2YkNqG+WD0p+jTN0CHAhhb5TSQ8bLUaiwkvJq1tNaMPZpMGe5gSih7IDHfzL2mNWZ9ZbgntRubH7GjVq4WBg7Vue2IRGISNNlKL/RAShWMxFb+KTagv7/zYIt7leBnY0GJrQyJ8Wq7FovQr35jjM/pgNmmwd/a2tbyAWX3m9sCsz6xxK9KuyYPZkWq3cgG6GXc9sQgMwkYbqcV+CInCwTTfiE2oLxbGZNcrfvfarISNzef0JDpfy7WYyfJnUJm+OITZpMG762AVWaTCUcx6zz4dcKLhOhdg2oCYXEDPebdzYrGwGzbaSC32Q0gUjsVUOBybUF8sBoUe0hQKr34ANjaf05PofC3XAq/reM5ONNU2Rgpg0uDddbCKzZ0pLC3Qe/aVc+2LH8gI9J25xh9Y3GXSQCwmD8JGG6nFfgiJwsH0mI9NqC8WRUsvMxUOr34ANjaf24PofC3XApHebVfA+Okn8gOTBu+ug1VsziInMes9+4o2T9KwscC98kS6g06v74tFYBA22kgt9kNIFA5Gr8Mm1BeLsmfn9Gy+cdY3sLbVgepE5W+5Fggv2HYFXCn+xUGkmDR4lx8WcnvTnjOlSNH0nn2hRM0DBedUA8rExKQyLetUZzdWw8dho43UYj+EROFg+s7EJtQXi3l9NLkjvC6l4Ua9qHRZN/U45p6q13fxX5xhum5P+2emgZOu1XvxSpv1SEYgYJHRLeuSClGNouMzfOa5PrHoZaD3kgyNP+uEvi9WJyqb+JU2Uov9EBKFg+kXjE2oLxYpEf4R6dpOAdPZoyme7UIuqRO+qMyuqymfV45c724o7mdc9tTZ4NzdHXghb4ro+h5y4UunpHT+hi2uHYCUm1/dUrsNHco7c3thk/pSbuyHkCgczLdTsQn15R15vGh6/onYgymlCvCzub14j74v9kNIFA5men9sQn35/5HopMbmeFUTNsEB2A8hUTiYqkexCfXF4kmSS2bMXr8SWTWA4THOWQD5yAjSNRNmsXEC6aFNfpQ6HfKREZk+Fb9KKterOzYThmKj3lcN+yEkCgczZSA2ob5YVDhVPNQDjLUPul/MB/SfTvrePbKTUPCOm8GYPaBTRug1142ENisnDvEZ5Z/gc98padY3/Copd5YL2AQGYaON1GI/hEThYKYNwCbUF4ufGj3rPg/ivB9WPagiqtPRri173MyxvaTpbFivoXICRbbl49bgDYxonz+ixUXv6+Jc//ipeXPwq7m9Sp7DJjAIG22kFvshJAoH03YVNqG+WCR63w0IhmHjmTQQIot7n1OHfxW9uzaElRk77HDTF0OCwNDw5PWsMHegZm4rWrwOwer1kx2o70/2Ouz1UpOOnwUFYqON1GI/hEThYGocxCbUF4tE77sZT+Sn1PlSYUDHZUFDYFOzLw5BWBnddHT6Va2BMmGHq4Iscr39ElWL1yFYRNWPMAJ5xvoM2+9Zr1XlOxN03rCoKzbaSC32Q0gUDia4HzbrWmBhrHRKdc2HUufLnQKqRdxyhrP1WsyAsDK66fxYb/xQoPbew1WBKQPFmdIDD59UY1be8L1L0OFBE8fqFyT0eOOy9/B3A6bAjABs3E8XwX4IicLB6HXY+K/B6vvv6LCUCqfKnQJqX4lxAirej1YTVkY3XbbcUOEEML/H+uaYdVz23bBLZcK9gcflTNdT9d10JXXpG2fz5npOuY69+k+FGB8DNsEB2A8hUTgYvQ6bXrOxGuq288ajMwGVfzoPDF5+xwko9SJKzfWixfXHhmfZWgGY32N9c8zGjqBNQPkb3kCH5WF5ajw84r256eRvo5o3W3FDlJxWFWJ8DNgs6Yj9EBKFg9HrsBk+Bquh6ddHPAzXjfvuIFD7SowTMGDdbTW3yrwQwjR6JGbze6xvjkX3BbUWVQ4pBCz9+tYPY0Z8T9tVizud3jXqerdUS7MAMT4GbDY3xn4IicLB6HXY+K/BanCB7bsOLxns3OEIUPdijBMwYN1tNedLNXRdV3tVBszm91jfHIu4cjcLXr/qDQQGefNDSXdOLh+S82yPE068E+NjwCY4APshJAoHo9dh478Gq8G5WpV6nDD686EngSanYpyAMk+j1dwr1D0gZ5bz2TCb32N9c6yiKj1WXy8A7KlTdpMXVgl1p5TmZzE+BmyCA7AfQqJwMHodNv5rsBqcq1fBcLezotsxoOj1nX6A74NoNWFlBg7K93pIEGbze6xvjpWhzGX19QLA7rqeZ7Jh8Wz15Ktp+FmMjwGb4ADsh5AoHIxeh43/GqwCz4UUDK9+ILLLEWDY+Io/QVijfIchrIxuep9ZqoWdgPk91jfnnVGj1dcLAK3XUHl7eszq7t5Ti1/M7Mt7ggOwH0KicDB6HTb+a7Dq5zSpYHjdnRWSj7uqeNrv5nENY0ZO7Q8XP9NNj+rwU/mTwPwe65sDcU4ubGihulEAeDx0qcxeM9hJDJyb5ow3v1jYjffM7oX9EBKFg9HrsOk1G4s6B5z7nz90yrnSs6y7SkK0d6vRk+aXWVSCZy/rl5qRYZ1/ie3Z5dMfRug7pjHOmlx5qSt6XUQBzOS2ZkaRQSWfVtyeTs0vggKxSXcjC/ZDSBQORq/DZo0/ZtfLxVE0iYguS0xM18Gjr87hXnxsDVjQXUjn0FKlLrD0TR/gy727voItjThTLtwbC+OARW+Byot8sAkM4j1bG2I/hEThYPQ6bALHYfbyqsZULO5hSdPFJFVxVyBx5bNGBTEznJckF85w747Jy/hAI0yUuf1EbfLR8vZKCVfeuRGrQlXchfec9jVhExyA/RAShYPR67DpPo//hRgfAzbBAdgPIVE4GL0Om29m8bObb2Sa/Fi8iRSpCiRfN0nXQi8e5AnP4nnTKVfc0zzPtCosnmYCHjhnhDdqd96RzzLxvhgfAzbBAdgPIVE4GL0Om1Bf3rnU6hqpt9QAbgzcScWflnQC1fGY1qXD+k0rfbvs3YIbmzkvcmfB0gq7d+Q/82xBlqYVUs+L/SyxUkbV41NfXRgyL19oIZeJfl6eWMT4GLAJDsB+CInCweh12PSajVVSldNp1Ilu3/VWvSz2KHV8meOTh7m9ZsLl1VKUm10rIUHk31D/btEj2qpHhcvKpo23pk5JmPxts60mp4Ier14+WHdhQvqstytM+jy54BkXzGJ8DNgEB2A/hEThYPQ6bOrtwGp7o0prtHsbN1/PU68lTcOGHk4wLuu998v4/Q39NjgnHanXf5Rrcr1DO+qlDL65MvX2Tl+sO1r9QPX46HKBugelPHaWSIprctJvfaqd9bvNxyLGx4BNcAD2Q0gUDmbQZGycw3Nj4b/uQHUu1m4+k2kDfqx7s+zwAdTat7kx50s12AYr203tD34hAcF8t+EaE4esb76t0bR+LOnUcm2nVUcqAPfylD2mXrh/HVYxPgZsggOwH0KicDBDJ2DTcw4WIY2/HekEi7vs8itwc0ujmPzN1uIXElaKc6UbbIPT5SucAL8Qdvl9t+USE4aeLB/1orgLi7usbZYr03nMFnUlqFPV5WWxivExYBMcgP0QEoWD0euwmfUNFivaL+kITO+/ss2kwWlmtbvnrmX+t8dLcM+rwTbY/+WEweAXQu2QEZe2MWx8Jn1zDbC4y4oNx0/lxyyq+p0BvToc450YHwM2wQHYDyFROBi9Dpv2y7BY0b7fNKDBjt11ntc9XSgkJ1A7eqVG9fCrBttgS5Pm68Hvxt00R7cui+RNt82GVa2Bhd1mjC6+0x2LUxWaVP/2UgGsYnwM2AQHYD+EROFg9Dpsyh9xwWxF+0WdgRFjh/fTXi1K6+BM8O1ULBptgR/r1d8OdYcNOd41d9x4oExY5W1a+LHTnJHTa2F1oWRD4/NQ3onxMWATHID9EBKFg9HrsKl42AmzFe2XdAQmD6q6NPezKtf5cocLTbbUKsnpQ0PHw+P8/guhzkRN0fJpik4Des8m15FcxHk/JO/Z9FjI/sEMCeKdGB8DNsEB2A8hUTgYvQ6bxpuxWNF+SUfgh84r28ChprF0WUivxbeyczt3y7Vw/PNhY6HOuM/qhTDrGyClx2JOlSPO+yFMGYBVik9KhAvvxPgYsAkOwH4IicLB6HXY1NgnMBs3fElHYPSolW2OqyreKPem1Wqqn7ibkTPlus+DxV16z4Q6Y8qubkOjLZjJ2vv6TyUuV+f954tdwupx0TQRat6J8TFgExyA/RAShYPR67BZ/LXALLhf/6lAqfOrW+V0C6fbwk1NqH7ibkZO+s7uBYu7DJoIdcaUvTdg/dhhhD5sSofl/aYR57koqV3WY/mxOFM+3w0178T4GLAJDsB+CInCweh12LRZicXLwg9/qsitUi4HiuQS19yHTOw2n6a77mZkUde5PWBxl1Wtoc6YsmxrtLAL/YKPVe6wvN804jzntKp4Kv0JH8z21va+puadGB8DNsEB2A8hUTgYvQ6bHOcyYZbofbdrT2Yv7j6PCpfOu4xY2Wo1c/rfy8jp8os7wfhhU/tDnTFloVXcDnbW99uwsN+EwY89cgwb+LjAm8tFMbtfPH24mndifAzYBAdgP4RE4WD0Omyync+CmaH/jQNAnq+mOV0tn+Xx2wwh0cERr0sXLBp8L3WZwd+fS9RsLDlqba61JRg9/Xq2bY3ImfgsMlvNhMtOxQyXjUWyL/Yy9jx/1VS45WCsYnwM2AQHYD+EROFg9DpsUl/1wso4Y2F177Za4NK4Q916ej577B6hTaU6f9ZYpOmK206GLod6l/Dr5cXk8acLxH6lvpbS/zvabPaoEeF0S52c5biW8UHN9nhvzIhVjI8Bm+AA7IeQKByMXodN9f2Cn8W7CaxSElIJfseQ6OQGPH9cGBJEMu5qElKke7JIVt3MlQ6M8R5GoeGdGB8DNsEB2A8hUTgYvQ6bXGEZ+KdO17+UpffjFa7bJ+Oi+0pgdqyqxCY4APshJAoHo9dh02QT/9iPTe5lKhNz22PaPL8LJ0+XwCysvBGb4ADsh5AoHIxeh03lQxr+qR+b3MtUJua2x9S5J1f2O1saswtlU7AJDsB+CInCweh12NTcxz/2Y5N7meqlWsvMgOIXB0/A4nB1iU1wAPZDSBQORq/DJs9ZLf/Urnqzs4Q87JhyY/PBqM+csYjxMWATHID9EBKFg9HrsPFfwz92s9o9rEqGCd7ZU4f3BAdgP4RE4WD0Omz81/DPRfyEs1QlpZQrwc+ul0jGJjgA+yEkCgej12HTcu25bNlMqMKvq7GReWMkIPPeLFjQxG+pTjxRYWXKkvxCnTtaSI98XlfUcRWIO5CzpAkz1a2CBmyCA7AfQqJwMHodNmm87qVKI1E9ecb70r+UmKWPzZjZxG+JO2/5mYcpQaSLBXV67QNVYl6RFJ3W04SZMERLbIIDsB9ConAweh0fWHAA9kNIFA5m4BQ+sOAA7IeQKBzM0Al8YMEB2A8hUTgYvY4PLDgA+yEkCgej1/GBDQnCfgiJwsHodXxgAydhP4RE4WD0Oj6w4ADsh5AoHIxexwcWHID9EBKFg9Hr+MCCA7AfQqJwMHodH1hwAPZDSBQORq/jAxs9EvshJAoHo9fxgTXdiP0QEoWDmdXHGZMqWaUGUkwqExbCid8xokYaMYHGpDYZ+ZlGxftMQoBMRjgZTWqTRGWS/MIZC0PDrdgPIVE4mNdPVeqr+XZm/iIZTcht7ytqwJS6pZPktzRnTeWNL4/Ju2rqXSgZfUVgZWyQ04iN+noOD6m+v1Vm9g+7VvHGc2efay9UWEkXfzcJmDKlwX4IiULhSIREoXAkQqJQOBIh+Xi9+F6lSTJq6FQci0XX+nnxpzza71E5ExxIm3FdpmZpeOfocg++qgXJMaseNqylMdxZ+bBxTQ3c23W6XDcUnwoh+XglddmQ1Dnh8IP1zbHovuD7EfwJyVu6vSLnqaw02gYep4rwTuTO+eEjR0Pg7EJxV7vNv1bCW3Wl1yxxuqM24f4ZLxSfCCH5EK6e0WDKXAfkjpeiTqZnP6qRLr7Xs78tnaKKvViLv2tm33ndH9cf0BKLtz4dx/In3PTO88XxiHGB1LlTNrFyH351tOrI0bzI4XsAv5CIiYsvF+0za0bPyulCXhSvPxfFJ0JIPoSJQwCn3t+nMhW5QZ8Z50sBqlTZM4WlTVHH+e7l79rQYl73pHkd0hmfyMwaSg+v8yKLBlOi+/K6GTEmJpky8jzRKTOm45/fXZPo0it6S+o+Ljzd6J/+aNW++qTai/LzvnuF+o7jheeiNrRec6Le80vFQiuNGFzw3t5UFQufdUPxaRCSD2F7Q+80RL45U8pU5AYdl6BfZLqWIWuVz1t3e3vdOL3ctdQF+VvWtrpUbOn4a4b5w1IC+zt9PmjEzU3VXu7e2rXPAaNzxtMzKw890PZR+jW1p06osesNXnvqRXtfcMPiXOm++j1TgxNkNk9+lVC057eEVpraOmvrNSfqPT9QPbRS4LgfAtPoxpz1RPGJEJIPYcrAzotY03r4mNBKxR87X0wP14p0Wcg6/371442V9rQpFcbfsr5lzZTjuc6OmVY7MnpO2bIFitw7uyiVfwFv15HlO8yLyj/mG88S2l3VDvpe+NzZeV+LxWOnHyqO1bBpc74+VB2ovyArv7hSYYMfT31i0wUcO3hr6FrPqTFD5nd71W8JX+4RKD4RQvIhTBzSeybHqhSIGD3+/vTxe2rB1aJTBrDOH7NxDfTeA/lb1nY68mzttQk1pzZb+3DE5S9u+LzK+13fHF2/43m+1XXvFNxd9U5GUbZ/pyUzz0H/h2uKNxuJ1enBLXtw44jfvTEhUwbwqyo/5Cd+7Jt06b71Pnd/dnLRKQ+j0vRL7j59Q+dFKD4RQvIhTBwyZjjHqnQeW+aBfuVpv11wtWi/aczq07KqIaVhfv6utR0jvRL3pPsiaAhwqPr65kavQbr8bUcRX3JqvefFdX237vPUt5s5fs1lCGmx4LsjWbG40LfqmK2epW+nzripWY39/Kp0v7aYPZyyIqgzcObzCboLJU+Ve9L68i13FJ8GIfkQJg4ZOZpVbe9f8tMUuWzKcC4n14p0WUjbVQu6Yhb9tDx/y9q21wvA1aIdlxCaL7zqkSpGr0G6/G1H8dhrm19U/u2VMg8OzDRyyM1OR+FZ6Tu+oVi8bfBo4ZVR18ZOXdphY/P1zU9mzY3VtSLDxwCvSkWH1AYOf1VuR6oLJRd0pUxymAbFp0FIPoSJQ4oHHliVtH3Gngmdh+54PHQ8G1p0XcD333WolWTMlbdqhov8DW/WHVs/3qNpBr5e+o3HpLnqbp2qX5iysECTSk3qS6+uZe8OG9O6SP7Og0t12bth6NBU+K/rNh9I2T53P1D2dKNtUzIf3XLvWtkMXQamh0uhGw/kHFA/x9r5P32jV/Ni1dgsy0ryoFS+jnJ0UHsUnwgh+RAmDgEKjq+Qjyt5WdKp7GkGTOu6gIonMKvds1GpMP6G2Cm4R4ftz8iVdUZTul67xz1IyTOq4fhg9duDZRocF2oXVciuVwaP5CSNs6FfRuYOu5UWs7770tz1pH+ra6tWxhYYUzdlwKL4UF84+02eEsbNXXv6Z/dtDjyelqZbJuDCxicnWn+TBsUnQkg+hKtnNBg/z5uwOWsNMGxNVZfnOwpWYM+j/2MPLuCqSBf/AX/fmTmHQyshSigqIIKKAmKjIojd3aK72Gsrdit269qF3V3YYCAIGAiCoCghICB5Yub9H4y9uot7797P/fFXzjwPC/DmHsd12uK/JKik+EIhgJVAUABSRslDTYvgi/zYfYVrUURJITCQEEBOWQmQNSQhsAwAJcNCyTI8i/+JN8PajIDoh0MoNMShXg739VCc3xcfdoPAJ1YBcjOtcjKs4x9wAG/udrmQoAihAISqr7ly7GuBb5r/gMP3CMZsZisZirwe3OE3iH44hOInFb+foFi0g4nARlvdrmMqcGEhHD4hRsN6eaQyANX2uFL1cQsd1ePW8cZJtgyY96yxQnvGh/x6PJO5s/vtuD3rbkJN2ySJx1f08hgZyaMwU2Xg+7RI4ZZfIPpxEYqf1HlfhqBY5aSU5MkyDaSUfMgm+IQagPvAQ40xTtfJMWForkmBRK5DAIbwIDk5rBIgMjnH6BdSqFGVBF8TGAhgABVh8R2qWmWvSwpmD4Tox0UoSh2BAoQylAKEwReUUIKPBIYSASACoYTiM4bgC4EQiEotQiESaRJCIRJpEkIhEmkSQiESaRJCIRJpEkIhEmkSQiESaRJCIRJpEkIhEmkSQiESaRJCIRJpEkLx81Il6RkpcozxDbrT2wKAsCNpvB5ysvVzJGYoQjfrDoBa+N6W3gCUdxzMINJAhOLnleYkaZUYEWIOxM2rzdz61RvbLsqyzj2qfeIwk3XeI/DkiYiI6nEV75oACJ/xUqfmFHv54m2E+HeV7tpyt3ZHPy2INA6hKBnBKSxlW8oDpV5SIOu6tH4QBaiO622Vkw1/RSZ5xwAQ3I2RdofWs4iJsKqPBwnb3es00cf3xe5aOKp7HX1g3txrlZpphen2zhutlLnpxXSfYsRVtBu1YUo7xZmTd8sDmDvnuKt9hQjBvsLDW02nLOmbM3Pf2hnzIdI4hKJEBPgoAJy1rmESUxYIcWu22lkAUHF/Ezpgd7hrff2LKHKrCXJrx01dvHhauzOD9yu0C9BzP4PvO9Jjsy/UFs5YNXbUhocuvQa2htq19ceh1qvKIrxssKoPAJVd9mPjaq9CCxq3uhBr2ycgWV8v2n7QTog0DqEoCae6yKaUP3jdZlfjYZsAhLj5+Vo3/kVO9b2aPLd5EVF7e4tjumu0fynoaQ7Uelz70aYRK0aaVRnusX++LNIaeOVfdqYMxTjSY7Mv1CIHZtqaNutUrl+GTZOOWlj4e+cm7bWQK+Mw8vFNAiDL3jAaE1ZGBI7vuy/Wtk8AgGj7QTsh0jiEoiTcbbhhBDJu69vW7L8eQIibn691RReeuI/3viydMN+84Qm8q952D4rUeozhMypfyW89fQHQ/Mba0cD9+qaxBijGkR6bfVEkuEvqGH9ZputLwGVtwz4HADebjYbATZ+d7lA73tXhKaYtjrg6IcQ11rZPAIAVk/0nQqRxCEVJSLU61RpqyQ591wMIcfPzta7SSDhb6/daXd6+vdawXASeVx+0E0Vs2708PX3xmi6VDnQDNo4cswYonJu7VBvFCG60cTjUtm6u++x2o/MGq6qnHz4zaGfoZoE5mxNvigz7Vf1Q5GE9uyhMWxxxdcJ9t1jbPgHA3V6/N0+oBpGmIRQlIbXimGVQrlf1c+6yAUCIm5+v9dCtSNNLtG8xqJ9xRp0wnOgyaCeKVB3+Zg2woIvDjsFAx9PzZuL7CmUUxgAAIABJREFUzrfdNAwoCDr+9pRq99CHLofqVolyMHrxvqAmWl451wYB4+9bo4jKRhoDz/CXWybNmR1r2ycA9weu8d6WsAAiTUMoSkKqbc7a0aPXW+9tMmYNgBA3P1/roVsBvKmtfDrmBJxD8ch50E4UqeozoUUw1vevKHlYaduEgtCsjYvJZOMV2ijGkR6bfYFDq/OkD3GvwZPIPr6bn1e3jP0lIM665ZXbjZOcx0wDcGv51IaVFVGcpc2D7UNbn4+13T3goWeLJc/8us+FSNMQipJAlyxjrEOxwqtWeRuer2y80c/X2tvpmlTVeqFu4pOGcA7F0e6Dd0Atqfrk6Ul13o1cYZXmYPw8rU5Yx9OnKzmZxhrgr562TrQqJzBP50jHdym4U/XRjiHSLg+zz9TrF+CgHeOxX9FU6y4LYNb8vf12zJY1OLKrJyauHWh7+MHDNhkAqly0hUjTEIqS8WDHMdOufvFNBR7yTvUnzRnoIpdryfXmT3G4xY3Y3DAI75s02wC15+7Txgpz1nofOhD2/ErFth7t++9f4+nQ7gSLv0pYqa3gAWaiyd4wDr0bZi+VK1QD6iN9V4JQbTQT59/VG2qXTg9xRtb2qHadAH5dlMlwywvndECVDXtApHEIRQmhOYwe+FwAVFvyQSbNzU+2jytjGfm+GehNA2cgj+igSI5UC/QDpwso8zg9IF+hzYbW1oJI9L9AKDTKW7OMtBpAwWO3V09ZfIU78hId7VX4hD5yEUAogRovcEQAQAglEABS+HuOrn0UVUDNXGbMSOzfOAocBwoCiq+xr3czUCNadU0P1W1zyM1KIUOxCL81XVvuoMiplp+uXa52dGKCdWcFq+LwV+y7bQInUFbR631IhZqFNXnJmwI7FYojCTtWhWRZPUHzhk+NuP092Vw7FYrFZG9REIB3fmbdLMlBJSUoDqEApFF72r51pK+qVOMBBgIYCACDIpRQis8IoSTz95orJPixEIqf1PvtT2sLKMIJkKB4VAGQ8FoEEgoVAwl72vIJHSKXBt6af/Eo/gYjsFRgBKgZlH9BOQLwAiMQDqDSdtpsRGglDx5sjKWMAsyLShnxMSwDFWHxNaGctwCASZZ8KK9NMhS5+ZXOEhSLtCt7paYpVd6WaMUYdogpkD8rY5pg95zBXwhl2rIxljqx5XUoezOpYpZWYvVXShRLZdtYBYAUJNnyXHB0l9hIDsWjOu05CrAxljLyQktyL4+gGAIhoCorTx43tF5Wf04AJTiiBEegogAIq2IZfCYIDBFsuSBD/FgIxU8qbT0RUERyvQJ7jkNxBL3eEgpGAHPOmHGNl56tVuGajBQScNI8qYziK3z7SjzAPNNJctItPN++ZkTzxOTKgRK9ZOUMi5iR6y15reO7xk/qOkUBEBMGBXedjAEUaDFQK5ApBX8vO24rN1iOr1CpEYooCC9loBJ4XpaB7zBhs3QloFkMyedMCniax0kKdfLxV1RijAItpkCLAbIUMiUj1ymkKBbVMUARQa4NfMg3Lcgl+A7GhECtQItBAUM+8CgG+8LUgHy4ad8QyCKFOvkgqu3ndpRZF7zdkAx1UIQ1DfVZPctJhY+40FjHikm1eQP8YAjFT48n4FE8wuETFQErEBVDeHwHR6AmEIEFVBw+ogAFA6hYAlCeU7IMvkdgAAoCzUJ5DpTnABULgVUxlMWPjlCIRJqEUIhEmoRQiESahFCIRJqEUIhEmoRQiESahFCIRJqEUIhEmoRQiESahFCIRJqEUIhEmoRQiESahFCIRJqEUGiu+AIHiDQNodBclzN7QgSMrj4CmoNQiDTd8npNoDkIhUikSQiFSKRJCEXpl2nA4t/L0NaBqPQjFD+x/PhysgxrfIfgX2Y41IIGX7NEkUIlk2PKonhPGs7/DX+SB12IShlC8RPzW2JrEF+rwzgUK85mwnIAybWz4yygtnWrUql1zRCfHF3Lth8PYMMxah4wLG7PrG3LJ+Ab+UPDOvpDVMoQipIQfofT6pselq3VLaBaqpbOq54kl4LqSMDnAawugMLbVaoCKLydIyR7Vs+44XU+kzCdyiEioiMBqERHlQ8q1cY3kvdNntWk64dlE1GcOJupiwEI20YmWAAIanWSzo2J1ccnIYtODt4BYORG6/n9ZhuO8Ft9vDOK8JTDR3zUsRaNISplCEVJ8J8Kw9dPGlPnUPtYQojiYV7XAoYOWnd7+xkFZ360Op62jz/ZEYjskKIkfKM7uwYb5AogVz3Q9biejMjlK6ptucgoax43xzeO9Njsu25M49soToHb1L5QC/R+ZQHgUpuYqoVzJxnhs00juh8GFM3u/vo7BLn2Y+e1w3HKrQK2VmgH0ERihSLyTLOEcroQlRqEoiT4T4Xh66cN4RxqozdLoLTdhsW7wje8W6Qztl7HVWlVQ8r6boHvZmDIjqGdQzekhkf3nFZPSTlvbeFcPiYVeL7a1je8pi7CXIMeTe8yFH840mPLkFZXFk6DfHIcQ2YlbNNXqVj9tWUercxl1hg4LhyQMI6yKWGxFgDe1TZoNcoGf5gWdXJfX6xdlPrLluXnnFZfably7HA+uVHmoXKW5l3XXSUjB88qXPB7RLzTZSef4RCVFoSiJPhPhWHiscFwDq3UZhPUlk0euCk9vXzApDJnKqXSmrJmN4luiD1cKu3WR/zLRlHOl1rii5rpCVop1rXusli2IP1qG9soFl8c6VEVSccaGaS1erMjckHXtWN3H3i5TJ60bFG9siHPcyvvHDTeuBnu+cVbQG3fYFXZk+74YmPnJjqRgV0f9HXcda2d/tvLbeOWb3q39e4Uj5keev4HOBVz7fLqsPd9zYb4xw7YDVFpQShKwhK/vpcPr4lJrPqo+nMThne9uG18jlHFHv3YZvESo/bTLR/UG96i2+i1EbUnLL/eSV/rws1fjRkqmN00BXCnScUYrY0jvS8C+/seK9OiwR0GXxzpMeHao+EbsWbs8c5YOPPmtTkxtm0up162btA3KCqlyp5OlkdaItD7lQWQcr33mVnhRhfr4pNXg6+tG3PkQdrOZhX3wC029Y7H1grD7dw9nMrt71zg1tlnt3xijn1wnbplroS59NsLUWlBKErCormLJjrEnR1qGGEjnRR58le/tznzQl+qBq7Nfzr/TdzgHb9u9fHw7br7Qb2Jy+JXZe+JvDKh5lghzn4g1ELcrF5oLZvsfRHY3/e4+5V2evjDkR5bO7tHB7stnHG1BdLsx3WsFWPrs+dN+bjVh99Fa1e85WB2wQuB3q8sgDC/S0ibvvX3X/HJnnmx0Z4FdRe4eCWE67rFJsrqrKudunif7UmXPZ1fW5/sACCm4z25ecvzcpcaByEqLQhFSfCfGjAvGjf7l4mo1GEd1PpEb699qNeCay82tou17bPdIR5A2U09HFP2tsX60eGBE7YNwWcRLuYxsoi6uo+sc9pHvn3y1KMi/nC456Zhvw+z2x48ZcsveFJzUe020XbDt6ZtnDUtffOz8tVPV6lod9byaqsESyCxxUZPHOx9tu1y+XSopXS5IZ01v+tReOAa3GJf6TU+O7TBxMG7glu330s9H+7oOmWgtNvdDxYtz/P1qh6CqLQgFCUhuvr50Bm4OSQ22PeJPVDY23yUbmXh2UCbmXqVCuPctzjn1+ucstoxct9A03JIyZg80q68LkX+xFEA8uq8ON2+0OtOFe28BJ0QSc2aDwg+y2gZZmq259msNxUMnvpN7Hhr/ZPNhhsOnTGv+KAmG1Zeli6tOnGgoSw/zaT+GeBgPwt8MH6SVUP/BQcsXpGr96uP7eKmY7ISW7xI4M2drphm5luk21ztFlyhysqeCeaFLYLemnFvZWaKZK3aN2QQlQ6EoiSkWrXGadwc+uLKxAio9Zo/8jLA7OjT5SzAHomf0Ooc89bz+cGe61fGA7XOaVXJhVqPQ1BzfhTQB6kztwLMwqlRdVV36+CzLb/NvnVh3aiXh8v0PTsrzumErnfTCnVf5BZ0fBrHSZSUU+n9+uwcy3AFlgOA1wdAJT2sCvZwgxkg4JUs37XZ5j6vzusSOSMlCl6m5BgFutjeuEfL/Jp7OLVDpd0qFZUKKiJR6f7KQVQ6EIqSIL9oZhbKuj/Kdn+SyQC8lVv2dQjGTZF1nQimTaIiresBCfcbVETWDfD1LAuvKgnA29aC2vX0BpbAu9ssZT11kq6eXm6Nz5IT3T5creSCIrEhTc1zQptBJPpbhOJnpeDBsgpGS6WEGsOxglzC8UopZfEHWohPOBVApHIQKQ8JeJ7hAAEM/oVX4CNOBXA8hRqRyamM56X4E6UKXzAQwBCGEAbFEeT4AwdBiwfPCJDiM4VKIsFnKiX+Q+w1WSP6Wq+sADUmpjKLv2IFCoBhYiq+0y0r4DOG8AA4FT6RsnLCExk+UvD4FsMJEsipDEqGxTcKKT5jBQo1wvCQUTnRIviWUgUZwY+FUPyk8rwjJPgDX4llpa8ssp1ueQqVeHzG5B5WEqgRx8eEyrzPKwyavyBN6asoy5oq9rWkAo/PCPfyPAs1ic1ThndMKCCAYNjz1Id+CW88lPiEEVBEEhQqwSe8OZsIK7acsdSCx78wAgCGEpJ6nMFnKlc+pftTSYLJO8Gbx0fcxejGrkoAhKFaD29J8PcIBRgBYD9ADwqGxUdyKcFf8DaZ7xlQK2WCTMWw+Eww0X/JQmLzlEERvm35y1ycQQ8pBSNIrj3l8DWhfM03Hqrjeb0RZmzL4xOG8AyhRzIYfMTbpmcxANW1iNLqVXhEu4eMAgQUICAMeEnwA+mRFvixEIqfFD2fxOJfBFAwAuE5JQT8gWjhE54FqFIKqmShBMPxPMBAwGdMZmoNBh/xLMAzBGpULiVyllHiE9Wz2gKKcBy+EMBAgCBAwL/wT+oIkFw0pzXDXRh8oQKjYMEIDJT4TOfptQFSCi42ShZR30uJv8U9sTDMe1mLl1y0rq4AAcVHjIBi8AwheaFWVSAQUHxBKQOAZ/GJQpCCoXKAhNfOzKqhwjcEnlFCC3JwlMcnksC3g2990K1VjscnPEOgRgUWcmhRBQXYWP1yAvtENz6C7/WOb6pqb4IfC6EQiTQJoRCJNAmhEIk0CaEQiTQJoRCJNAmhEIk0CaEQiTQJoRCJNAmhEIk0CaEQiTQJoRCJNAmhKI1ovg5RsgyKQ1USiDQXofiJZRsQZBvirwq7BJTdUr8WvhVg5gkg9spwFEnKro5PYi+PwH9Aefb+YGstiH5uhOLnle5trqV6Nn4YvhE5cXiH4Zejlq657IpvXGjTIBjAphHtGY6qhPRp7fHR9f4W9/HvLTn42uJJ/dF9IPqpEYqSoSo8b9AKAC+8TWwC8CqwnKAEwyoBsBwAJS9hUXCrqRZBbnJVJaQECqqFv1EYGTrCo3NLO3zjqtfiqfbvUsev39cX34h3cA4CsHbVgrwR2puCj2/sgo+2+DYMwr+TMDDUZ5LVrsGTlkL0UyMUJaJg4NUsrO5fNnvyCUVO31XGW6cTn8Vh7VFnYm9GQb23aQP9Ty8YjXeO0tMu8Gqi2GB1w+hOX9dj+FsXW28ahj9RZuprt7qXnOxxrQr4TBOoqbJMAOUr51kTAazgJxdal4vE7Tt+UOQaASm2DS/ho3cyAwBpckN98EmMbhkgiSuHj7yCQqsDWPpmLfBeaQbQAmm2MdILy3MokAppZiyA97paUHuvJ83M58qkw1APoh8NoSgJ+c0fOP528nzli61fmvo+uGIWdngsnB4tmoFpHp6OvYIvDNyFLb7wuow022zXmzq12vTpEnferGXGMYd5VeYTfNeRHpt9UWRlZNNzfVpOz4bA8mzPVv3PpLysu7tb3qYlnZaG75Cl3/drvqZgPxrfBhBrXLbQulwkMt6b7zn0srnpHGLVzC5RVrtn5pKTltvqnftwd12LqwuNTlypdfvetod5XlNqAgivYxRbFsCLjPonD2XH15+pNeFtmbDWfEpIwynlfcrlXG3t03lW3B2XgIBrMtWNBuu73q58snVSv70Q/WgIRUl4WNc1WJJ135Cr22Gbab7d24d3R8MgakAgevp4L5/wqkbVcIxZB1z2SrPNxu4Bjq1WPGqnnZcyf0afA/ZPGXzXraYbh0Ntx5DuS/03z5bMqFj3bPXwhdPqR7/Nr7HSxatw+vioqo3v9X3Ra9GaOi96zpuEjwqty0UC6HBmqeuk0Aue5oWNY+K0Z6+Qrx2zyqdB/UVXLmyo22T11kDHWUs6ZZx4dg5AqGvtuzIUeVxr0MLsdjlbtz5dlza0y85do39vat/XR5hIN7XecmFv8sGpBfNi9+y0a9b50Oa7C6wg+tEQipLgP9VvEdQeOY9ZA7S69JvdSB3JqTb5qDe7TbVOp57XCQtp0bjluG1DXjvmspU29Rnij6VTYBBlPn6V/VMG33XZe9MwAPl12DBZTDWfZcZdNj2Fx8Jp9aNf6zc6fShucqbXRcdp/i9fJYx4UybHauwcfFRoXS4SEGrkxWjF2nffYlH9fkG/4+doPWq3ukWTa5WBvUOC6gJ3mgQ3wOkeb0yAUNfRa6FGyeSdT8wwdPu+hFuXwlxmzT3RZf1I275zsGDmuhQ/pcdhm4YVD8Y5TJ3bMClmyKh6EP1wCEVJ8J96qSWQaPXIecwaYOKKAc4blnR1fSzHhNaeErZQ3+vYvNkbK7VtfHtff+eBvxl88FuE925xvpsh3yMZSPBdR3ps9gVwtPumYcir3XCVcceTuOq1cFr96KR093MOfNSg0Cj7XjH3pN0uJZbJsVwyHB8VWpeLBO40mTkPQhP9MW0bBOOXbU8slx+JPlCmQ5wV0OdAbFVg1vy79XGmw5l2QKir+TNDAI/vP1nzuAZaX7yzoOz+m83mzD7RZf1I275zaKOnkdqz9pEnlerX2gL7rgvb3zzeIbg2/hcUwc0g+p8hFCUhxK3XXi6q7ow2TrXuaedXezPAZdGJdu8B7KnY7LdBMTUcBMfnIFQvIte5XKDXW/gtQmGD8Ptu+DeO9NjsC8R0j5w/A/Aue9C9zzBc9Vo4rX50oo7L725jL57yPlvjXMB+HOr7zC7HckM/fFRoXS4SuO4xYgNoc+Zcefv7WDcmqGvZmw4razhP9gf67p85T3j/qGVwA5zp8KAukOf2bN0oAGcfZa18XAM9zsRN1N2aVe2XBSe6rB9p23cOfklY7jzYcVJcpfq1tsC+68JEF67CHW38L6he2kH0P0MoSkJ+kzAHvezoygHN+BoSPlL35q3fJqzmpd0D2o1q1fg2gJvN4Fk5NOy31q3wfPNq+C0C+hwIccUvdxyPEHzPY893Zgb2qfEu7PluzVfH+zqNdPPt2fJG5+7TU1YmLRqeFeCoel5ZlvO+3rUzHcoZq+JMBi+B2s4Xmw16N2x/swUzsu6t3W3mu1SYye6Kv+j+YeJGemFUqKNKq8e213Yq/UmDy49RruWfGAO40Du3dU1T+bJxBYu6GQS9GmW4JnvfoyX6Jx5ONTk1NmpU6JV9Vk375p0cVGta2TmXTlRa1dExavcAiH48hKJEvO7xgMJtgdehwQUA2p5dMfHEvEeNR/SpN7uNTRQHOnpDr31srDNZNkr5uEb7s36LkFPjdYgr2p63f8rgexI3a6l4Cgy2Pnys56zfBo49IZ84xf0tr9Ah+UQ7d9yTuBb6cspAf4JicwZlCnd03QK1FXPK0PfjFsqzQmc9c5njajhrPSlY/CuzPthGR/6LVsDBmh3b5mwKtJ5YPfJEcPTMTsYM1NLS+8eyqhrHDZ7NlHfrYHzxdtyMhIf7VhespQtnvrJ0mmJNmhvUPxMPHaGQ1SqoffXMvFvaEP14CEXJkF/Mgnd54Omlx6puXjr75gYE/e7RfXiDX4baH2GR0zdmTi/gxrlua6tO0r97qPJvyOmUfsABL/t7zcF/QsUqtKBUgZMoeHwmpbyU4F9oISuFmiAHwEkAKFQSCaBUARIOUHEoouAYgKpYBoCSl+ELBQ+wUkBFJVBTcUChhJUTiV2v+QIDFHKcXMAnjNYGfgxEPyBCUapRgv97Nn3n4k8+DLl21w7/CSowIAIhlIAHSwVGIBTfQRgq4CMaX5XiHyIUX2MFQimhYAGBAXgGAiswAAQwKMUIxU8qYxvF96ma2L4wC6n+4WhlHsUQzLjXxp2UVz2lJKoqBzX29WUWxeCrmt+CXTPlcweKz7gH4Rz+hTtzW8+hiwDSQqGKTmNIh7JUccuw46wxcrAp5xgUh7eye2sm2FFFYOVr+8bmj5lfsc8sA4MDioHRQa3O2T1mUCzeqseduxJ8lKOPf6rmY/wLZfs9tAxTGsXoje6+7/wUx72buryL6Hvaw1CQXM7uyuMz3j7BLLtanbgXBbRc45fXu2lTAKcyGfwVXxE1rgiCia09BUDkCdV57n6oQw/8YAjFTyrWUyD4Lmqkm6eVpce8V6E4VIsUSsoL6aaE5OgSqJGCNIJiUB3Ze+ga01w9fEGyPhB8RaIlKJUATASaJycoL6FCRpl8Y56CyFMJikO1dQu1qB6l6TKFSiYY5XCydwpIoWA4lYRn8R2CguPwCSPgn+JZfE3BChwoQ1EuldPSTWVUhFVIVBTgiBJfUL18LZWuYX4eD6lRfkYFBmopSoK/otrQT6dUqquHIkKBHiVZmSZXyuHHQih+VhR/R6CEMhQMikdBwIMRAELxEWFQLEoZUAGE4g8MQXEEgBCAB8BQhocaYVA8SgkFBRhKCIXAUMri/xMqsBAoi+JRQolACQEgEIZHERbFoqAMQCnFR4QCDKGE4MdCKEQiTUIoRCJNQihEIk1CKEQiTUIoRCJNQihEIk1CKEQiTUIoRCJNQihEIk1CKEQiTUIoRCJNQig0y9ubfSDSZITiZ5b1ItTR0IHLPGJTppwlgFeppLIJPuEfW5oon/ISBw6KZwLVqY6kJC5/seoCimTHMgBUdsn5BBCMKie+i6hYuSpepTECz1awgKi0IhQlQkARBhDAADwhBJQSAlAQgFKGUkJAKUMpCIEAhlIAhAAC1AihFCAE38ifccQ5OWRP/7dj026OXgs8asUXGh+ti48eNzlXtd81igXT4bcEcHiKaYsBjFqHIqvHQc3wsM9bqPU64HO4Raju4+hWSTBwuDfXtjdEpRShKAkZ3tkCBO2r5vJ26UerYtaWUTPgt3NLB+Dqxm1GWHPxwu+z93vk946+s2ULnfFLuM/7Ey8nSARVq2mVXraTAwXDJ3Z4ySjsZjfG1657TPbPq9bwEMGegWvGAN2OXcrtOnMeisR4Ox/zur3PrbFt4Onee+svuPgSG/N75ysr6aKI+4cWtVTDtmRMamVb71bwnactdvSesPLZ4bBV8rL3D2wIbQlRKUUoSkKqjdKSCrJA84utMW4lbjbTDkRD/buOwPm2zg/YEdejmt081SHZITtp8VosmdL8BoKihprpK17XuJtcrYI2VdkubyCR6eYUHmyHr0xY6T8ZTe4c64Jlk/0nI7VarVvUK/CJI9Ta3X1m1ntazaDuDY9mxbjxtcsFYqZef+2y+ORYPUucm3XnWao3qxretN/iaZe9Jq5Y04hzQrznriYQlVqEoiSkWnlcBCjB6Y5ofg25myZPrDhmzmwA59tKAro7Kx+vGXuqA7rHhY3agCVT6t9HUNTQY12o95WXgk2oMyAwLX2bmgR61op4kF3bFJ8FN1o/EptGXGuOYb8/q449A3cPwKgN4U4A7rbe1QmQPxyxoD0gv5/nd9UEg3bDaZlrWXz22GWdL9SmXn7ILJ522SvQ0+sygM6Z53UgKrUIRUlItYEdVLvqRLefMS3joSMwYyH6BEBt9Tg0ujPj6PNftp3qkF7N/cSITah/sn4CgqKGVjUisY33plabHpwpHz7ciR2t93iR/2SHqOOd8VlIA4vyTLx+FIchO860w+5Buwdg1IZwJyClztTRDBQt7sgq95iDjSMJ2/Zkng1nf00YuEuphEQCFLTWPQe12+7LJmLW/MtemXVfx1lh8qHwshCVXoSiJKTa5pTNU0xYvnHkg7zmg3cAb6vnXGoJtX0DfXYvu5LwpF/AqQ5oi3MjNsEqsmUIgqKGQm3htOeOAoDpw6ooAXif0N70pr89PlOk0SjGa/p8YPyqB3Wxe9DuARi1IdwJKjfckwKq5W4O9bgXTMqOWmlDL3kGVzZK6SwLnruE8z5CcL/7prZQa1lhB4tBuy97xdoO3IU8u/ETICrFCEVJSLXJvVugcjTvdErHLF7/uXnetnG01wGonelzubmCOofOmXuqQ7ZLQeyUdWapNV4YpAVFDf3NXbr/wPYW1kvtaFSDZl4PqkTQaQvxJ8LwLdt9gHPtbjXBmQ5LJ6H3wXAnnOi2rzc+Emxp7GPUIumWgzY/sSiLofsS95/lCs9rf+jrOhtqK7beNwQWT7vsFdwouAF+H59gCtFPIS3LFv8coSgJqTa5TxyBYHe+pXBNK8bySA9OEGbOA7Bm7M5Ha+Hy0D56+YTrHo1vj9y4fnK+UbctQVFDT7qH7t85eYT1uupKpU1196o7Z6w2u2RzSfBm8BklcdPP+/kB8Nk5cj34RokvTvatGyRBQ7ODWkCET8V9Uns2pvvRIdsO9huywdT9VFiL+hfwkf/hwDIAqFel7QD8p24Y0e1YiGtE167+EP0cUjPt8c8RipKQalPwtBrQ40i7M9jXf0VLd3rnSS+rp/rIcHu5oYdzosvDgXu0LN5n9d8zYtOFwSkVOm0KihpaW/EMmPFmF9TsDrrVvSnZNKL+rdrPLrTCZ2Gt8/VO1gOeT76oLDt3NJZNccuIPdING+Y9qATgbjNqLKm1pmpao5em8k1duQkrzfP1j9VFkateq8ZCbemie/YACkcEGL0ftpr0uxdSFqLSjFCUhPf1ax8GCu0SbzXBg3oONY41PK83c8m+nsh0KYg0jfZ7GV7oG5wr7TjZctjWuzM/uDqNDYrzKVfrcbnJ7QJ280ksX35lrzrQPRgOAAAgAElEQVR7pc/7Ze/3v7/DC5+lBBh0KwsgbF2Vg/KKVxllUq9yc+pg/8BAd6jx+ZPyu7SRAiknFN0sgIxD+c4NZfjoqu/BugCElr2Gogi/OqWbG8Gkll4QlWqEokRkKU0B4bq0CYDbKl3GFcAhZ1tgT9oEIGXpSgDJBrpAZL5Lmg7Vfm+O1+Yc/oKC4N9Rutgch0hUPELxs+LzAaqlpSpAEQJQAASUSd35m7aAjwgF86IwpZ4+pZQRCAFPiIqwKrCUUhQhFJ9dyGQg2EtMFZV5/C0u9DEHoVlOlGW1xIetKvD4Phprea9qas3jlZuoSMEdDwbfRQrPFlRNrWOTHWz5ppEOxd9gryeypAqf1DhbrlOZ4G8Q1dl8AjVqo8xO97LgifJ6MylFMZiMiwRUyyGZq3fLmgSVt8uLb09RvPNZnE1UtYrPiaLZtWaJhXHt8R3Mh1P2XvjBEIqf1c3WWlDVaRx3gcW3BEh4qHGUZwUKhaDSYcBpZ5XNV1IzpbxyQWolkmhgQPGtRDkBLcPIBH2Kv8WkvWdAKyizdMvkplnpUHwf/aD7zqDAKF6/PAWfYk7wffxrlUGBiYEiVTfPjMPfIUl5hOjTvPIKgTXA36KvlQRFDARFoYUuhZBcgUFxSOEbAEzZfKZcsj5SdAxVORXxHYlyxiDLUC+LCBWSKuSpciriO4giuv9G/GAIxc8q5BcpwCtZCf6MEaDGxOuWTzGUgAERqMKr2ZSehef4UellRzxdu47Z2Loij2+xBIAACop/g2EA8IQRKGF4ir/DCKxABI7yAFgef4cDJTwFSwmPv8cSQCCEJ4CAv8fhE4GA8BQAy6N4hIWaQMCzFAwVCOHxHSyBwAiUAXiWZ0B4fA9hGQ4/GEJRasXrmb4rK4FI9DVCIRJpEkIhEmkSQiESaRJCIRJpEkIhEmkSQiESaRJCIRJpEkIhEmkSQiESaRJCIRJpEkIhEmkSQlFaCbHlDfBn9DZpgr94W1Yao2doCLWcl5KKehCVXoTiZxZxzX6Vy5gK12YZSNdbAq+vO4S4uuGTDxZbe71Z+nxke0a4/2Jr807OeO0vzzjpuxlF0kIEgCtT/26mAP0Zi9wcMsyXdABuj2HCuuzXgqjUIhQlgRZQANqMXKHLoIDqQCknIDqg+awMfIFUWsgDIDr4ZzKdjLdNCfSfHLTmYXyUPTB90Y2DJx5UxEd++yJvjTJPerNrYERDba8TlaMwZV1n3mKOPorM2+mu0r7WtH+LutXZsIj7bhHjri+fAHTV2btpxiVXiEotQlES0hqngwiLho09Glwx3lv/LhlykqMG43+718XiaKX7Hgt+afqaQlXhtgn+kVXjnzrI7ZxPAD47o+wR2kISdb3H+BUocrLzyY5ePYe+dZo78v7bFnpVpTEY6TYQnz2YdUoLt4YfHu2wjihaFQYD59ptGoaC+tzFNOcgF4hKLUJRElKtG2inxJR/NjjlKqJcjN5s8XXscf/V0/MWrso+AbfdF3SvZlqJCvoBabPHeOI/1/vgfTfY58dJMPhQjCV2D5q2MNMlPrImgKT21QKIQqrwi9pfBkDGoDJ7s1ss1+N1a6DIu6fNkeM+ZNRlF2NsHXe8JXCm22szZPS65dz86j47iEotQlESUq1OtUbX4wlD0h5oFdbMfds0ItEQG0b1n1JHqfUwr/6C7tV+Wy2AweJpG4fjPzdrfo8DTLWCOAn6PwqTYveg3QMwakO4EwDPjBAOwoWNb5e7S/H47LZxtdxzbVOAmuEMPlsVsh9qWWObDQJwpvsbEwAe1wePdIGo9CIUJSG1cvWOT8867XLN8YXdMu5h4/zn+ghz6T/eufvNNr80XNC9Wr3O957r3/e+smEE/nNvWibWr7bBIZKFz84oe+wetHsARm0IdwJWTjzaBcjzLXc+etQ6XDyTdNLoYaWlGVzoFZ/tN28JFoNZnOi5egTUpl8MkgE4seCeBDgz2/Fs7n1niEotQlESUm30JO+sjlpY5+nJjVIrX3fzDADiq/SbUOdcwrgp8xd0r9a4c+vgoB1xzyrVwj9QEK3X/sXGXwGfnVH22D1o9wD0Cwh3QnqN/ssA8AlVo91MX3xIspK2CTzbNtFIN7Gy58WJ61x7jwJ6ZV6C2p02wTWg9vv1g8Azp2MdTnbpdhiiUotQlIRUq9Ot7tZj0CI34J2Bq9kD99eP7LFpRP/JNTv/2hpY0L3ab6vxXwn2nDYDwKBjzy1wqdWugemVPI7I0PNSoj6Akeee6HV+lNDlRKDHuxrnjapNWpRq2eLi0zIWAA7+Fl4BQGpv/iaKtAh6Y4J5s681z3f7EFkGotKKUJSEm826H4Za77Bw7VQnrSsjAnu05PZfHmUztu3ZFROxoHs1jwF5VNU2+oVnDfwDUVfO1pvN4fmFA5GT7frB3WjH4uVn2mF/vxXjADysazCDWeY/sM6LObKb0ZGBnn0bps2dshhFEprUOQ2A73/4ajMAoffWP+/jNiiw67DqZO3QKRCVWoSiJKyfW/ZSZSDD/UVU1aDGVi/fTL5VmG3su3DDqDbnXtf8sKB7NcBQlrd/+6ldA/Gfy3A3GegDIDLAgEtWbkDQxWYjnZZWSm7edIUegDedkho7GA6X7X5TCKFNI8XWdzysBktR5MKg440AvGzZbjXU1vqZ9NaRj7A4Hkao7NdyEJVahKIk8DyVMACSY5qCXlS0Y3mafLeVPsk/a9YUt+Ndrc4RvpElL32Z7oZ/QBlVg8FnlDIAlCotRtUIl8qgiJJyDIonqKQoomRYqPE8JAQiDUAoSp0X7kca4wuBEPzfirGWUsqAUkZgXlPGSkkEhntux1AlwCaWFS62jktr9aKC7Jx9mUAGVNeYEdK1m13KYQAqrfZemtzgJtMm8iWL7xLA4BMBDF85LZ/gI7mEwWdKloHAgAqsQFl8ItjEWXzIIfgPUFmFlwy+i3qWxRVT1xuOpoLACFyU4Ij/DOXB4QdDKH5SH/a9JSjCUAoGlICAsgCYrAfNJBSfMC90ygkAGIGAUIBKAAgMiqGiUCMEAkMYgPIcqMBCYPBnVAVGAMOqAMpKzto6pGbZ0FS56asaexJbuuwzj7ZzO9mbyTgCkA8N5DdN8gsavjLUCamXmASAlRKqYE1Seagxegqm0CidmH3Ix/dJiRyfSJlC6Mh5fMTVCVfis1oJHyBVUkY7T0uSi890wBSq8B9hZPn4G6ZSpJQdtdu8fdyjGq9sXxU2V6IIx3M8w4MDIDD4K+Z9iO1O/GAIxU+KRl5locZGlS9Dnkm1U2iyVtmbEgCMREHxCW/WlwoAaKRzskJRLgdGu+WE1o6k+Ks+JgLAvhRUNR8mvS6g5eufgHWNM5xTBP5EKNNP+tha+uiRF8qYnNKKpTwhAgihjErGKFVSgeV5qRxECqgcW/K6T6SPeRkbRRxiqFD7qYoCBCqOoAhPwKg4KFmi1+p4T/N4UuWMfc55G/5VRclLc904lrfNTraenT2REKgV9vAeSalQuQvPvjA0Fbo8j+QASeilrpUbBrCFLUJONh96w6nKgkjzl4WCheRlmT0BcR5KfEUIf5LF8LWjFSC1wgm+ojTvRfEZG1XeaK+1XUjF89Xsz0qgpqLghAJtlYJleUbu5plLoMaddLrcJNpdCACYmo8Y/IVg1OfNIhl+LIRCJNIkhEIk0iSEQiTSJIRCJNIkhEIk0iSEQiTSJIRCJNIkhEIk0iSEQiTSJIRCJNIkhEIk0iSEQiTSJIRCJNIkhEIk0iSEQiTSJIRCJNIkhEIk0iSEQiTSJIRCJNIkhEIk0iSE4ucm3y8fhm9EzJvvgD/MD5aytePeN/SDSFSEUPz/8f6itzE+SX6tK7XDf+lJzcqPDPG1Ky0D+uCL3Pr6PetWqZs2fzJEoiKEoiTkbc6Xg5UMOpynJIzOMH2kDLrUpPcA3eDLpL73pZ2WlUfiv3S/Prnsia8p3A9XxBcP+oSURahbo1sQiT4iFCUh1Ublx+yos9RJ0eptcvKhHjPXaVskJw3btMQPIzYc74p+ezOM8V/5Je+SzzIg8Wq9KymjzYGQjU5LV9wuMPJdBOOlLN6Ft0Rsn+SLjlCdOlppyf0VjrP3n3SdjJX3ya/uU+wyI4ymmwtRB2u7m0bfr3vEqSNEpR2hKAmpVh4XASRZtTmD6x5LOjhUu2j9fkhY/PIpGLm+cRAaLOtdd30F/HOJvYLWLUyUZNZ5BWDgrpxhoZVCFM9n7K571edYjwMM1BTLpz+oC2HDzXcRz/R+DXz6ZlrmgzvDhs+f5VpviMmJmKstjk9v/czwkPdlYPcAiEo7QlESUitbDKMnfDqXtxtDn631b+42YTngtyQicDzKL/PNR6Pp7fkz7fDPbR7ZMOnlhVZ5dQumRx5pse+3tffdgtseqWXT/NTS+QnGUFP5z5g9B0Jq4/MZjaYsWTTjicPo4NCZB19c1mYaz5t5rNvvPVzsut3Y/8jv/Mr42j4QlXaEoiSkVrbyUVAXt8p5AMb7PO49YTngtyTikn/XLbWi5XC5/+FZbV38c1Mz/WNG1fkdfVMC4W20v3qFczqoM7/dpO0hzWf8iiJHu1d+aITThT3uKrpbP5i3Ow6jg0NvDX7jdfZG83kzj3XbYdtkloRl2j2aGmqGH8jarhYQ/R8gFCUhtYrBo/JAUlVtl6i3AX0e1u23F/BbEnFh77I2MCr/zDkU/5Xrk29pY9yJqzZ9UwLhbbytYvudQL2NLgeGdQ6/J4NaePs3uwdAvsI7cN2g7ZYPFqyNKTM6OPSBwvfZZgf3eTOPddth2+RwdwBRbe6Z4QcyYpwtRP8HCEVJSLXJfeIIvLZue+aZV/KOZnXTx0x+OCYrZvveww3yWg3u2WDprw5HCP6p5FbNVwPrRzcM6pN0A976R312/rrY98IN17TaGedaQC3H7fm45fyzaRfC+1r5dnK77z91g3vjGnfqN5pTpdG4ZvNmHuu21bOWbLhdRruEDlFWEJV+hKIkpNrkPnEElk7pcAqLp1m9nuqPMrkqv0Xztr6o+6TV4J6Npra3f8rgH0pt8oJpcGfXiELqFp09q0W/pOl9Oz/Tz0HzdY5H1t5GkTAvWfXHSkWew+NRR312vttQy9OkYUJ83PrpjZ9vO7G74ZzNx5vtfjfqvmywYe7e/OPtICr1CEVJeN/ebI8eEDTMcxVSj9/Yl3Itc3vtbm0ki6Y/CpxRf089nyatmtzCP0UjE5ONuzy/qQ25RFWbj+C4AfHXwSHXy3b/+1EokpZvdFwBIwPW48HDmvr3q3oGRTrL7nVPvid3cTggK6werZXbplLYQ9vmNx4byFtaQ1TqEYr/n16l1ENststLHa3Q6hb4n8m8PnduJ/yXKMG/w+MTAkIBAoLvoQJAKAMIYKEmMJQAoAR/weMThlACUAKAUkLwV1TAHwgoQxkAAkNB8GcCxReECGBACaEUhAiE4BtUwB8Iw4OBAEIIKMGfUQH/QggoBQED8GBAKMFXeLD4wRCKn5Uym+AbMhBGVigDcK9Bx+MMPnp0t3x+++yTha4qxQv8J2iEvZQUSni2EICOwMtUBfgWk308n0CNtVM4hJTnLVC2rIBicdEXON7+TQMm5460p5HAZN7o+sxCj5JIRwafECIQIhCW5u2XE6jxnYxfV+eZyOosuIhER2sef8a+OsXiE6pdiYltHdKeAXOqiZBbmce3JMH3JPhEKO96hnYofF+meni6vo1WuI05j6+wKUcJPlPVdtnD1TE7wzvYVaSR1Vl8S/LougRfcNX0pG9iYcU0KcsfetdWVSHdlscXkqy9dH8z/FgIxc9q+iIZvkZtWal21bhqAtjkM92NVAABk3FayVIplYMD5fGfsDDNUuZ1DjePHEnBrqFVbxuPllF8jXl/YRBFEQECK4CCUnwHwwEC4UFYKClAOCVDKcDy+IR9q6qcnGubfqumgbmAj1QCIwAsD4BhBAF/xXD4gwBGySkBcDyIgD9jWXxBeQ4qECqwhApgBIpvEAn+wAsS8JSDIAhgefwZy+IL6dZ61VWEAaU8hYSoQImALyQPeHe+d3n8WAjFzyoolcU3eFDKszwk1wtdb5pp6ae/0w2zHEIoBLCgAMG3SF58Lea2RFca9ZwFMMCUB8BXEzIFRa23+qgK4KaZ1RWbGvizeGuC/y1K8HMKrWSC76MEPxxCIRJpEkIhEmkSQiESaRJCIRJpEkIhEmkSQiESaRJCIRJpEkIhEmkSQiESaRJCIRJpEkIhEmkSQiESaRJCUTrMqzQQauHGVvgi8vQMhKycVhNA4aJh5gDkB6+Pr4XPwo+MsIDaNZUnA+y5IuGtZmoha1rGUC+ISi9C8TNLW3OL11teEwGbs1Kmj0WcfxDbfbgJPunMrfONZlK3d3o+5n2oy8DReNeR1woduwhFkjdszjCeOBVxyw7kuC5ril+3AghxnXDG5PWHDb0kEJVWhKIk5O+VE1DO52Z4A3fsf9uuOi4/JvCqifPPe1fgDyV1iI4DYXjTvvhHUhu5+8656D8531kI9V8Y6GFTe9HYC/334CNP9vzUzREVbM1C/ZLGST1lUVoLdj7R7pZxHUXm7Vla3u/F29sDO4yafuRgT/i8WVCGr75uzMRlH9oFvzaHqLQiFCUh1TYHgOz1WZ8xa+B++2jXQ/2JSZLlsg6OCb9sCWqM/fvPlpEXYMwa/COJU1ebXmztP/lo9/Ujdw8av2juTO2VEw71QJHN04941A1bNrya5AXPsOh4Oqih35IFk+qaXkURuUoXa38LrpduSrb4HuyZ23tNFQDzZi+chnYXEs0hKq0IRYloe35L9XtT36TV2jEYW6em32s2oXPdiSt6Hhy6HUfb2qdF9ZccfP0ajeKn22zCP0AJLrb2n7y/77YhmZWcblOClRPOtoVaosus4eyO2Tm2rj6uBODtaQwTd2JSA9kqJ3xRJzrcDsAW34M9E7sOPWy6pty82R1Pot2FRHOISitCUSJ8tyy3C5tz46XPBGfm8uG4mz0P9EK8rc7lgPWod88l+Y1H7Lzz0cpN+e06nsQ/s3TK8c77+24bomwgDQYw+N5RRwCKXvfCygPHumFgfw8CvHDxOgbFqplK1zUNHzziVM3tgLsNx62E2tg1R7rtGNKYz8i/Hdpb29I4QhlrDlFpRShKhO8WANJT8k5QY4POLDzfGnkNI09fON/wwHL/jltbXGthaK8cyER01sI/cneAfxfs77ttSKaV8y3g4NBLjaA2/+pGR6D93Zm648pHM0jx8J5jSDsmXN4yu9WF2f66+dv7ILF9ozmmAOYe/cVH7835gUxMjUCPlBOZ1bp5nJNBVFoRihLhu2WJzuXJTQI9q9YvNN18aO/ZbUOAnoffTUm41ukUrONaBq4Zg//Cq3Zjh+x1iO++bci5dt0PI6TdjrZXK1dFWrX5IwHUUYRLZgc857L6pN9L+n2M3Zi5ytUrwioUAlI2e4Tbb4kyU4ROWeocW87grZ7htl/67QXk7g8e1IWo1CIUJeLXrU8cAawaf7UFto1+fXiU52Xy/9iDD4Ca98dv4O/PGe3dIaUQRUmRPTKyRzaRCNmUvZKIa89r7z2zycjIymiRCg0aiEohzdM553s+T1z3d/G713X/9/94vp/H9/UKd8vLnJFyY4MPdKInXVwznoOIcx/QB/9ARquBveeF7rJo1On82gmnukd3eTs8IS7UGb3PP6wGwKnmYSxeeq9yz7NmTtmaF+xqnTQ6PTTWCmWyOmTtPBCyevARb3ev8xtvPh14qvOkX+cG4pnnuxnuWhD8f4tQ/BAjtz10AOC9a/Yv6HL+XE2P8MqiN/mNb43dmlp+xCEc3nq1R5XDaDa8U4NIfL+YFoUt7xfYRBvuH63/vsvR4/04AK1DsXliSCuUWRmoI1KMn9vhEsrMXDxts4ZW7qy5KJPb6hGAyo/DuioBeO8400NW9/mKTqXdH7dbUh6C/48Rih/imN8FGwCHZ/7aAwcnb+ked/QwZzyll9acX+/ZRvczXDsuzqBe9Ztz6vfstAzfL/OwVCFRN24MXIjXG2jw+IImoOpU47DH5F90UIbb90bUuxIO5IoBVY8qeHpGXX6ABGWyD2gAyobNnpzRBFRdbHExTqO/GQq2t3eA4P9rhOLHoAQfUAKAEgAUIABNtwYoSHhmHWtQAkrw7/Utv1wHAsGfIhSs4krwGW01J5JALVFwUtUc9/r4RF2Mz0k0lRSagIJI8TWlnEASVtn6Vp6G/U0lwV8S5e3nCGrHcpXlNu8VFe8PgSS4VhUOHylFEk4t5UQAVYlL9ePPaRRDuxTaSgU+qF/Nhou0l2oqFQA0RXKK30mv3JfiE6pjHS8GoDZp8agrffE4w0tM8R/i9BNi/IGr+SqfGrc5rq6TQIbkHe8e2YNAnGxiqgYgvXVHiq8p22fqiOpK978j2rUd0/I1GyhRRnzsuRh/UBuXTxTjI66WQ4mVjgJESy1RicRKrZhQKcooO7xIkABceY9Dr7rbqaBMrMPhD0oJgeRs5KRJ4BdCwarrHTXxH1z33BzdqtLcyg+yrRx0FSoQEaAWiV8fJ/iDqkajh0raXCUJ13VUU0CkFlERfiOJuy4FKZZKSziiWUzxP2SjTjUzeKKlUENsLO+9166weHzp1i50b60+FBDlnm98APW6h12u21VJSg/ke5px+J1YhD+oRfiAciIORERU+ByR4HNqQkA5CdQiKIlEJVYBEFGKD8Qi/DeOABwkBODUIkLV+EhC8DlKRfhETRVr29Xl3uzTzDeSF8reK/A9nFILAdhtcwG/EApWZV4U4w9KIqIciFoju7Bqdj5M7kdLqXOsymIIxWfUKjGgAiRUHllepfXQJl0SL8ZHyoadlYBYTUUEajF+J07RJ+8tU4yj2t2PUchMEiWA2niQmOLPkJKkMc/jFQ2XjCsKr2PY5o7FsY7aqV2RaE2uueiiTEFkq7OijlLcsLUAkJDZGmxQnapnDZpgdafdmaurr2eK8TvywFGET0hBRp17t701Cs73lsZWPz1CvcO0XnanhuAZQiEQ/EwIhUDwMyEUAsHPhFAIBD8TQiEQ/EwIhUDwMyEUAsHPhFAIBD8TQiEQ/EwIhUDwMyEUAsHPhFAIBD8TQiH4loxfpKSGD4CE7eW9y0HAPELxI7wJ7EnUxnUBRBTI6qBMUSTVbiRC0quKGUTUWBPPX1WXGOCDUKXr+JH18Bn5XZPa+J3qjn25mIPL8V+epsOmCr6Bi0rZ69K1juqOXl38t5yZU+3x3wqG3XnZ8jpwZKASFTb0wlcKwq1tEJXnZIYkTlIdeKpliQ8yLET43csEsaiRFvDkmUirsUgeWSHHuLh+SXhtEyDzSTOx4qEzAdQxdQru7svv16IyykS/F4HqNoLy+OFBzSogJbWRAYCnaQ2MUKZgV4h4QG+NOa1bIVreRIy5bZvju63Sc6wvzXyUWldhJH7FOZjjyaq2PcT4VyK4JgQJr5roICu+ksoBvEYofoRs2wJAc08/qB0Sa0QaABHDH0Lcdo/ZyG1GecDqcX0j3lY0CKkAQF1tTMfafovwmWfWzre08UmeZcdjtjqx+NqhUQWQddyHv5ZX4zWhteKD+ruE4SsXx/zazmqSP+5FVW+Nr6TaNwxDsvM0z9Ax/gvwlegGk1ahTuxBD4zebf7AEL1vVeRAA10b6gJcwy0SAGF9XgP19tvtH1sAcetjCS5G73WLBvXt1Oa07ow92cFubxyNNYm6tPTwoCQADtFaQHxDOQC7hJPTUinMjrnMWDbhVwCTV+8eDCC/z2VC4XLV7UES6jzrc/SgZ4+T+G7eu7BvYMeLQ5+H6ovewz+wx513pMkeG/wbtR4N3YnRWxLsJh/KMuHqHzMCjxGKHyHb2nzEmz2KxxbFjqnYOAaPW2c36bAvxWvPiO0TZOTxwCzvVsYXi4fuBLDE75pBPb9F+Mwz67Od8RtFodjS+eY6o0HFOnH7W3UGDtQsOj3EAUh2fdUx4V3+khl4cNKrGreyVcPSNe/HVow9NqwKNuqnVe8PjN6xpvW4q8tNho0cdGNIRdA7T/vqALERXc2fTj3ttcvh9e3q1VO6n8JX8qxq30Lpa3NJolPfA/jKBp9Jq1An9qDHu04RuvHWitqJxpqqXNPzbQtkyMX5TsCb1nEVxVmKgwa9VRY0k/u1ZQONFnFvuWezdu91a5q4p79GXvOsPJUhpskXlDc3uKW5ZAJQ6Pxyik6xwqdFegOnoMIuZ2cu9TgIYPLq/Z4Axq9rt+r87oSgwye31WgB3I8aNcP+kWdtfJ+S2auW9m6IW+NuztEhyr5SO69JvR63vYx/w/FhxWu2K6Y9VTmXWIhK3ozeBB4jFD9Ea1zF9TZplc65AUN2YeO4uXNJ4RnrJl7PrwOUDN09cFvGk3L1Aa6BwfW7TTcZntIslWqtKFqbKq6y6GXl8IL1LhPG57SvsjipeVCLG3uezemniszQCm3qu7Ecl3ukLxDcbdRmVez9GqW7wjL0pwRYNTiVb5Nz9sxuhe38/vXuo9dxYMLaDjX6Pq+U00urlJrerjb0EOe4VzwntEB66uhu4Ma5ZSd6Hsuv2gpfybOcEYAPbrS62RxfGbx30irMXHrQY8W0aXumTOcaR19um2TXeoet8zXV4qWL/IB4pw6nxJeyOh6bOHpj6Z7RfTebu4TC/ejLR27VtGJahEpAFZrT196zL2z5IKoeWT3ZKRa47VLxqeLXGYFLBu0hkd2y03Ys2DUEwOTV63yAt9bm4Ua41GGXYtS6uG3A3fiRZ5bd2uOF73SzpUwvfW6gzwZvDSgmljZs1NPnok4H/BuOD2EfO3b702VbW53Tjmhu85iAvwjFD+EW6izOe3jXsm3WytEWD4ybxb8wHN6+zYs6w/c3UFPR5vMzUNWq9pRKgMK54a47zXbfX2vSfZferV6pq+bn/TLKLPrWhI4X+h05uDlq2soi1yvmFjHVio8FLz1u5mLY6g31kD4AACAASURBVGrBkb7AymnxDiizasrS9G3SqCkXY7QdFsqGT+nR13hvM9GgvCNAeqPXpH71ja+cqu/duOPuy0Fb5SMWObm5zViYs7fv4zaXto7pdxh/Iq/i7r4oU9JdFIKvDd1tUQ25CQc9hp9LbKwfgWZ3a8lsto9YUsHkQYUr7ZrcEiGu9tLpKHO6x5mueFGp97G6SfXIo/zkKttGAqe644Mu0enaOZXtwjWgsDZ6BNxsqVk/602mx6lfZgMhnY7HzbvbGMDk1evHAfsHtbkCXHfd6G05Q+TX/uz1C0vPl2ya3RLfa+M4jJlr1vImyhxzdXqJega/NMO/YZ8/bdLt/E63u5mdtUaOg2GiGPxFKH6EbBtV7XhRn4VvnExDez1Pqto2MkO7bqpGh8Mjt+mDSsPMQ+bkKEvmBwCptt7bbrsk5DUxS+4XerN94SN9zvh95ah7o3qe6JoWaVvp7slerULNLWKsxU93Djt2Zu/S6cunn+0CtA3dNQTyFMmynWe7TFi7sXrbeVdvXNh82k4v28G/ec3b0W2BvOfKBZeLhjf1bn7zlzkRMaMbKJ81H9dB5vi0+ETgta0jNvh0vIA/kVdxd1+Umbhm8yhK8KUbrUyUKFIfrW9vfbtpYkiHKs905OoWWw2rIMFa6VCUpoG42rN/QcFDmxCvu43xolKv4y639aGeEYAr7bDOBx81jYmxy6mmjLdBga3pI+Bmy07DEkoW9g+a/Qswe+Ec8dy7jQFMXr17MLDet8UN4Kh7u0u1MjjRL5PMsm2j9PEP5NXMvFcXbuf6jzvODbN5cnd9erHjlfL4F+wUl5soTDJu9Hwb7QSuRsrtpuAvQvEjZFc1CDfh9MWhbSFVYsaSAwOPtUyyr93omFf6zVJAc69lM8krpwmBwKNaI7bednmMmqM39Tz91PtGsu2ldy0tblU3P95t4s17Fk1O5FnVvWZuEWMtfrpz2A69fkHui/zvNgbcjwbMx8ylGzbHn+3iu36dT+trqJLcInzHcXmT/nWbXiMAGqUdahNTt3cX7+Y3f5kTERUQb/zQ4F1Tv4UvU2q73d46YoPPyC2zsxqOxFfyLAdvAFSz7+yrvGawEb60fPqvo0td4o/fWUk0FNRnXZVnZ96O0owwNm9+nYS7troAxDvVv/2u590F+hPmBuKwR5+jdfWuFUBPAqVj0rHe+KjXhdjqObbvh2wsmr7LKRa42bLTeQDnu1S6J8vqGHvy3qqESgAmr46qD5R2CZ0/NWXSldUTW96Eyz6nAiyZsejp6Ib4bmM3rZoE710bxgJwP7Z3YFGbjFhT/At2xc8Xz4LkjlfiyC0I7VT5kQb4i1D8CNk2hQ8dAHS+0Hr8lUvJ1xztC9povw+1SJ54sC0HrtL7Q64GCK14ugYUdRrtKrAf7G1T82GfE2+m73Cl11232U4LMLezfJATPSqireKqfvT4i4nbl8Y/GNTsVHdN6d0C/wVA/pSd7ekN+d1TS+uXu1p6u+nZrmh5/UbXJu+i7G/U5VK1APgvMmqV/Lj7anuzpFX+E8fVqmVxrvExx+IOabEnNoTad5dNbRVa5UWF++b4Ul7V0rOuWDvBpIn8RawWvhTSrXUIAhYc3XpZr5E6TCdu+YbQ1ruHtlgyJraVQfhrm0caKF0S2O5hJqb51XzXWvr4qftOc/XyMfig40WvPfho1uKQDuqdI8RtHr4SeW8D3teWp+oA77vdrG2dmGiatHphc0O1ol3W6mbGavnQtxNgX/gCm0dtHoNm13qew+qJsxf2OYrvNnHN0J1YOrNmVTXgM9jUrvSq9n1r/Av+i242nz+XPM1ro9WA3nkri6oC/iIUP8Jrx9cPHYBXNooEWxwY2O5SRLccCnQ/NWorylT9tW8pCJm0AoBbZJKxU9fmnYwzRhzc2rJDOnCztF3fI03CAUQbN3gLIH7Pijsnl492GdgoPMezSnOvnUMBFI/bLRL33ft6epBS7LqtCm0a9agGto5T620YWDs7XQtA4ebZpXBZ1qTp3eRHPacvXT6DknXjjs19jA5n9o5Ahy7jt4xMH9PJR4QvDL6SzUnXdbSTwz6hQwi+8thhwq/YMbxqVvHS6RixvV1uzPKpaHO1is5jAPW31wZQemBsqaT5MZPHw8IBixONBhy61A4fbBzX/CY+2uW93xOqi8OziNGx1ijj/DJdB0DRlhkq1DpjfbMVBTDcZBnKTF0+YYua05o7Vu9FvZzBu8dt1DvcJaxF3Xv4bltGj9yC6JZKNQdEJXoricRziwb+hRnLjvbJsnt/pmvE1FuAy1Z78Bih+CEST4woBxRuqDgQKE0PH6x+l34BFdwNLkRJAbXhyNgQYtlZRw/Ahc7nOm+3rbLLuXvicW/zN4fzyJjYK/V6PjtAyIMVlgknifjspsJzo55cdSdBdo3a61w+OTZwLsoUP0ppo6cNGnO6aRsJ4JF/UgOIf9DZWLSjaKwEH8Sf0vM2xNXrY0yGB1ajMZf6WmqiKEi3h6bqZmDggykXOuK0gw2+tC9ZRxLnYb22snGbQM9O+MqrzS3b4OGCrs+1vA1x7XpqW/8J03Birt7O0VqxY6dr4aOnR7vY6ADFJ1KN+pfHxfAx5fFB3MTm8/DR0WF7ewDIPGDYw0SMMlNfHsJHD0/p9jfH5UDbPKNKHW6vGJp+w/5QBUX+3YzepmLgfORAm/dRTjKRcqO+N75bnv/AJuD2tck5L+aGVkw8rtWrogb+jetXB9jh+KOBVVGwI79aTx3wGaHgGWqnc1mGP8WJ8YFKTPBJqUs0gCtt8N+URIK/xonxJU7duvU8/A+pRfiNmiglIkAJqQpqiQjfphKJ8JFaKRXhc2oqxmcoJ6JEBI6TqjmRBN8vvLI5/oSaEPy0CAXf7Du/ugK+V1b4fs0xLvhfwL02xyclXV/rceISNT4Qa8gpqZlWqrDUSpcqxNWr1SqKjSwhpe3WgY+eehVIIFGAaELFkfd6hqWlADQVFB/Iey/CP5fWU03wkUSqUoo5sZriP1RWJ3TAEkIh+Jpi6cPjeu/7VuYAiFMveWkk1KQJjg+tk152PFu+xennpJ2tSll7OPgoZof2c8S1lxYep7XsdUJsxmXEE3C1UuUEZRRNPPHPZS9TE3wgCY+q2S7WPsVMn+J3ysaeYAqhEPy3zAcNb3SV4gP547pQaEChoZQoVTrFYs0SFdWRgMdUUOiAFlENDVIs1iD4X1RaqqGl0FCKRWAXoRAIfiaEQiD4mRAKgeBnQigEgp8JoRAIfiaEQvCbEs08YqDQxndQvDGhIjXVLtJFmSJd/CX6mpQvyiN6uuJcoquFb3ojJ1THuEiH4CNOIYYG/lSOgoBqiJSaWlolOiiTayx+YyDFf+NeU4DqKFUA1VKrzd7oFZpm6+rhT7yREwC6xRRlqK4WKSGG+FPq12oAVLdUJTaRF2spyr8RFZuViHTx3xQ5MNYBrxAKFuW+1tcxFuGb0u51ndnS4NIrMUoH1vET4RNCCSX4g1qpCYVErSbPZFHS2u+tlCijqaD4AgUIJRQfEPL6RnO1RKmq9KQ6BZBcHV+gIBS/Idx5qVtSpKRGNcOLGlUrcfgdBaEEFJ+RXM8Qc9bNE6zF+IAUvdESlVPjAwoQUEIJxQfk0lsR1DLpOzMLy2c2agBXGxmEOhurAVCCDygBKECKQlQEnPXbAgLOskTR5aZdQqvg6g4q/BdyLVMM0OopapThbCzEGaKGKvwHBUBACUBKz5cSgKuWXaTl8irNIrdjmEZalxca9ip8hoIAouxQuncQeIVQsIAb9Fxaol2M31DtnBfG+uXF+IiUiKWkRCItURNQcPhElJllnWilyEYZG1k4/opBtRh4nWyeWy9vKKXiRc2bKaBxcVWDSYZq/Icof6990vAQp9A3dnmZNauecq9dDIBwYg5lxBz+Q/xSUf386yHXb0nxAZWMMCoRS6HiqAY4Dr8T7bNqf6i5RmwMxe+U7RurAU4p5vAbIqLimKpP6lBIr8qfDC6Ktrzf+rxNnBig3uYcoAZRqzkxhzIaSqqhpABER9s+t5eIn5/owYkON0gsMR4hpQAnIgDUBKUaKolCk1PhC6LX+Q7Xr3lXVQHgxPiIU1MxlPgP8b4qindO5tedC8Xie9311QA4EaFKkVgtKtWg4lIx5fC7GGeI9lm1UZXuKDd6Vaux4BVC8UPccwCn+6BC+WKJ8k2sq1JTD8p8sRHKvKdGKKMuNMBHBQpdLaBITgCIDAk+UjjNMD/b7YyS4ANlk+ZqNeXwG+nVcrXIBRu7Szm6onyN52J8IpYoNVRc30ocoOI08RtxZozVfddTIlB9iwQxAEWXTqdCxt3u8NrxgQuATANdAMpUKx0I/lf4WfiCVwjFDzFc38qm28hnjdJbz2p01kDe7virNb+a+o4wy703hJs4vDxwcfjW9mKg4MjS9KZ+raUTt4goEVne08FHctdgGQQs8rPwBa8Qih9i1FZMXe5yG2OyTqJMy8O13jTKTu9/aNRWK9Ez2fp+6HgRwW5Auysy0yT4LRqxfXPanbsee/EbuWuwDP/YfNFsfCFp7GAvfMDNiB44HF8JDDPeLMM3bLm0tiK+krc5hLosIPiWrQmr8Y/kT3xGtLdY4H9q997ZrfH9NkVtE+NLiy4NGwTg4fgRHvh3ZkeHgFcIxQ8xaitsnjSOwNrMbcfFVG1uamkf8Xbw+xtukeFW/YMD5isdnmDoToR0srkoezi44YHhOx46qB+YmXtpbRUBkLsGy/B24wG97bXx3V7V8F2EL0xZNXMxPti+51b5c/XxhZ1r36evnIxv6HfkoAe+lN0jqofGJaMNHfANU1fGOeL7le5cmeZmcFlzWT/8D01f7rkf36+64qkEXwpYMGshgBut5gbi35mlWAFeIRQ/xPTlqHGhWSZGx96trITcfbllfkPDBcmeI3aMqdE60dT1WN/2N2uFaXUKWT71Ncni6ozcZixWm0RunU1uNwAgdw2WFTbN0ChxCsNfK5ZK8ZkUm1Gb8YXbLjOWoEzk+BDFrN6d8LmiHtvK3xa1wV8p0hJvmZlmhC+c86h+pCquttnviW/I2DXUEmVKimT4DqO32B2viejGKybif+jE6IUj8Bl1TnmCv+ZTtAtfuecS7QAgdcoUF/w7s29fA68Qih8ipBOqTpk4YuPN4OX6tlTutmz3zvQXGLa9cGR0Kud8U6euNKrbuRcWLcI2jqkdp6mTPGdTTS2u6LbsUl4XfQBy12DZ2YlxWk+9b+FPFVxwB1ZVd8NnFA1arcHnXmT37bUSZbYkr8RHryVaOshSWQI4fmE7uAKjxEo6iDW1BJBVAX8ozpk2uPWTAZE6+CDvYUMNfDB2U1R9oLDi+kEojnfUgTqxhhifow8kjsBbk9eb7GzorSsLpA4ozLADQAm+kv6yYhWUyXMsuFcNQN0BU5GRbmaLMu9f2+KjHGMJgKwUiYMe8PKpo0mG1Iy7V1WGlJw6WogWORN88E5kmGKqn2wu0SuK5Uysd63aqldbC3hW6PBCw0wR6WAMIDPVwQhULQYSq5bk2CC2UN9JHaHrBIB7UOoTZIsy77U18Gdi5Zz9sxIje/wtP7OJ4BVC8UP4bNg4N6dcn027ni5sdwlAzMX2FfzPicIPuDb99eqVNc0cxE5peX6Lhu2csmJW+3nXX8/Z/Kim+lVFgt/IXYNlm8eM3lSa5IRkyZtyZtp3H1VQtdMF8Or0y9rtcqam+HNZs73zfRpHJhh21EJioGJIt54dy69WLnLNHVFoMK0xbp/f8xIzFwO4Nent3E7ZI81m1xt3zmjY6ftTZwFYdLlGOXKm5pm4l9PijMb46J7ZapEo9kq8VHtWLQD3O2dj8PYqCy4+HDIFhTuCChtuB3C+S/0oAFyETflfDiVUHzzrSRfv88VuKSnckDEexU1PGY2IDxTv85i+P/zQTMD6hQoNIxY/DLX/teoQWZrXQJR5cDZYWz5sxILgwOkPq0aZABiyZ+pylHlOrNYvzNIbOuvVWK336bWcElQGU1stPmyCIq8K/dQTV8ctK3ea7opYPetc2NH4kMTXT6xG5t6p5t8DSF15qZ3y0HDXfpbuizyum0qXdtBzyLwnA6asqZ+4WjOkOK7DupilEenNQ+5vdA3x7lzLyWRvo/VH5tXcMdHkqemKekOfpEmy1voCmLk3sJO7mHClPkMBZI14o0F1hhx5Jvl1w37j29PP2kYa4e/MvhsKXiEUP8TaCbfdX/ZdWq1HeszaIXKqn1HL6qaiQa7f7pw9XbxPLCpa2LTplQcIkbRXn+52rl/pq7mbOndJPdpxYY/CG4YA5K7BsrA+BRWW98bO+VovNAK5X61vYusI4NQge2lKbKIX1xshyQ1aVVyvMkpNqtA7rm3o+1Tvy6LSQt+1K2a0uq4Tt+DSbJch0TMXA9gxRVSxKM9ALE+OdjXe4jdtgB6QWr9iO9XRokF5E3u1n/emX9GVldt638mGF7dv3HoAcc5Ut/3hyha+O8LuSbsa19pfJwbA3sHrx+Gjvmd3tpwcdP1N70q7thzpNn6g+f3ZC2vs8L9RZ7uPYXDlzPtGVV33GC1IWhK3Ltor5Pn8zE3DbycEzAcULcNXufZLDtu9Y+Kc+b/u8AbQ/vLKyfjofN8LVWN7NLrkUHItpbd28JX5La8Hzttfb1D0/Sp9dc6M3jL2TIZ3//ZwXr13Z2i1MVt2zBu/7517EBDavWh563pdT1zp5DO1SrdDl7os2ZhQagZg6koPy4RzTV0X6EUMNN27J39BtUodl+Vd9ym843f+majt5oWHquQUxe7de8omym3WQgCL/Be626sPxC1ucFcMXGlHthZPkPTJvna6S8tKBx+sXF4Bf8tPay54hVD8ECO33XZ/uaep7d7dV/XEVGVzsl2qHikwebhmqYZmAbmy7XCcIzdp3ZBdWyYqdUtLa0TO2IwyVfc0b3RTA4DcNVhGFXtHq9eMb7amaFCn1a3qLt0v6WsCpMb0Ll46V+SZFYpLHQLnJqa2R8sTcR3v1SlSGfboOoC41N/ctp9cJBo4IC8MN1rNXIwyDh1WxeS5nj5wBGcGmy9zwwcrIo9gbcoaPKl5tAcGHHpebPeg9sht6ZUbVTqKMk3jHpmXtAyqkdY/Yston+qkvDuAvYPXjMdHzk03ILfK8M4dznXO6H1Da8qFx9sD4spNPR8rPb3x4oS19yqbLZsMn7Rzj5z6N3/+qvB4HY08xZC5wFH3M12RXts/b/EivwtdUyoDaH/ZfwE+SK7V7IoYnZ4+aZmSLnLEo8hGzW/6H3mC0WcfGfZUnh12fRKljrXMW19Ci8eJshLqokVyHXsMBBBbJ8q6fKezSXZ7HN2f2s3tv2jNCw2UmXDukeatLrMiHrQ2X3ClDSfOqNunMEl8uL1+VH7tQ0lPRlWbbk4129RpdBl3ms1aCKCgxtCFe2Yl6w40X44yS59uu9B5zfj9g070DFiWutlwKv6en4UveIVQ/BBz7p/y2xC7Y2m/gV1RpvHttKmn0HZ1reK9q550nlHR3vmWFOe6rh+LpKX7LSZ76w3O9Z2UuLqRaT2tJ0YA5K5nTQHsHGazsvvKyQAaNNiI3+RvO54QUd0zKxTXXQPnAgFhSQk+B1KqAnCzXY3G9f0s5wYCuZWahOJu05mLUcah04q8O9vT3983xIpp5zrjgzapD3XH6i3Dr5POdMWAQ8+L7WKd9g9Kq9L67gsZgBb3XxgXVVzr9apD+J75L6T4aO9gnYhaAPbuCZuwHPmVK9y2nz/qjcMxl+MDH6hrDts+5XIchqRfn7biXmWzkLaqhkZXk50mLwJUTSuexEe/zLnqClT36uH4xOZC9xdmADb4SK43A3Dml2i7SH1VdY3EjvHp0sADT/Ks6oTNOpmAEQ/voqfyrHdUjATItNo8PNNRL8YYuVYeO/GbFJso6/KdzibZBc59tnN+k2DXN2kaKDN1ZWSDqC4PLIA5v9xsDozddK0VgEm3I0urGr+5BZuFs4CcSnYRGneazVoI4J3d8IWHN10ng60WoMz0AxkZ1deMfGe5p8/dppcmBvTH35sdcRm8Qih+iGJOX/6qqjLBoFKCikBtXBkFqbSKEYA3z6oZKhMMqgBcWlURgERjM+CFoUFmlp02UkrsxQDkrpcSxgVXwPS1O4YE+uNxNVfti5L7hS2AlGauQwJuSz2zQnHdNXCuooPe6DGxU3ad6q56VLtrjRVo3muUbaWLBnGFq6Lvmd5tOnMxyjhZn/bat0c9PKVyyNAs9yB88Gv8DjRvuhQbfI71hvvR5wVtoisO2p9WpfXdFzIALe6/MC5w2ufyslvktsnLe+le6QUgr1vYysnA2/pDj1UMFmdVd9tS7ZdRrzteNt215OHzxvs7REwNw7FtF9f73qtstngatl07+KxJ5mrT0kGeqauNtDJbAY+cmwfr3HZZ2d7xiU1k9/vmAPKbPmp40gKqeh1VaxNsSmz1EuddvgW/Y0/Q93mE/9FkjIyJJH0S4n02za1UUrOWxaku6HF6Y7WkupsPLrDVtq8KIMUmytrc7ma680qHNednLo0dnJVghDLjrzwUxdZxGC2tXs651QAlGjT3aeVkpLPi5G1MW+G7Fm2j5+nQ3lv893VfuDTMBUBu3WX9D4RtxtqsRShT03VDbrWFPu8s9/RB97u6MUb4e37iBeAVQsECues5fXuLRj3mv3jcOKJ39dC5e450qL3b9roEDx1dei/3nOp3aV6mY3ef2cfHLezQ19+sh+Zu8dL1frYz1P3U3uH7LVsEjYu94ezxdon7hKZQ3+o8aN52/zNRv3Sb2dNDsXGxjx7wrntON25XlX6T3jlpDjWYYXY4v9fJWivWXtXv8TasHgC30Bumb0bv1sn03CMfnFNPRx6JMuH+UY4uqpNpF2JndnI8/PqspNV879BJQSXu1S5cHzzFNyHg6DXfct2Ovgp0b1gyYPC22K1PNAdqlpJDMUul0pLJKwCMX/drhVl515P6hr5cnNZ/khOA9F7PVf2MkqIfJbfR80g9P2Fpn/tXLvgan84a6Hh2wQa/CVMOTO0xKG1qU3cVMMpinpb32s0zCiXKJqNGlYrU49cASLGJsq5cZKAuNG5wqaF2YXSnkMoLPYHIIW+HjK7ifq4YNaL81wHGlwclSDRsV/koT9ul2V5ug6s984H1Peq91XmPqrfMkbN8X6DbnFurjKdrTu1IkDn0zjGul+Gxl/3bD++7eczuwfgOfha+4BVCwQK561lTrwfQ05jqdmQRKXFbkbXynPXQ9gZA4chkMd4FvN0llc8/+Erc8+o7cKUrT4VpcrVy3qo1wRVYbxydUeq8RbltP9GQKGvswysPuaa4TjhRi5XS/EnybdzMAcCKQ2I50VGV7K/z4GyQ1G3S1lMwso4Wl5fFSqrtEwHXp+oBKglQqhhaf+/degGV8VGqd65Id4K7KPAY0V3XYHiMXt1wtVTNSaVycDqUk8rVpERLTFcevlNS1/yy1H7lkuviOV3oxZVv+47TR5ltmySKFVlrpdJitcbbNR1QhssZ/oyQlW3xePRbyWrXyFHaGpyKStRqqVitUumqCr3012i5Lrt9Jnpmi55vqNYZo8Rx7z29DW8uVXi1NwOQYhPRcPNubbejTvPDt5QPtFbNOt19GRC0QO/N9OGI8bHYJMPmreabrR4uSdSfvzVZLN4l67q6PpC+LN2/Kcladb/TsZIFbnjeQyLWKuEk4hJaexcw/YpUArVaqkZerwURneIr4jv4WfiCVwgFC+SuwTIIvtf5LhEN8X+VSuJTbyi+h5+FL3iFULBA7hosg+D7qCZuaH6D4P+qc0MVF5rge/hZ+IJXCAUL5K7BMgi+T7hL7QN2+L+roO2EAfgufha+4BVCwQK5a7AMgu9Do500wRt+Fr7gFULBArlrsAwCFvlZ+IJXCAUL5K7BMvwhX1f87n0VfK/nnHVhtrUI/wB9aS5+/7YKgeBf8rPwBa8QChbIXYNl+F3R9nXjG06J3NZPG38tZVnbXmL8pm72y1M9z3TFPxDWcfDGjb88l0LwL/lZ+IJXCAUL5K7BMnwi71NodLbZsjEx3Y9K8edo4rAn1VMMfXzxUe3srFM914/DP5DlUD6h84UrbSD4l/wsfMErhIIFctdgGT7ZtSEaM58dStvWuBv+3Ov+Md5jrIoP+N53xgctE7NDOq0fh7/CZcq08CW1kzIpW22oA8G/5GfhC14hFCyQuwbLgMIkRw1gzfs56N92OAoLK+DdE72awNOsqhb4zNz5G8cAKBnk74zkYkdx77AXIquZE1HmlVT7cWWzxAJ9O6AgXlrNBGVChm6wryHKfKKlUVMDH7xKM1gXmvI2vapRfIGmgxYeFUlMXxnWzE01rIH0LHFlg4jTXnUg+B5+Fr7gFULBArlrsEx1fW3wyMFNz4+xG3Nns0Y9Lr3FzsK5q7QGbN+xWDt7rg/+MPDA7ab4qHTfBC7SyfnVy2f2K8YDuNnbwOi+jeX9/Lr3kOiXHREQCOBMd31OLy12VWlk9o0WKHNtjGZmjtO1DtHHmzawunuhw6bVr4qXbafJu7wbhccPzHi7IDUhWycegu/hZ+ELXiEULJC7njW92dNn8NiLW036levqvMF4d0av6aMcnTYVKyv3cI/ep3m1Pn5XaJt1uyk+KG2aETRtr/3ASy+kltMnAijoZjBx0ZVhHrNTYg1rcK3P5UU0BN54RC3K7djQd212q9ehdYAnHbY0z2pscr9PRFqP+0kJFWIXXixNqXH41+eqEffi5hUuvJg1buRcpQUE38PPwhe8QihYIHc9p+ukGSN+Zt3p3IgHUSV1q55LsZ0/yuxSW2DpzIstStT6GvhdoW3W7aYo81LvSptb4+7Jamc/k1pOn4gybbuNz6m82z2t2lzXlv722XC3BLBj+L26PhvuO8P96EEPoM/JFxaqqtpJG+ZnL55V/nijZs5bACxb/4xMu/Bw+/yuAcGMLgAAIABJREFUwxynrzWZPg2C7+Fn4QteIRQskLteudtuyQyU1LO6OC4yKsOq2+mEmnGyijeaAx0iHlvgc4rGMYf7oUyfsRUPXHkWZ1o7+5nEdnE/lBnQaAK69x2IVkMUo053w2/8ltxpMmL7o5p4ZrfBG3C78MICTXOTN8x/kRe5JmrrWKerAJatf0amhcRnJg9/unz0UT/EmEPwHfwsfMErhIIFpfX36jrWCtOhnZ8/WnMwAm1ElzNreU+s1HG/ztst8wLmqte5507eYY3f7B9kcNRVJIZP64E999dZ3bpXWJK0dr/FKDMncxvG6qzAgHpDW2ivbvTiaXsAfkvuNBm76VBfruulu42BtfN+Gaz7y/ZnpyYlDFhVZcxBrsLOJlmhdoNWdJ+582HgMOd2FV4dzx0e8H76ZB8I/s6sd5vAK4SCBUorf9/Ja5sfnHrYfYPHpXH2UxVm7Y6WTLr2WENa2jw9xRDvw++PPNkDn4w8yGl3qhZ254ZnQflH2tqqAgPJO7X/AuBBS6wN34xVkk0Jxx8HaOoVeuwCsHC2h2PdHmodKGtcMgXQKcREVCj3iH3cN+JNJVX7UR1yDeVa59xyOlbcEfhqq1dY5ViVJp2jM6LldQj+TkBQMniFULBAaeXviyuzEgvcgx55c6IGztpKpbayrtPF7EeJS6ps3K8aOPOo/7aW+IQ+Gfme49TjfPxP9YLsXXXR8yN974zqDIRMFY9/fYi0TX6u9pq08pD+5G5iAC/658tXGyzrktirmQRl5IfXE/ezb6USRf0YtehItZcjnrlNNvO5RbRKnetuUdZbtOXckI52cd7DR0PwdwKCksErhIIFSit/XwBHdTsRCJgSEJQMXiEULFBa+ftCwKKAoGTwCqFggdLK3xcCFgUEJYNXCAULlFb+vhCwKCAoGbxCKFigtPL3hYBFAUHJ4BVCwQJltQVeELAoICgZvEIoWKCwX9ETAhYFBCWDVwgFC5RW/r4QsCggKBm8QihYoLTy94WARQFByeAVQsECpZW/LwQsCghKBq8QChYorfx9IWBRQFAyeIVQsEBp5e8LAYsCgpLBK4SCBcpqCwdBwKKAoGTwCqFggcJueW8IWBQQlAxeIRQsUFby94GARQFByeAVQsGC0sYHakLAooCgZPAKoWCBosaSfhCwKCAoGbxCKFggdw2WQcCigKBk8AqhYIGi9uaWELAoICgZvEIoWFBad2szCFgUEJQMXiEULFDYr+gJAYsCgpLBK4SCBQr75b0gYFFAUDJ4hVCwQGk9bxgELAoISgavEAoWKG0Xe0DAooCgZPAKoWBBaeP9DhCwyD/+DHiFULBA4bShDQQsmqVYAV4hFCwobbTXCQIWzY66CF4hFCxQ2C3vDQGLAo4kgVcIBQvkrsEyCFjkn3ACvEIoWPC642VTCFg0+3IEeIVQsCDNLcwEAhbNjg4BrxAKFihtl/SHgEUBQcngFULBgnetTleBgEX+ccHgFULBgkuDkowgYNHs6BDwCqFggdw1WAYBi2YVrQGvEAoWyF2DZRCwaHZ0CHiFULAgyv2+MQQsmh1+BbxCKFhweMRLAwhY5FdhAniFULDg8IiXBhCwaPbdUPAKoWDBg97RxhCwaJZ6CXiFULBA7hosg4BFl+feAa8QChbIXYNlELAozSsMvEIoWCB3DZZBwKI0rzDwCqFggdw1WAYBi+753AWvEAoWlDbcWxsCFm3eEA9eIRQsUNRa0wkCFq3a/hi8QihYoKi90RUCFp1YcB+8QihYoKy2cBAELEr3ugleIRQskLsGyyBgUd6UrWLwCaFggbJK4AgIWHRpVjR4hVCwoLTutqYQsOjxiNvgFULBArlrsAwCFj3rdsMIfEIoWCBvdaoCBCx60ehKTfAJoWCBsvKc0RCwqMB5QwfwCaFggdJ20QAIWKSeNMMCfEIoWCB3DZZBwCLF6PmW4BNCwQK5a7AMAhblN9zcCnxCKFhQ2uSgHQQsetXgfG3wCaFggcJueW8IWJTb/2B58AmhYIHcNVgGAYuyxx0R4du4Ej38OISCBYpaaztCwKRV4zTxbfcDz+DHIRQsUNouGgABi1S/+Gvg2949csGPQyhYoLRd7AEBi9K8wsArhIIFSit/XwhYlOYVBl4hFCxQWvn7QsCijHpXHMEnhIIFSit/XwhY9Mztuin4hFCwQGnl7wsBi9K8wsArhIIFSit/XwhYlOYVBl4hFCxQOK7tAAGL3k7aKQafEAoWKK3njoCARfleGyqCTwgFCxQOq90gYFHh+DX64BNCwQJFzdVdIWBRmlcYeIVQsEDhsNoNAhaleYWBVwgFC+QtT1pAwKI0rzDwCqFggdJ2sQcELErzCgOvEAoWlNbb0QgCFqV5hYFXCAULSp23uuDfSNG0hOD/hTSvMPAKoWBBqfOW5vg3jifNguD/hTSvMPAKoWCBoubqrvg31GoJBP8vpHmFgVcIBQtKGx+oCQGL0rzCwCuEggVy12AZBCxK8woDrxAKFshdg2UQsCjNKwy8QihYoO4Z6AwBiy6MjjQDnxAKJgQiEAIWvWh8xR58QiiYMC9jGwQsKpy1SgI+IRRMmKs/FQImrRuhBT4hFEyY/3QvBExaM1wXfEIomDBXfyoETBo6oB34hFAwoVnfiRAwydPDDXxCKJgwvMY0CJjk6eEGPiEUTJh1/Q4ETPL0cAOfEAomeDnMgIBJnh5u4BNCwYTxD69CwCRPDzfwCaFgQnPX+RAwydPDDXxCKJjQQ3oUAiZ5eriBTwgFE+an74SASZ4ebuATQsEEtzaTIGCSp4cb+IRQMKFfo8kQMMnTww18QiiYMFd/KgRM8vRwA58QChZQ56ETIGCSp4cb+IRQMKFVj4kQMMnTww18QiiYMFd/KgRM8vRwA58QCia49JkIAZM8PdzAJ4SCCW1qroOASRMG1QefEAoWKCuNmQMBi/JnrJOATwgFC5RW/r4QsGjX6jjwCqFggdLK3xcCFt2ZFAFeIRQsUFr5+0LAohvTIsErhIIFaseREyBg0c2pkeAVQsGEUdWnQMCiLevjwSuEggmtu02EgEWpg8PAK4SCBUorf18IWLR4bwJ4hVCwQGnl7wsBiwKCksErhIIFSit/XwhYdGdSBHiFULBAaeXvCwGLlu5OAK8QChZQp+ETIGDRuTn3wCuEggkNPSdAwKKL/tHgFULBAqWVvy8ELFq54zF4hVCwQGnl7wsBi5bvegxeIRQsUFWaOR4CFm1fEw9eIRRMaNdlIgQsCghKBq8QChYorfx9IWBR/Kg74BVCwQKllb8vBCxK8woDrxAKFiit/H0hYNGmDQ/BK4SCBapqPtMgYFHgoSTwCqFgwuwTjyFgUeKw2+AVQsGEhdvTIGBRaeB8KfiEUDBhYN5ZfINKoSWCgI+yxh4TgU8IBQtUNuOm4RtWTbnRAgI+SvMKA68QCibM2/8E3/DgVi8LCPgozSsMvEIomLBwexoELErzCgOvEAomLNyeBgGL0rzCwCuEggkLt6dBwKI0rzDwCqFgwsLtaRCwKM0rDLxCKFigrl+YDAGL0rzCwCuEggXKqhWiIGDR20k7xeATQsGENp2nQMCi50NDwSuEggnjrKdCwKI0rzDwCqFgwpxTcRCwKM0rDLxCKFigqlEuHAIWpXmFgVcIBQsUjms6QsCiNK8w8AqhYIHSttZZCFiU5hUGXiEULFDUmjoSAhaleYWBVwgFC5TVdBIhYFHEhHDwCqFgwuj0EAhYFBCUDF4hFExo6DkBAhadWHAfvEIomNBowAQIWBQ3+g54hVAwoUGLlRCwKCAoGbxCKFjANR/gAwGLAoKSwSuEggVK2zqnIGBRQFAyeIVQMKFB81UQsCggKBm8QihYQOt2XAwBiwKCksErhIIFSit/XwhYFBCUDF4hFCxQ2iwcCAGLAoKSwSuEggWldbc1hYBFAUHJ4BVCwQK5a7AMAhYFBCWDVwgFC+SuwTIIWBQQlAxeIRQskLsGyyBg0eYN8eAVQsECuWuwDJ9TcZoQsGDV9sfgFULBArlrsAyfO7X8tAwCBpyZdw+8QihYIHcNluFzVycdqAUBA/YvjwWvEAoWyF2DZRCwaHZ0CHiFULBA7hosg4BFs0PvglcIBQvkrsEyCFgUEJQMXiEULChttNcJAhYFBCWDVwgFC5RVq12HgEUBQcngFULBAmW1mWMhYFFAUDJ4hVCwoLTxgZoQsGjLhjjwCqFgQlP3iRCwKGrlfgn4hFCwQO0wegIELDrR+1Yz8AmhYIHSusFJCFj0psbB9uATQsGEsRdTIGCSp4cb+IRQMGHlxhQImOTp4QY+IRRMiBkZIYKARZO96oBPCAUTFoaE4TPvqc7bCniiWyGzIv5GlpEWysjzKuDvvZJp4LtkmmoAeG2g4IwBFBeVw195XGRpjg+eoTK+LdzwdR3DTFFOgex5RY3iWvhrqSliqOs+5WqIDR+Xl+Fb7r8VAaCN3j1uYPIkrwHyOWOUoS8t8RVluILgd1y1qvhr8dnE6hWlpupaT7Nrq8rhr6ljp03rAD4hFExYscBCBBWAOg8ApWtWmkGeGXmqU+61hVqt0H6jYfC2VKovL6FanAofcBZaqajU41R90QUNbQoQeYER1UCpUkWg5PAJV8kx5UW5IrvK+0xNHbnXJVmvTTQoAC7fmCjf6UgVcs1iE1U+wRfU5QxeKow1KESv9ZXFMnGeKI9WztFV6MkLCb4megWzChQASVZacgqCb0g3yXUweil6W2CSaSBRVhUXUegQdTHB10Q5uSKoHdO5aiKTR+VkNE+uLS7SUugXaXHFBF8gL4oJAOr8PsWxXGJh7VKFWoOqivX1UnSl+gquhOA/uGcc/kNdqSoHVaFhqbhEqoBaQfAZ8qoAFtkc1RGZ576rTPUlKMOBiFCGE6nF4ERiQKSQ1Uq4qr7eEnxCKJiQs0n1QNFYCahFAJQVequJGmKqFqlJ0cuaQZYtTj4za/r0MbUuzBXhAwoCqpJwqvouSpQhkjRNM/Ls9Tup+nU+wSdUTUQUaiqhVA11R1s1pQBEeWFu5M1pR4uM5Mrxvd9dl+BLVGXXXkkBiKg4TdfsovSxZZeD9TLqpURL8DVlW8dSNcqoEuKNuCwRvsHdFEqSpGmaaFp9n75jYvkHKlpLq/CxGF9TNmusBFRicBRJtkQS8sRB/55tRvNom/xHEnyB623JoYxSJFYhybb0uSmXRXIfNWt06pl5o1f5yWL8jmoP0KL4D46D6E14m+eGD82y1UXZInxG5War4rTvjGs/8churYpv6p8TA2p7RX6OCCD2zyskwSH9HYdiU4VUpL+pnQh8QihYoaJSCHiEyjXEVE5EVKJAGQmlapSRcCIOEjwpVD/ummMpJVrgF0IhEPxMCIVA8DMhFALBz4RQCAQ/E0IhEPxMCIVA8DMhFALBz4RQCAQ/E0LxsyvWwW/yNbTAM+F1tPDPvFYZa+MPXL4xyhRItPEfmQa6+IkRClYcvN01SH+55uMCInLSwD9Turhnbfypt9EBAQ3MUKZ4RLd+AC7tnOGM77b1grsHPjlwfbEMXyrYbeKJ38Qs6DkQ/9DVsTHa+F6Fk2WBGtHT7jrutcfv3t1YfwVluhvswyfKReekNVy88bWozRMd8Q2581r1Ph65SIzPyf3f+VfDJ3HLO3uA/wgFK0ZGx5i4HokcWIPT2i7DPxPV8NcJ+FMtX9iUjnNHmQ0+x3sBOOgZ5oLvtujIiHH4ZHjsqub4UsIos73a+Oi276BJ+Ie2zM7QxPd67262vdDhsGrnKjP87pq7y0mU8aswAZ8cGxm3dfnufvjaid6X2+IbbrZ0eGhfmCrFFwYeuNUMnwR3a3sZ/EcomJFarf8h+Gdvxz+n+NWrAn5zU98Zf1BVmT0aZSI062zwOd4LgCrTkuA3NMpZoUPwpxRSglJNgBPj75RKxCijJgR/KBZr4r8Va0jwAS3SVWoAW2ZnaOIjqtTA16hSA2UKxdpAwoLNuiJOnNIytCpVaxaI9AAuO9cJU21Gl2gD+ToSFGpKUcaj4goc7myAr6WdmiDCt3QwPLJQMUeMD7bVd8ZHMXXDXPBJZMvjncF/hIIZqdVGbc5tXX1pOQO8zq8szSy0zJJzelXeZhnrPtOoUpwjVqisjJBVoOJ0qxQYFIs1s3OJqLJmZsXn+nq55dXPOYVY0/rNYJO55Q0AvF5ROLiR6ty4PTUsgQ1Bg7ocnrKmJG9UlRRRBXX6AYtxBAjp1enFfun7Pd3rz9cdUz76Vpt9ppM0EvdVGiSPfXzcuce5yHU1H532yz+Q0bDr2lzp2Jdh4ySPt3JD6xZnaAYnm07XBkpSIzx23rb20wMyZo+oseMFkYy3Rpl3QcdX2CScqCJtec4pfLQi5Jb2BOvizHeDuy3GB9kDpi2vN8J2y+wMzQtJL/vU1LmyckaborNPjcblnsmxbV4OoBmh4an2w5wKD/5Sru/k1PYvddfXWrL7xrKG+wp7zWhtfsUU53sZ/R/24AMg54XhG/Dvf993e5EyGloKpUVLMitlEylRaFgJJSGpyKgoWVEIFSoNRUaKFKUppSHaRZuG6p7/L845z3vOezzre8arc7qulTtOS7RkzXHsDJT2yzzIb28GNM1fwnFytp/EIBjgpn14vprB5OYaTwWzRmhs23EOY1HNpNTJ+hPeMd5qMRkEl8joFs7YGl6Jzma+oLZrLXxi6PzIJ1W60my0LZMbnQoN8qlloxYLFvTOBt4uuDEC/DL1bBlKvdBI/KgIEkNGtULW9EB30QnHDLA+PNNAe7SZveaoumBy9TSvA5Wxn5YS03g858N3vw6fvO7V7WcMAo1ahd97COxwCtLxnfWePmmccvvrPIFJEgpHZgHJzrwTk7yNNrzVnuUHLEuaoqB0YorQO9E8x8jUj+7+W/IUgYopMlpyfjoM1c737KnXpFjaLW/ils5YFWT3LEOT+80IydYpd3aHPY06uT82a9GOy6tufip5tdSq6lmSiB6mFAu8HwGUq+xxUPQ5fc4CsI5t9jo9hbfROBxAusXhU6Oc1mCkCjOXHJu0s2xXamfma8OZdJ7bYzAowmbiiG5GyY39rdlmHr5Nx6qJ5sbC06cjDyQ7RY+pnvacF+ScDIXRFR4uc8v2pD28uHE890Ld3arPnnjr8hxdFD1uUi7QqK7buiSlcxS7NJ5coX5v9tqSSR5A5CYuda6Cs08fsNVQ/Fn7c/n4iflkpRg49ler+IyYwuw69day7ceNa2TzRml059hdVO7UejQ/ak6ffPmo0Oly7276cL3N8kqeQjt0tJmraueuCamn7zyeNcY4Bri/aDZXQ9Wte9Fvxk3Y4okfFUFiyKhWiFwLfZVLAO4vcnOY8cA/t5TP7tl75/RXmOc2W4J4JQOgXKVQY2AqS/uR9CXHDMpHYR1eZY7E6tnvmYr2l+ireLxVr24A8HaKUorkcfc4bssmEQBRa0Idzm+PMzvslTFVLLHV4VL5jjHAW6vnfEWapcqlfiE3E6PFtZ9i7ohwOWcezd7ltTK66qFPjD98Ub5ecMKL7TR7vaXsLfd3OvX1/CufvFna2HJ+b+MIAMc6vCaNFTqpDSRYdeQa1UnG2DaJAOYZxuCccg+7t6h1qtXB1+Z+Njl6rktmP5+Bn6TPDdvYIZXYvLst1nwl/4DJS+9q65Lr+89o8m/kFX7/+cV4wNe9dPKSeeby5zbB/lqxwwYHnI5/FnYh74uWVMKkM2YAR2bHHrgxT/WonFu6dMwWbY3z0zFoVdfjfv0QHa1xd2HyoqFXO17f8EWjGFCgVTExWHP6tYTEj5NXXb78MHbH20dtygsDNfUZVO3HnSmjvPv8lxY0uI9fOS2NRy5Xe/cNIwaVb4d2hrJ44LwVGWOAxOWv1RqU1fYvuTzJIMoCPyqCxJBRrRC9GvoqlzDInsZX5T1tx2lsCak5n/oKxs4L1XUu4as5+0040/1ndwrc980BOLKbDwD9BpGT9ZTCEeYRO+OME4C6yXZncdU2jtuySQRA1JpQh/Pb48wOe2VMFYsdGRW+et0soHzbUxRpliojp6ohJc2p8AUW0WKPXxPdJWVYJ6RkduGJcXPj1PKS7JuuhlHRbb6soAS9Ue8FEpcnHqv5ULE0dxSAsNennx8ptzoOJFg0dM/OkY6xbRIBljHvA3B6VowG3VTlJfcbJFjyos/Uj67FT/ql/Owb5ZObnVoTbZuESSRXjLFJ578WstZ4y8spPayRAI77vB015jK32WU7hG5+Hya1FfZlWa53K4gXJjodhVSAI7NjD/al5bVLXbfQnHMq6ViOhw/ANtAP6NaNUJm4xg/GDWU5M6rk5rQV8AINummTjXym3wh/hNmy16/ei8txT8PuttUHXlEAjaWH4SXkejr+GeNpdtQdXrlc7TX5RQJArfwLValpSgZrASSuKFHpk5XOW2jIrAjHD4sgMWRUK9hch77KJQyq0aXm9M10caNuCvtw4s67crWALZJTH+Er0/VryqbY7Wbw9Wpf02AqaNETCH7o3ZthyBPINFtyWGZVCIAaVfmUsf5743gXPTQBELUm1OH89jizw16ZUgrx561FF7ueAN7axPMWGaXPfj5Tb+fal/fvvCrSXGuReFhd7uTsW9oTVkd7HI0TNr6Ua9JnM9pxw3zVmtZqnXdv6UbV9/Z21DYYe24EmJatriE3ZVSygKRll6ZNjbJY/aheBLCI8V/Ap+AcWj7+4YKKiWd2Pp1TMf2o9NLlCR3VFCEloH/8lnVbCyuv7kukLLk0M7U5jnF65anMFeNmzs/SO0MXkQPgdiJo2gIVt5U6ZybMFH65l1iPg2nvPYOz9UrUaGmzAHAmyITJ2XUmJC5flCgxafMzZzXbiwBMee88n/lIVtn5BEzT2ip1A1wMC6tEgWKtCoqc/54N12tkNTWuLiireKdZOslMYPNMpy0Doy+kpPFvnuK84s07A/HuJ7ktS3z37g68t+g9LymTYXBz7Yi3owHcXert9WHShMKw3WNvT8EPiyAxVNTdddKLkNCU8jYgAMzVOIXQzb70k2svuJ0433TMQ9mBk2ACoHzNGnP5mc8BsbtzB4BH5x6wIOe7dsltg5eA/mUom2yfKgEc8NW23jXladhulwAA0ZZbTl/ZFr9CqyDjk1n2tnrZqlQNoFqZx609aPvZZ3MA2DxpfHfTa/bMy1cWnZqjechKcUqxeZwf4eZzp2Zmr1is0aNHezvrIq13vsjftmqedK1huvIbAtn6cha+a+OvrAHuLr2oqXt8gyLvexHgiXMxpqSZFOVqb7x2wrVLs+PuwYyUi/Fy1c/mcS7bAf0TG6Bjt8ksYe0OAyaIwwE9JEhSdkpG+MOLgGEqwJzYYlxdMuKlY5ou14to80PeAIHMdbUv9JnWBa8EAXCmlKukqUsUBu42eagu7DfD/LHlBeCzqlryrtMBdPcju3lNn7Tcs5F4ZVKUMRPI1q+tMJV+5xDxSE5pyebFxMOYK/cmr6y/ZP8JMB15a21R6ZadRl9KVwwYntrlLDPGZ9aaV3axUy03e3u0TZqdiEG508dcOFHnZ9UuPSMVPy6CxFCxIEWEKSZawZxYRAVgpeEGnLtRbhzJc2MzbdOTTwNf+tZfAuB8juXnVnPt7hdz+/PxLWv2SN3OFrDck2u3zwA8a/Zzt8yr7UtYDiDZvXT5DlFLycxUfaBj5rspuzMdVWKS9e2Dd6XtFQ7UANBlWBw5v0lsDDP+0uoBy578Fd0toiJBZ039exI38r8fNabp81ih6glfvN65ap566ry4snYR4vcrWNoM+LJ9nkUsXQrU+ovb7WiMnASgt06St2qMWB19AgVAr0XPervLH/dyF4c4KqPq1JXFy9ZdnCQrQ7St274E6Jd2WS/Oja5GXoVqOkGVqicBrpLDIpsti8/VT5jsCJBVFPnPTYIyXbfu2WlJo8FVdgu9ePFHuhwfjmsb4avkg58z2tN3dX4Ulm79IhddsF5sDIAPbOmWDqXGUyXR4uYCAWa5wdoHlfcLAtf8cx+lCB6uCpZft73B9DNb/0nb5s+2iv5jrj6e4aByIk6l59nonr64zBOmddTM8NL+7YVFDOUJ4ezx3rzqTjvwlfe5T2r3JNEuc8kKPy6CxFDxiQTYxAe+sUJA092TN3QBDAzw8oLzGSP7OCSL5BUA0NcPfj7gC1sY6Hi0ihtf9TJGUAzkIjCohwEhbgzq6x9BbXi18JMwD4Cej33qBAAWyQWgj8qDr3oZIygYRDJ48At2pygVv8EkaCAZPPiml4cLv8VgCuD3+gle/Er8VFl84++ZNgNonbDfURj/2xcaD0AyePAbTIIGgEVy4Zv0i4/yJuCbL2xh/FUDvOjho/UyRnBILgxi9QvhZwymAAAWycXu4hEAugUpQC8v6wuHSgqT3cJ0uigFP2OzuT+6Vj8UwVfkZw6vAMoq/J7x4sdFkBiKCrR2ncI/pXvLA64lITT86J5FXAawMh7LE/D/xW+fQyj+m+amPzDFr8SvNE7BD4wgMRRVvZ4+Dv8UzsMo1qhTNAwNHl2iIi74/3L3oa8Q/os4JUwlYfxK/rkjUviBESSG/WkwWXz40yNIDFUtY/Df139vFYEfRp2AGPB2POgj8A+5/c4dfw+nmKqKv6tCjge/0scYgaGCIDEUlVkvsJu1PIiKv460X7Dq0ecRJvjHXOQTZsdU0rwX49fq15vuxV8c79t17E7MNPzM+Tn/F8ZkTxX8Wwzcz9FSnYTKlCsizsuYT66/d7LkwlfFyeELVukDqL1THsJwKOHaa4ZvcuKD1fbP4zeq41OPABo2N6xZrAag+9SHiwS+J36ltxe+72ychxG+eavTna2H77NUc8dPVO134n+Qthn3J2KIIEgMRU0qK86oNteMw9+g2lW/7YJ1OACyS4TA3xG9u0lfp+/2nVn4tTZV4wj8xZrs1Dmd9+fgZ9c9GteLlqetPi6N72JQaPg+Npsb/wvuJb8tAAAgAElEQVRzU7LIe40CqNfbRNFf7Ulb96Dm6gYM+jRZ0Oxh+ws5vNvx7Niuz0ffPDy7HV/FrFsxvj4maUlIztVZz9C4qHJjoswzLvKcP+2APb6LuZE7DN93d6n/HgBklwhxy+rRfHyfimwyfjJ9gSd+5cCxl7oYIggSQ5JbzwV/v8pR+IteGi9+K3PbK7q07yYAjWvvCwC9NZO48Nelzk9c0rf5giC+qeYfC1atAlE+XgDo/SyFrr5xKOvVuZQaDXapjAi+WpbUINXgGWEbQqB2HA+ABlEBgNUgS2AQeV1FYhwFTUxZerMMgBZiNICuvnHoO8O7SGQ0BtVKcDfmSkiMBx6vuzd6qmB11wTD26dcriZYr3qrccwZg1rHn3AKcHUJKFsgfmIugPiVj+bjqy0hJVMweYk/PkntPgyHy9vProtqHPtomXUIBb/oZI7BoA72aADVHC9TawwaqJjEi98akPSzB1C8NWg8Z+UzLnzf6wFd/IRBoeFXylSy9TBEECSGjP40JkdH8AWToCnL7/98ISkmsiuH4IhPfVdKLVYOa9LvOy0E1BRSuEzevqOKTy9fm8OecnkOgCX3tlJ9i469DlDQwiCm86eumY586aqjq97ObK8Ana0nCXxQOeiS9mXye1Yb35qqCpc2H8Ok4CXToaSV3ffsqU9fYFW60MsR+rdX35v99ihruYkkAJegeilg+/mSUX43poa9fLHoAOPIwsJDqZbnGt8zKTU7fSMP8vMezzNorZ5+WCn/xa25mw51NX4+7HBpE7DvOFgvS3btO2T4BPPSAOYHGSh3N57csyK+TG1GAo9Au+JBFwz6bPdcQzP//CjLgtHCx3WFcGfF2e346qhH8FLJqex8rk9Sbl5YH+4S8Hj+cfNpKh0yDiuo+KYisO3QFLsPlKoBvzUNKSeJ8jU3Adymp1THPZ5G3N98pfp9L2m5tbGQUnwgbCOAqa8wY/0uHYKqcaI4yKq70x5AWw4Zr7t4RBZRzaITzi25LC6ugupqx7GeVCZn1JWR2cfb96yompCthyGCIDFkbKxU6nPJOD+Pfdv1cOTzi0kxkdsuAHrbtk5VYE5LajKgH5VFzXJFvhEGdnNa84oKPerZEsc2AThwYZ6u0M49DociX2gDn42rHlXs9nAYdWOFp09u2yKZuf3OukDo5hXMe74N5y3yTIInC2v0K2RO3ZQ4eZtQyeRaC84jY74CgSurxjyONb8mYb7Nn1opAyDYqU4K2H6+8vpRk6dba5LMRUtfJW+i8r2vfLpm4ZhPyRc+kind+nVv5zXfuy68Ym5P/sn90ye/ys1SmKArvdgM4esNWRUfdl51FdiDr9iKq/z1ch7N/yyt/hyItnxowuznBi/2+YnmTDh24DZP6D3nQMSvfGAKOh0C7VqNopIlDqH4JBmxEjYR19a/U5+z1yjv+s22zBn4qlZ1Ll9ejk2xV038iBwNykWYz78E4BhpbbvZchy9/XT7cYMJWZPi9PumDdwM2wjgYLCpocGceawYvaxD3oBiORVYUjqHLFJ30uJbxh07IyUkYG55y0wxv8PbN7yZxXyUMEpzyUBNwQf5bD0MEQSJoaJh6dMRaFNedQFBSU9uZF5Mig+SlN04oNSQEU8FohNvYlBw3lUgpc6hXv4xZ0s5R+LYJgDdJo8FVxRXoVZuw1Xgqu1eX6z5lDDqxgpPnxdTx1ucxVcfVVVNgm3nfly23WTFlGgNwOKttZ2QCrVUiVHTrxmu63+uPvjug1jzi8k1Vg3vEwQALEtqkAK2n39kr6PFkuK3bhjdpbB91JqP2q+FpqVPZBmc0cHOSVvd2sPydR/WnrBl0dbMM774dN59YzHrswBy8xyDHQs+mjeK4qveA7nhlA3Pb1mmz52ZgTxzD1uW01XlaZd88sRu6GUed39s9E5JNVsgdn3jSPgc4pr9MOat4NWSO8vwSWrTKdhERFnUKvtUB1fJH/by34Ov2q/atyvlZQbVYfeTDNlF4dg+0gdAoOfW2UUHNyqylihOujHLdfwOSdMrA5J+9gC6TB8LNq1+0TNe+YHmTBW6uAMFrzV2nUKoe5Sx4zn4sA65fAm5HX+rYbKzj+Gk81C0cXyyNNOossYkWw9DBEFiqNh0r44LrzUczyHMtSPw/YWkhBPiK2OB0wnpAG5fS8YgLd3zALPyCi2x4PqRRuaUS3MBdJuk8slzV4KtJ5UAnN33Vgq+Gfc13c3P73g9ZXF3Br6R2bL/LX1cekzt0v0Trs8G3kSe0XkqNfKNEqO2SfGcrf+5+tADbbHmAT7mofiJ0/l6KdTPb/V0vmEF3F/RMHpA8bxYXp970bhxaXMaNR9Nhfq8UwZKYb2Tt1e9zgHgVnO7V+XcAvGZSRiUFSp+Ne+NRaMovrLMiSQ72+xXxnocDdlUsEE32F94YgtLtdHM/tLj+Q9KXR8bvVMyeEqLsyhXRFERlXsFN+5sGZsyGp+kbYKx198lIHz9/Wd+VfItE/fuxzeZCQMXsvg35lF3Z56c7RKA7eJeABJr91nIHsqYCXQrhc+XOCo318+NrbnSC0CX6WPBpy6vGBojoqcG2OCrt5N2BiHU+emyNYEI6D702PRxXvoDGOoct+MJhqK1bU/+rs5KQvGlLoYIgsRQkWgfvoB+eu/WYOy73DpdIyQp9qTE1P10grXPd1K52KfrDzFofb0npaVxd8jYnSW3bZ/OET+yGUDZ6syRrqGxRre2mtwGkjZfNX1rJRY/bv9+/7Ol1ZpGj/FV6Obj+4AN14NjFFbZjnVjD6RfP5BcICuWoj7wOsvK/ahjRNm5rAyfpLz5PYdUnpmKAvSjPifEaPeiXRYYazsyxOUXuIkXxSQaLNVyuV54+pxjg+ZOS4nJ0xJMXr0v1fcauWv1YvaEtSK5mZ5L3MZaHhkBxJqP8QoK+mwdvEgSwP5zJ8TPOKyT7c816au6v23+svtP8kcAOOHmeiTT+OC05XOdqvZYh3d7nF3rJ4lv/A8rR8sB4XYLXWbXThUpsbobNVndwf/yngDDl3rqQL3ScolT3jpbgxeuqiyeJWPGudBZCDTOvFe82ez6QfWBUb17kpXnq2zQMjvz7sS7MgDlC08vfT4/xWBVbq7+QCDJtYQHmCF4//OuqlBVlwCcuVxcaerVqzcNrnW3p4+8jwm2OJCOdQWfjJ7JY4ggSAwVnGX3Zgu9XhujohU687BRgznf9fXKR3vIiUdzT1Hp5kusFxs4iIJuE0dlGDfx0ktTCvdZWq8Sz5ABmufVWQUExAjWjjhiAeCSC3/vONtdNzbt6gvdcGZJS+ACDDpwjjo7Ae8OPLCljBVKe/VpXVv6uoagCznxvkUO7DX6T/w8Anm8sl/YRU/alck3EDcfYJ9vYJKgURxk47NB8jgsHC3zxsZp5VMumqZq5ORHfAeOKectanhTGm43KkBxcTCdzdGtGTD+4r7omPtxnTRBdK57yeHC5pKkRfcAlk4tZ4mYrerdjEcVC4Jj6wgmRUB/EYDmkDeZa9pN1jm0Z4txeaxsmvep99AefGWRtN5JBSB9OzkjXPmyEnsECSv102V3Oq03C7rUFPOiY0eryi2JVe1KW6Ne7y0LjuIhxuWIoufEJfoS2wavauq6zCZ3z4i9RYVWLHY/+XwG0KLVJE7VJyKmKYyxuh49MP+yNJDn9aYLJ/p3jdqww+eytaXDB0jZtoaQ87IG1owJosScyjZ6wUN0jM2XxNBAkBgyOuL6+SxECp9yVE1v50/oI7j4rAaSqMv58LBCy4AV2zRmDRXgpJfxW+S9GjlaJT+uydu9JVIfQGuMwgJUJcyYxo2vqu6JmAkDdwT1ImVNWcVpezCIxb5T5wb0V2gCHOI9nxQ7Qt6AwhngJ1lczH4aP2NAgEMXZH3h5SGLU5y4KfidpdoH6TzoY4Pk5uml8YF9m2lF5wgQ+K0BGo39+J2NCECnEyAFGKf5dgL4woEABYPihQwp+DV2hLIOmzrAm0eocwF9bPDR8FWCoDF+rZ4lD6AvXGIp8Mb4+nyAxeLppfHhZ0ma1MLFGPSkZK0YvsQpayXqilN7nyxFc5xcb9qB8QCyCzkiRkXzH6i9nY/Sj/MoGMRJLTeTflRFfFmV184wCdTiJ0Jk5rIGeEgBng7WwrdVo4RqqVRYCWFoIEgM+/fIXWa8ftoI/BCap3LC5+M/YQHfXsaA/UlzDFkEiWH/HovuA7na+DG8FxqD/4jNoQD35qNCGLIIEsP+PcqSiHHrKPiD67vew1FbiCGMIDFs2J8JQeIPhcFF4Gckkxv/nIH3U/CvYT2eyzPARcPv1TdNFMV3cBhULgAcBo2G72EzCR78gs7homHYv4Yg8UeS4B2riJ+F3EgWwj/j86KKEgn8SwZkT3/efdoOv8PceGvfUXzH61kuXgDOHlh5Fd+TaDUjBb9wuXTYGcP+NQSJP5I9SY/H42eBu2NX4p/Rp9dUPhr/EtY075FzA53xe6TOtIv4ji6VZecBpFuYXcD3fLB/X4lfpJh4eWPYv4YgMWSUVswZhb/gECQoADgEQQIkQZAEfkYSGNT6duJofMPBIAq+ClJYDAIcgsAgkiQI/Ipj620OQZAkQZAkBQCHAg4FJAj2Y97ZBAkCIAl8wwEoGESSACgcUABwQMEHcdp4Jzf8LDPqPEkAZVGaAvP11EI5BAGSBEHgKxIEQBKWIy5i0FSDM0BXryQJkiDAAYUkQcGgo5erCJICkCBQOuXgYXzTTop3MsaCXauAYf8cgsRQkWv6adz60RSwVnXfmbDms6H+i4GDa7pPnd3qExo3InOdRJ7qhqoXqVfq07tVbGIquSxfstZQPkSSxGzdhWVsUvi6NoCDR2jCjvvdI2aaW1CBGDu3gxc+KS/PeoJ5+gCemY5hrPUOPLPpqGtMhix6VhsOZF58mE7Z+MWMS2Jx0zin+E7VGXcJNkFjhvXwnFgBYN8tsPmWJwrb2vRGhiN+z9toVWknNwCl9zB5lnqjAy2I1qtaC9GL6ymidLtjTUfucjm6AsyW6Kyxp7hL9414M+McO7KJenK9z7nSrJ5L0a01uqdiQnlyntqM8F4JwH+vFMT2WRScEhGypKh7HipNZpGaCx3iE54fdfPaEVkiiWH/FILEUFFq1+jKis4H5r+Rr/UxkxRzjfpSeMLPauShFaU7ElPn6x123GxZ9uFY5+RWV12He4c9Outz1q5/WDi+MNprK9fhhdEArm1bOGNy4Ig56Qkbg/hRdiXn+ZUgsae7m0jpkwA8fTxZviZrbDaGWVSnC6BHsWWdiNLOreEiIRay9uRNkYvBQZZB8oT6QCmXW1fA9rMAbCL2Sp0WcCgPfeVQvvlszJc1IfbSTm5Aw3QmMeG6a5I9VxCN5Xtwl9qcORI2+Tmpi5ia4UTxFNxebTPqetU9F13jo+bnfLzM9I+v91WpNF+bHLn+onjibJfugL0hm1OzRgC+R4+UXNd54Vz1vlzzpKHPDrXu3VVXH3Wu2eehLvTKrC2FD8P+KQSJIWNXehFsCgIYzJGiK1cfmTD+2Z6HJdc2Bc+ZsJgr4b1OpspCoWjryA++T45M7VXzWCl15FbT6rR6gdeawXPN8njluSsBkNrrne6sTJ8Jq5ICbiDLNQu2lc/dkjy1FQGE2ddJR25Ncm99vPy6JgDz3EJid17Oiy/amr522FSSXSd7xdaYE9F5hBVbpLn9LIBoy3cT5klEZhsUN2lVnrtElTy6SdlvCfApd8b1S/k1DukkAbxXfKkLPfWQh8euy5vF3WfOFUZDhXHc9gIzWgZFV/u4fIgZphqcMU1rEpo4OzRFYKK5gM36dbFhnxwBHL1cg8BbLyV8dKtGqk0Pb7O5P/2z8mYvjbmndEuz196cgmH/HILEkLH4YwGOpj9GY87zIIsoh+q0l67PcfHSyNQltATMmOHvVh9lHVkNr7t6909lNVx54f1Ru6ZO4JO0wdYtNdzy3JUYZKu266xbuSw2XH+rBOyLf0vYvsuMTcp0dQQQuqVOumZh9g0fy4lbMcj5aRE5mzsV6JfecBKbSrLrZIO3bqjOwKnncUWa288CeGlROGqeRGS2fl23NyM1yUj86CZpJzegLbWokPIo3jcXg6om7AyCnnrIw2MRExYkgSQAzt22xAdx2w1uQVfXTTpyLTRmnTFqLqpXXhoD9BaExN9SiL4l8xTA0cs1uO9ycJ1zIIBZtwq8XvJ0WrYXXjggPr5GXuYSGCQPhv0TCBJDBTmvJx8vfZJxOj1axdPagbxcbJ+bztu9pGMtJQGzbexMRkSHbn6Wad1kYa1mYWlb6/XRKO2xUbnmXmPrMh557koMmrHIvU3O+iTPCk4ygASX/FGW7V4hkWF7awWAFXdqhJdzMigapXkaGOSQ/wonzu1ccHPdPOEXoptKsuNXZhps4LuAo/kJrzU2hgF4bFs0arpCZIpJs0f5XekTlhpXZ00MWA581Dgg4pGbtcrPDUDVBLVYkfl6F6NuJZ7c6658PEIdTAVv+bnJlWdOL9Gbdkb5Q0XDdNcTM+h3pHadOSkYpPw+xliIN3YdngPw9cqkbx+TqNp+emyJ8ZK0Pg1n7xNH9vr2TOLk+YS9mtJvKnkTw/4JBImholuBZYK20sUXD4br3h0750W36auy+c11yh0uHlwWHY9myNzgndXxaFbxZIkuyWvL3kj0vTq4bhphlKbp5/7Efak+r+lJGTCU2hcID9xUEHiTpQugYPGcvmRx5VfG72XiAZglGD7juzMPqu01vADC7EYuPPfZuEGcJ0O/TmKl9u75heVzJV70nOELLHFtOYc4M3Rpv9snvlvGPL7anv5AIYeqUGlAfaa+ygOY2dDWpx6pTTdW98cHjTYKOIq6T5tMDukBc+4KAodui6drWblAr4rfuvmyRk/VZPn7pMK7Gq1PsFLbN477wKlyGKYCuGpLkKLZShe2AUvKqia63UqdUCWWrE2qb3Te1BeJG+skCsZi2D+OIDFUsPP76aDQOHPKOkqqNKSolH4u7n4adUCJXUeIdYAq3EkZoHJJU9+y1UTzBrjZ1A6WZV7/DdNllJwvQjKllAF9IZD5vXRurZIBzqipGFRbzSQEKqVGtlOUZAGUtzCpY1QA9dUHMOjlAJgGfJ3F7NGquQMsYlpRHzd3P5uHI0WrqdIW+MhRkMFADkcKTWzxLpIQ/8DhIVlcdJJ3YIQ2UNzKRYFaKatPaAZQ3gpQWHQeKpdyMdhqogAayyi8A+NbOQwuFq9KMZPgZrB4waOD/D6KFiWPLqBX0kGIqgJg5jPAr0Uw8lkciRYMjJQvYRNSikAdVaqelEFNLaEliGH/OILEsN968SDqqTSG/VERJIb9VsNNERt+DPujIkgMG/ZnQpAYNuzPhCAxbNifCUFi2LA/E4LEsGF/JgSJYcP+TAgSw4b9mRAkhg37MyFIDBv2Z0KQGDbsz4QgMWzYnwlB4v9UW4Ephg37LyJI/J8quOuNYcP+iwgS/6c4JBU/LJLA3/aJjxc/gHpBUQz7RxEkhopNHFH/1gMTyxrd5wC1rTr4+0iSgp/Q6xXxGyRJwU84BIHvyd9mfBTfFLlEiwP4FJSoH4xfM17qhN/pse68ooi/5e4BvjAVABevXp+Ev/DTm42f1Fuust16RhyDLi6RBDb036DhZ5V2YhGC+I0vkwPM8b9wSCr+pmMPoiTxe8UfjSn4aoBGw2/Ya2wHPqw7p4zvutuwDb9XczYQPxqCxFCxPDtrt77qQsX2JANg1ZcH+MkAL/6q2175/PjmsWuWAH4txS5xKr5ZJXka39M/YasHvuk3ipAHYFU0kv0Sf5FH6pgr+OL3rF4XU/E3ZK0wTw+ZgQHeHL0cHfyiU2G/G37yWWPnesU7MwG0qq4+C/icb+DCz1hqmjfwW6zprhb4NQ6TJ9k9m5sugF+UKPLit5IXv5uA32HodeaOxld+iWl8+JVyZdcTQLVC1nR8l/6ME/g9zwd5+NEQJIYIcqmjqerCI/spd1MlgX4aF775aC2x1gRAL40XwAcRATwbL9dHMPlp3XxcFc830MrGjMoTnMyi8xOfPigTAOokaQAKb7mPbBfDoDtChvjqbjLroEzxiPH4TH1qzIcPx2JvGHJqZSmg1yUtUwQ6NLmPTie4x6CTQxMh8Naa4UhW73uxCKgWFsOgtyPGoKNZjv9GSAb6OqUAMifPpkZ2RHfiAjFWlZQABn3oUuCOtN5or4+oC9MWmWQrcUaC3ioNgH5kgX5aGWsXga431pcMX+S8H7/ttE3Vh3VoDYwoO2edlbJwFaqlufb0XsCgJ+MmMwrE3ppwAQ92HjXHoA90udZopzopasx5o+1pqyKOeWpzFJ+kqVniZJK0j/w12TkAyDNCivlC6tGLzF7I8QFksgkX/gfZz/3Fv3HqTqC3cip+w97YAqhWyJqO75qtcwK/t+N5IX40BImhgkPBgf5AtGi65Ux13D6PHkPYrgZez/arec0myG7CG6dQqHg/NkLg2JmuNipv7aTQkz1bLtczfR1UZpXXX0t1E+ZfKnuWfLniGgXwa3V3ZfSclcHAXvVpnkr5sgGzSg9t38T1WkMrlFb6ZO6O9Q7lTW1HKnH55a2uskppoFxloluzz8gjG90q3lt54N4SK9fCuPfdpYxNqePkzqjgQJzEocfhdaquettSA681zbsqSNcUvjdLLnmNYuc6t+eTnLaC7pjcrOMXHyl/3BibLk274iybohPvmF+p46sJrLZnbZXMNo86EmEcl1K1zThK8YXeOMYyZ6syBidP3YHb3WWtf9OYWM+MpwRaNz0VvPnkwejkeYnht/N7E5YDHMdUtob78ok51hdUPk20KLo4r0gxV7Bhe36cCqY0njHxeNk05/hEfJ4803hTCJ/XFYtxDL+l1+6+Fjr1IpNF4Rlgui0EUo7P0LQMVpqN8p3L1AIU269QkHaYa+L5jsAXpWFL8ttSgmKTWlkhT9lRG97ljpuSypEM9NC64zXVM6PW6hi+eXx0fKBnLZOxeA9uh/f35OBHQ5AYQuZOO4lOLR1mxW2d7RP3BenLAHkHH2bNMJzbIH/gdIfnMtG0OEsHObGtMjLPxkrfjD/1PmZuRrrWsnCh+NtPpi8Om2SktcNYrOIlN+CQFj3f+7W9PspUdkxfM1/kdlpIdv3hm7fa73XH3by5SnzWY77VpfvEt7pPvehubhguD7ROu98x95r08gc7S5bOccRnxT1uF58dWmGttmEpg3FYCcbU1WnxB1cfTr/p6z9rtoDgSX4sbnrlE5mqtU5z1wrrs8vWIW5zopAj1Tn+OoD1JQWEWad48lNbHs2udcvRJpVMsU7yT08yWuqp9+zt6vTzhakuW+evmx0ZFX+4edq8E2qz51RrbaheNj4YYEZImwe893UqfR6+ddkuK6/VQMA+V6MoxxmzBGrzJ/IVhe/o2EIJCdnyPHaREXD4fIv/5QvZB/3cAJ8c17lB9WKyVsuoj15YaB92l5u4YVXPk6UdwolAi5H6hTkpo4B+ZVNLo426dkB2aPHAtUVjNVNzboYa5JUlOHWtYEST2J1moUhbvt6yeSOVfei+DE/pQh989XEhT1WmU5pZx5cU1+dqsfrP8aMhSAwhmwUC0bYonWOcsY/hvajdfh+Qd/AhFm83bbTIOrVr+g15w9PiK0tPpk/Zq+1tLHrz887mk9EyQRfibFVt7824uuFkTrBaqpLdBQEgYW1r8F67C1yA/uTA8SkyUulvDn/YIHgO7C0lL8trmGs/CBskbtm4EDvzMqlbdisCWOQbHVvB1j/y7nADF0DKOO4NrvXXnst8nocBXqDK9wG9u1JmX/aauIBpUSu7hCjY/bj44f7CEz78rbtPMpgCuLSvidfrrmfCdQAhsY+xbK/SuLs+oSoMKhVtUndmG2bfcLU4XSGreU1ubJLOZFkr6zEnrmzZce5I8+n6AHnT04E5+TX604IBnDv28dJig4LNSesupRpumbkWcA6pGdPXNDuLd9Xztf3xCVs+xKWG1qst640DEOzdOlM1GLKb3IFWY+58HU3/iO2NT71SDSNmZITtXlAWc6z8VeJxALsnGJnmjwTgSAY7pRidB1Cyq9nf65mA0+6j4scqJr++3XhVbewmE75cO81zlu+Cz5L38hUW3JH0N1XDV81vetZ1PNtZ+tJ+2e3XgpvzC/CjIUgMGfQyb74jEypVYvVmP7tznGLfFlXLg6Ile8Y6GV+f0ta72WGFp6qJX578yWjfNw+nhRjKxjYcSs1u80Tk3Wprr3sz9tgEfjF2cHVccEsDrBMnD1b0h0euBVtnvJ+BM/+u2I4DF3nXyU4slCxMfZLHFbXU/PDW5NL5TWlUW5ONHm5AyxSPT9djuQ9Ifn70VB0g5RfsvPrwgp2aia3RuNdRk2FmvM/mycQN6+y6Clw3aMvl5YrC//LzG0dkJxCFJsGr3+mdQ5jdKq4Yf36/J3JAwPEb47Zv+Lz78S6K3bVd69E23o/fKSMkJsZKy/TcwsULzOIWJydPldxe3uSfEZqbu++Yn6bBrlH0xK30NElcsQe0FZMvXn9qmnimIVbsjB7qNOUVstx3hH469+zOreC8HRGUa95KRy/NiQUQunkv75GVU/f7ugGwvGsab3vl/qJXVyKTrMZ7vny01eZe99qWyxfyR+PjfGFXs8UGe9G/NnPJmL74WioKtEmlzednqpzZmkM5Eu955fKiA/oDm182GLE9lq/2rBcQMmK42axa6s5YObFmPYF60znh91vNE6UMt51banspv4QHPxiCxL8Tg0bBf0z1JCY0Xm0ONaZnqAiMtorvX+AIvFGjGrdPjFh6l0py4J6bSpCEeKIx5dQ2RaHs5RkDSg2zHVtukXbJcaWNe9Pt3LamrZAJmpmBwmkCgm2yNjtH4JYV74hma75QGavjKMhPKDx+tsgso/1UVbxkVZ/H3dx1mzZUgeB/oQ6/fRPDvB/DKGhd0YznAJYlAULqWbjF6/u7hf4AACAASURBVF66MEYACx/wPhU6kDjLy/rD4pl7ofWcB3XKIz6MmN4svdHkhNfoh5r4dPlk60Hjeaxj+4HNoQCVQ8LJfk3ZnHMqnDXxLF6Rc2EvA/LDBhToXT0rY+e3vH64mO10s4PCmTfDB1SKdZpICUlln3HCq6NkWpd26dZHbzauWdtG4dxZBix8oLXPN58gsUwhEMD0xQe4CorXPZkL4Io9Ltx+MnLn1tEAYmJiDVzMbCJcqu840k6DEnHrnjar6M7pJxUT8cjU+qzrHfVUvNVha+QyF9wHwuxo7HFSuSB4dTM4BJVNTi0IdgTVsEKynoXRJiMPAA9fhNcR5DS+N+9H4eEiDo01vj7ASPfp0jZQOHt98YMhSPw7vZXmx38Ms4EkeaW6WnjBZIqO5MI3jAaKDL17TFsXAXDEmV0EQBn3ARIfeJlM4W4wqRxFKoDeVllKd6cM8blVhP+jgCTojSSHypGnAowGkkMR4W4lhLshzYMP4t2d0i1MKd5WgU9smZ52GUoDnSC5xhNo6SZk2Q3kGOGGAX5JAF2tFJJ7dCNtPKW7WUIQ+NjLI02w6iR465gjRtWyRUcBrHomlUeqWwRg1fGPw6CWHlmyniM2EmjrIjCI5JVq/zSeB2QVCCqfwBeSj+iii3DodKGxbQxJVj0kmtkg+UU+EuAI9zK5AM5oEQBkA12yQ4jxWUz0Qx8BKR7gc6sUf2cHBaSgQDMFJN/IJoGKAGYKBnW3EOP7W4TG4avefvGPI3lbP4uRHaMo7QRNprmXi6dPrqNLhgtkrZgQWpmSQCNrbBNHfARAbwQpKPiRQnKNacIgkleqq5VCyLYLdBOkAFugniAl+Ds6KRzpQotCcbDqSYBNiPM3SnzkABwBCfxgCBLD/rDuLTnkif8av/AsEfz4CBLD/rA6XihPwH9NK68whgCCxB9fHy8Fw/6TmDQCQwVB4g8prcANv6hamSyJrz4d6xvhyYPv+hjkMgb/W+3FvSPxaw0njRfjt57G7JwEIDXe+VGZgyZ+q+bMiL28+J7Eh1TjZUBa4k4F/Ar7qOEMAEE1GhvxW02Bwnv48Q8Z8G/hdx+J73kVZs8f4iyJby4WrzTEP+Zesr41/iqmjdbuHn4qftJ7TM4BKL5krYMfEUHiD8nnajV+kWZSJ4mvggtnc63kwne91nijgv/t+axqWfxajp6fG37r1ZzwZQDyDW/tk78wDr/VqaqViO/JWHX0iloo4OP5ZC5+wfg8ul87fCqAfX5RFvitHu3GWjH8Qzpn7bh/XhLfE2l9S+hotDS+eWQfMQf/mFKL6ZfwV3VLz99rFbQQP+meNPEpEG0Zsgk/IoLEkMFicWhUOo2LYLN4OAwuJqhcABhMDg+NDhqtj0aCm+MxcSNYbJ6qDh0GBwSVBqC5UhsUNoVrQNXbBv0cCh+HyeFQCZLggELhIhncRE6cf8cbLQH2AIWHzQIB8AK4djmGyzByEsFF0sHbvNXBiBvofqXDTQcPFWCxWRQaF5vJ4q0WFKVwM6jvJY9+uM7kgMLFZFJJGskhuNHPFzTFCN+Q/SSFj8kiaASLDRp3SFpMW+dEDpmrnzaPDirBAgju/K1e8yrUqP0U3rplmUIYNAAeFpsDGjfY1FNPk/AVm8nNJLjpBDeTAwqb5FAJNpWLxWFTqVQLuUM8FKBp1RNeJoegsUCl0gk6hYvOy42vWKxGtXMrW5ToHG4qk8XhmXNLmskhuMFhcDOoFCaVwiTZBBcJbgJgclhMHhqVyQY3DQxu8w2LwOTwMDmgUQEw2DwUBotC8JADHBpPt2SY6XONcQySwkXSqVz2ZVkM7pYJftvYTG4KfjQEiSHDN1iYZZpKpD+MzT3e4Xm5Y1+gPZDizRzpGZrFlkpySRbou/Lk1KiFs6JeJ3sSD0wq0X3ABcCloIc7csbWrVy+SNi5/ZE4faPOClHhjxxK/yhWm+Wm84l2xzaHTmJSH9ffeNU53WEHs4eMmg5gwUONCSXcNJHoM9eFw5yzRXcdBKJ2HeiO6XbeAeyOlG0XOv3miBy7/XAgzwvzXDIp92i92XNC8da+Vz1Mm6y3oy049z59cD6Gr/q8H3ErHVvc0687y1+CNTpwrpBMg/2OvY94y58lXSNmaZ4HUyJx47Ox4j0Hs1+2Oe2dfG0GUB38qNVPwFFiQOz56/3VvWSZCMCJSMhcXta+IX6Tyo5GqmEOj0j7F7GOuF0to+vGLTxBm3RVFdlm3WoDHXSbgXCq2m6fxiUdEoz796cAKD7QTC+JTCuy9+cxMNv/ZeRpzxuF++tG+8vdTJr9QmHhwWmHzIUEjRNasc6HH1fdtFRv61vYjsPkmDj3jo6QtRej6uPjw9nBlkCMF33GUduPXxgxVYfF3u/ZLhGwfm1Eo0nr4p1RCaYh9m/HZR2xGXd45bbUhVYL8YMhSAwZzk9vGJo7rnjoos79IHja6c9x6fzABikPyp3D177Y3Yq+cevUEhtZ69UeC657Cu4pnNR/duOm4wDSTNq849IjcuLGOS5cfne6X0jYvD3++/K9XBT3rXHmeSEQ3Gr77nrWtlcOc/0DXFO32OqsDbQCYPKkVHb+6S8zM0/YPhZdrL3lAoCn8w61de8b0AQibF7R1xhJv7rZPOlO6o03XnNXPWGWWaiJcvHrPEg1clY0l2N3tjzkPc+Ix1cNevcnNWzpOfUwcEt4XuLOvKjaqBl6YgGXRhmm7O/m5pp7ylVi9z2PlorKpRfbF2zoylSNnAbUHLV1kr1gkNzimDlj1OXAxAohwPfwBKa0l8+jkHXao3iqTgUrndWXCloYGlCSe2PLjSMrvCg0YFle5Q3HG83HD/BHGNWE1fiV3TKXvQHg9LHKap2rd3s2WM2Vptf7q3LPS9xa6lZ+Wy9rbofVqcezeiomrThx1l+PzR3BhTp502Rbad2V2WVb80zNlU+F5m2fPOBz/xXTxxLYNqEhKGvtJp1tSrT+2yePvNmnM8m+dS8Pf+MUGvNxkn3lVdeP2WOP1QQqNpncwA+GIDFk7Eov8sx7YDpzadQCh4KDtwUvzAbYBvuWYSFvPKZPp6bn7VHYIuG2a+cym+kXl2Uo99epLvAHkGbSXK9d+9ktSewqZXXZhNNBYfMOHr6ZHnrv5s1VcjPeydi02tMTX2uUe9Cirtinbt66WydgJgCTpx949e/2qr7033t8itXkXacA5OgdlI+gbFsBvJr6wHTBdCKmJNrygaqOsLeFalBN5NRTGTNRbKjWlf5m13Na27z70jEiJtXyAD7IrYiElvjjPN33Rx1LNiT237llME3gxbMImweHzk9tFVjsOVXxcXxII0srKn6au+h+27cCAML0vfojFdMaHE5YuR89H/BaCNiTkiAPvDCwPTlVLYYHBwYCDEwOLj2UGF3eIRV9zNkCg1R66q8FFp8+U8K/Vkl3QX1JQNouwSMAAh+mNChdFnxwMdtdpbf44WhyZuJmlUOvNV4neDu42WacOFs/0eKwlkwcSALonyqdstXAYmbGvY2JezJ4zZ0zPp4Glip6CHADncfbpXwkXZ0XVE6kJRVr5Nt7MrelzXumgtr976QT7MtfpHpnjLe6siqko0kNPxiCxJDhmFmkvNw3qPVFhmBvit6MMY8xaMc1MaGudpf38ZkRZ1+uH/NEZpexFs8Xqeg9D3X6qtSMzgC4t6y8wbjMozVGMdB6/wuvZUf0Z+/1Xfw6d6V0pJbyTEehHsN53rOW7nx74/DjXTzJ03bNNH41AcDq2/M85/ibaDzZ2N/Jv8+ba8kNAjl6uwcmu3nsB4o0HZUuJe29XZC9/ZblzmsV1QbPSo7d2NjFN2++Dfg3r9GTZfN18mOAm/vTDk+gWaNFbK6qp9N9vsdrFoyzickreTBdQ/Lg+O7PMp95RPn32j9QUkx7u1Z9zcGnJ58xJglkeHkDBfpj20VPWp4aueHK1aJx3S2m9wkU6Qrwma5w/NQT1HJck+rnPPuMfv2dmS7C+x4cf/t0Y33GBACTet+48Qe9mam119j3k1/l5Yzs+WYOVODKJoXOjgjaNVWp+jtTY2VYwQHXDkXG3rgr4XGryWfD2FapBxqz7lzbKM+SSxiJVtlZGn7ei7xibgcFm5pw33z2+qDU59231C5jkHX8kjcp0zdrrJvPGIg5dib38ALCIdRO7YxjT9/hPRVHE1975mdKuqU9CsujnMUPhiAxVPRM+uAa/pmLIWMSbnN+y4W189dj0Efvd57TKk+8Od5nSfM4wsrY/+KuHz/TJC9OsZM19w7CrYFtl6UFK9KXtms2tO/x8U1Y4ul6RvjobtL/QN+OSGPXDXPOOxwwVpU453LIqVb2wuZwU5kQpWIegHmyLFCdXz9i93qzrTzWdwLiJgC++91lb9oo6wJFmkp77O4vhqvGOtEC/o/q/nsv+VbFL0vLWta3bAynfK/GHms1SXubG1K2mRl5vEB1EGWVwTOP+Q6xTsvNbDyCO50vCj5NeaYR6ynv9PJoZ8BJga0PTBf06VxuwMAn5hOnaflAX6HMcYWKy9aGGwwvOPMKvDk3HUDeCmud2Jykedu2PTYiahbIROhIzLk0RyxWb9Fm8TCnwokAppRq9FWGW6ev/7RN1+7TwYTa7JWVLgEAJ+qItb9r8Ie5BWoBXQURWqUFs8PW5igk15kJBC6Wk2OI+iwSvmJyOsjURRHAtcOa9CaBXB4GW2PPPs3u7JdHYuZtXd/n7QXgZIBoWaor+4ul98YbfLJ30+25Cfq1bvcBL8P5SoWHv/jxrD547oxOxKL3MsEL8YMhSAwVzJR+rbfdgJDJ88kvpT0LciXwFUlSADaoA4+ZBq+6jTpzjHoZYxgF/SwaBvhY2nJAWw3/uMxZL/vmNb82HE0yudGayZZvYso2f9HoYehXjc/S5q/pZ5ZP1CSZNErDC23hdH5TKoCGkYLp/aK1kxQLDQBWvTyArHo16dcGGHTYa+FNEWZq7+yRD4TnAKh8ZVD2SV8K4EzsvtHrGq/2TI8HNeObR3xSXX6FAoAEAbBoqCyUG5dlUNM8oY5iwl2t8F6eUvR5TvlrWfG8uWNq6dQKUxqA+pfic/FVB9FSPK8/e8yc3h58nIpBnEw9nmQ55Ux1YQyq6lV/OopSOuFseNJigPFcnxdAWscYoklPDp3Fc/pSSOPK7jmlxYajMei9TJZ+VrN2m7w4wKY+b1BXZj2crMBM1pRB7niR1vFV8qCATSHwFYva3cvIIwgImjaMGnhiKvhChSdlQGUKgDaCL1V76VVVklhVdVqPu6qAAmjLvH23iJPymaaMMtp8gcefRI2qcyRm40dDkBiS8rzWrsX/pcvuzPej8D1Xtw0oheviF1VXDnHhP61vSs3KWPx3PZ6/8txY+syyoI1UDCUEiWH/X9oY4yj4Hk4zS1AU/11kM4tPDP9dpTeYG5U7zzB53HgxlBAkhoyBeiX8Na1iFPwN1WLC+C2SwD+MbB2D/5aPHVPwf6mnVQF/bASJIcM/Jh+/59K9dm5rQMTdafjrOpRXncdvnQ/zWIG/ojZrprRvMn16IBXf7M9+yIuvLuRexd+T4Xbxbelh/F7lO1MqfiVTeRR+h2OQXfBJaiL+orp3hMVqZ/yP+lYt/C03Q8Pk8Qu65RjvJ9qK+B+lDSYEfo++umrJcQBMczIRYNyfJo2/q/+hrgS+qXy3kMBvnJVfhB8UQWLI2JVehL+gc1HwzS0rpHestArjwd9gzHUfv5Vg9loN3zXAG74+erXu5VtXi8bgm6iEaACsPuH/1x58AOTALvzj/173ammgiFL2ikqRSMlom5ERGWWvRGVkRNkjm1CS7FQSySypyMooiTQ0rEJT3eP6xTmP8/zPec54/++53+fmvj6fVTFP8BeSSnX8sSdDn825l9oE/2Cv13VL/Kaey3UyW41/dGzdvQGTFgCgdYpoMO71nt43BuCvvkqUY6cfGIl/4YXjTT38MONhgKNtAv5m/Yr7JvhHEaE6N+7qAhVGRjFA1Kizo/FvRbhddMR3gwqf8/B7Ne02u0FGEYqfxsLEDHH8kJvHenQ4Pbfed+kQ/EXKMN8U13FV60vG2J9IWpV/ZLEBgLwMB8XUzgenq0QbN28C7LlkJVyJBwe6eT6+16HW/mzyxmvOcVkeSedsdY619RHgEV9BsRVy12OMXcD1loM1+u47MExgMLcuoHq51tuNz7UigFrPK1urDgTGLW9Wdaxnr0PrbNe0QOWT41N7hd7m6btsbzo1iB+gCuzOSE7POLiH3jXRyuG0lyRo9X6SJiicl5DnJzw1+kbZUx1PybW4FQmnFDwEKhZf/du7Kl8VqcCS4Bu66wkyry92GroSkze/1nN9VUN65PXtmnDFbtAKDbttU/tPzHR1X7+s8dm06e0Vr2mdNh6DBs93OTjyam7csx4AYPOD/Kvre5sEjHRKbnfYU31pXEp2Z/XSbdre5beGckPT+P7qXF5ZsEMPoOKolREavA+dqIv+Wss6qr5fV+u2v+gWUFPWgodPGgT1ly528MUf+qQhEilw6upVAdRyFPD/NWLySMgoQvHTWHj78vTbgyeOCKpeeu154M0u+KulB0yvcqZFtXm4rmTv/btz45yAZZGvfB1mq2SfOZT4OWghcNfpa/3DYnf3wMEvvjZpNXmBSlMX/z7JOuNDB6/qZh+t+GFUTpnyDmf7tvTso7lfVj86nRZ40Hd1gJeD1X5r/3GKWaOPAWWtW1wMvea6KMRqaLZb+LTYPfZqCAlS1p88dGlySrS36fEeRseIyO0BKUuyVbjmkLP745omiYuvkrmiA0CL8pbPL6w52lfzHQrOLkSQrstMy5nu6x0/5HaMXJz+SRw2Gd/cGrJyY1uTgzGpCV+8/CzmXjhR3bj5iBndpuzTSHbS3NPXybd/yzGJBSVLw9o/WN130jvwblgCdwd2fWW2b1ZG+Y75eO8xOJiT2F3twMBA7Q3cHMOFBedNQuObHyuL3LO+ZPD+RXc3xlRtS11Ryw0tuJibYxbZCnjhkNdj2hyze0emINtAsu3FQetGWmXv9h8qeX7CFIu3Q90StR2Fb3o6+ZN64qUWKByen8lRkIgLToTmrDuT+tXhoXh9eNWhJH+eIITMrEW3bQDqJqm9bOu9oP+0adY+kDGE4qex8HZ8L49r4aNGDxz3IkFlAH5z0nXS0RedF2/1qF5t8fDCgjgnYJDrdodFbVZ0CydflXa3BK77H50/QCng+Ruu99uTJ8NjdAs0h21M2LFFcjvWOGAoYNx5/YgB7TwzFDsn6XjGvR718Oy0QlvHPhPv1Sknno88Fnca+NzWMNEnIWOGYZddfWLS/Y+/BBDdaW31njZXysZFfbgYZh3WAxX9L6gOuDSaRnScuXzUq/Mt2od0qCy4uCugcMWApMfbI01njhn74JjeiV5rTU536Dao/YL7giHBXrqDVq5YjQa1XRd6zr+xbfy1TUJ/vYjMA1ftrkmGLpzR7naat/fXKy/8jmUZTFznkvB+WLOIAdoW80OKVp9xAdYFfoyfkGQ9tvW0Vog6cmFdaG67UZ5t/SzHO1Wdmdv8dGTfwOrMXYWJ99r65+9ovnTOsa2zvP1MJlvYbBL5PTaE2HDo1K0X08e23qGFl13DRk0qDRhs57Zu56DVNt3UkWzjtvzM0iHWaf1Ox3Vp1f3shntp03R2f1J66lB3407s/mznaeaxgctNfcrznfo0WuO8pIv3gDFJpsBb+yV7U45er9jedkIEZAyh+GksvPWgvajo1b0lxjEj227FD8/MEs2eGV8dcGXpSas7F+fHOQEng+45RjcJHaPdIchIpAR45Z7V6dU95LVS3fLMGxdnJbV9xO+1a/qwnsMn2yTcFwD9Tbdb9Gx0KEfS/lwPx+Rqu5RI93L7jvZzHmrfCv8aEX/0FPDVRPNW4NnHgadPDR6Q8DAi7CWAe6sy+kRZWAS23Ti+/XuXoMY4NfN1E4t4t8Io57wF3ID+xkG3LWrj4kNdxcFNpxilHTJxXW18Pn7Nl877Bz5ra9npU97DDx1jDndb0nFsABpU6mybvibipeGm0vAcD+MDV6+OzdH05M1r+6xNJ0uVWy+2H86aHfcmasqjASN3rszxsEssG3XGBehHkm86JFrN2w5Ut+t2LSAst8305aZeBivjMKCd/qlMfeejI0MQFVD9Mn/Xw5u7F3ju3OG5b8nFmRdFnTKMUK/rP+ej/bWRh9oDEstt5s71cY40wP2M733jS4Co47j1x6+GZR9Iofc7z53vMFBjq6mvZ6eDI5TDzPa+nnT/0llT9wUl+yPvhtrm6J+akdAvpa22/yrgsdmZ4cNL1rhs2R3XDjKGUPwshH2qz01Zb3tyeL8S4/iZBw6dXW2B7/b6hFq0ssrdkBpxdfS+pKBNXnz05zd/G9fcx8vgQ9RThQV4u+jNubbG4+f1pS99omKr2+rMSx3suXigy9LlXXN2zQew5nOQga3K9uONJvt4WO2oWrJz95V7k/WDOliq3YL40F5BUBcOHSi+ftP7ScDHnqtCA26sOXDWRBmHQlwjD6x4GW83bN2sQ2nmwCWnFcM8tq3SbiHOvW62YtJnLNQLHRuSMKMg2N7a8NG+kLIJUw4vGfTqbtS4oP6Os7IPRD/2Tb1Ys1lvxqpKdaCyXfWywounvKYeD/Kk3of3Z88802O82rIuW3sM8lM9/HLrk/CQ0JQo11iXiKEu3P5zQgysNnoBVh+P3F16w9plgy4wOi751IkbI5stHjfLde2Fmy4uLaOCe69qttZpxoOwqXOTY6OjYld47lw4zavx5iGe4lmbfYDJdw+1mBg86JIZ8KLLflPPJhe8coYHHtrXMjjDEOUGtksjIx/fXOh6Kn1W18UO1qh+MPJUm0NzPh9rN9p9RJSI9K47xg0rK0sdsNlh2/r7A2zCLFwWAhKL4UvnS9b1f+vtA1lDKH4WFR0RsEz/oWHGYg3ngTcNDpwKsMQ34uUvX82duf54FsKH9M3mQPOeHizvNxbN3FeeXjW0Wvl+FzxdpRCwLO3MkReFLrkxc/fMuVhosWwIR9IuvsP0Y8/aAwGBbf3cNT2utnjdYzd37n39e2YKb4wul17ZliLZ2cchj1CdHGXqlNr67buen/mjz6vk9LNLyLuoi2OTuBLtNlzL9eqZ4TevABDNOCrhiXhUrCXSbiTKPbvzEjQGSnSy8oedb5nPK+SoqpQM5Se1fDr6TpFOqeFe1wIYbRgh8F01yCi26wkVRAXVC/LqP6gb3YK7i4POiL2d5niqHfWq+mTw+OQMs+IX7tpbLMqfHMrfbyxYVek2tuSZ9iltXBjDF0z2MqjYNR+420+9vrJL3WtwNDat7JDS9NzSp1viO070Q9GCg/zbnpztAGILFooRlB3sX7PZ+ioPp8ZrqnbzseqZykf9qiz++/pY5y5qDwafzZfcNga2+AJKKVXWfdMcS0yDh9NS/VeDnufkDKuM7mXquGjc5TA/g8EkoN/FvD751y3bnrMU3hww7ABQ1aFjoNXB6bv9XjaHrCEUPwtJoaBlQQ1fQ7OWw33fEr9XzReg4j3RVfjwhUC5BVBSQ4nOh/pWvEIxT4+Db+rKW6CuSp0WqGvVVX5W1igFVde6clB7D4CiGr52qVBToFqhwgW+qJa24FSqvK9p/UGC5pw3dRzK0yMoK5NwuXVciW55lUDYnv9FHah8R6CiSiXvGgl6LZqHBuJCCaEEkEi0xO+V9T5WEAVdoLai+XuVSk4FEQgqmuIj5WlXVEu4aPOxgiipviVqVVwlu7wCddSLgApJjYJmMVpwihWbFgu0Snh67yqISktxQS2Pp9C4RMjhaynkC1up44OKUMJVA/AGvCa8QtqKD4jeiAhRlnwFUcpbeaJSRTtfpKOMBl/Uqzhv9SrKCaCjUCCmWvWfNWlZY01A/EYo0lEoIq05+Ka2onmFqqRG9fMXri6AqrcEPL26IhFPRYmof6H19ULN6qr29+/Nfq+q8LZFaePPLVD3WemTfrFQv0RB8976AFevqYCkUKBa0lJ1a+k2yBxCIc9co7La4r/B8vkNQ/xvjFc4QvBfVDE5fdxaFfxfq+fVquA3Qac3WkPmEAp59khiiv+KZM0ukCn1ERFKJ9XwpwrN2EkgcwgF8/+DkEfw86AiPv4D9XyCHyRiPn5JhOLXVVzdWAt/pzjIpzn+Qc1zTg/8sFXfBX/k0v3lPHwnCuhng796u8FyNJAYuaAj/hM37yzD70SULSD4i5BXfo3wT5RtbeaFf0ESN0gFf6cqfCYX313ftL0b/khE0SIBhIk2x54t0wCWjTbFD1FX9+OXRCh+XWFTk/vh77w2Se6Of3B63KFp+KGrzlX8kaWhbxTw3anxkaPwVzXG5uHApqWX7fCf2BCcj9/x2ZrdCX9hf+NNc/wTH6e+eo5/oahN+Hj8nXcjEwX47onRcVf8kbHxma1Au2w4e7KwFcp1x4fgB/+IV/glEYqfBq2HAPUQELFQwuWLqIBIhOBxRV/5CrRezOFzIRJx+WggFPO5l2773xn4vK2ED4mQ8IQSsRIXH9znW5iHmIoFkNTzuPUUXD6Ae5f9ijtvmfOVy6+n4HNA7xNDCrGSZOHnED7qCU8okfAFoOLccSnKYqGAA4QuKmoECEUCLuoFA1tGCPnHJsXb11EqEEEgFvF4dRAQiVBAUE/5HEBSJxHwRWKJgIvXH80CKtdzhOBzADEnxTeZK6nnc4VixXNRx2kt4Yg5VMLlcyV1PP7aig1cKoKACPkr6DoAYiGfC5EY4IslRFAvBkehbIb11EYQbe/mWAcBAerEymWzptiJwfm0Yy1PJIbIs8ck3d2TXrRQoApELJJwBEQogUSpHgIsPpehwpcsWXA77CLli+8pdxhm482p4/Ah5K84/RK/JELx03jkLL57abGSz6Koec3KRsYIL/Tc4S8+YLH2UesTVVYKRasWfJ16YdgJAFf8soYvt6xotnfb51Lnw6VrDsAIggAAHUVJREFUzrTbMFlDcXffesfrOmu2vFMzif56ePUijz6CMvM4ALZXtexP2r/4snuM7X1ObF8kj9iWeZTXeE/1UJVeISEHtcPGCJSaxVcEnqYKT54HXF/pG78iE7fMUDC6eHD4w1GK+RMOe5xr+fzyvjtf96SdVoyJ2eM6d0R9QtMVMYeG353wJXQosDhaVfWM3yXOYm+Jo2DRAEwZOkcUaQ2EzePSLAW/U5tGDsnem3T1Wfhh8SfNajWl1wtdlyd2CxhQpR0XfI5/qe2wp593z4Pw01nvg263/Z6plu+JuaF9cX5+Dbl9aI1C/wS867gp56Qkui+Edh/W77nCa6wkrkevi3UTE7Q5OZozjk68kbM8nJukHj2r8cfN7jNixG7L7D6tdl+2sb0wsseQFRXeSrWXW3nb1YxQ8bEYq7Ol95DMqq6P8UsiFD+Lyg7CxbZ2s7TWn33jmTbp0dZdgwctG5O30LNdxJbMnZrRyeez3aN0FWN0cdNhhoG3H39ViPnkxY+O3B77tk3lnlGOuwgfk2+mtBpQ6zN2c7OS6vIlrcbZrIvvCOxctqX/4GWKs2Keb7W5d7IXSros1x8fZDI1cXbTfb5hrRWXegxZ3+Fw7Ybgi+dP9tdo1njclmUPQg574MHjVhPOr+EEzerYwWfLx02XfVU8eg1VFChn1Bvzi4hxSbZ+pcs5TsncHUjpd8nUdEJNbIhaL/hHJJrWpM9JNEpojl1XRr3ccnV5nnCY8Jqb2ebnV/snFs+/OUT30rDcgDhz3wfJh9ZXebSunXzr/eKTxY/xZoJx/vv9PSfqbtx6Pt8sZ9fMMYNHzF7ea3fLznjT5vKip8Pn2qDOaLBWeei2+uX6NvkZzybUm30a5nW7uu+ZzAUvHee4I8JtQ+3a0ISYjiR/KQm8GXPk5LgNbazDOe7Bi6ymLEq9PD2jfJxvrGlGC9vjec/xSyIUPwvRXd8PnXKzMPLztPnlpyIjZ7T+Gv0U9cZ9Qq4cOaCZ0NM+uZvzOlCC/auLBB7aA4YXaPbd3sgo2dF/IRBYuhdA8vjHTQcv7qZ31sYvp4tPqylHxnjYAdnj73B01sw2DV/Oj4SEEHSc5GzyqrpzbvCNdG2P9YB9k72aEaUv98d77R+Y2P/9OuG+k66HPVC/Rmfu9ohjXQd2aIaATUtvXw15c2x+sUr9Ey9x3LpdM06fGvzyZvi1150JudU/zdzcgiTfBbAhON+7MvjRrPex3eGgEvmg/4SwR9rCqODy8B3xBZNqyjrF+Jwsck6LDzRb9iBj6Vvf2t2InJWh63/8JfDxyaGsG/Zf1KqeudpMB2wtVzr397TZ3AP4bBiqffDmzoEQu59ZoelfJNbd6H46cJvdXTOUuNyu1j000KSRajIfEW5HpjjaNYk/cdf8ZXvrrk1jH6fkD7W49XDj1dgR1/0TCwbduD+5WP3Z8Jt6J7MC8EsiFD+LyqnZmYr1Fw179Rix+F3k4QtT9BQ3Ln816vTLsMtZs/ud62EbPV3Bf4njahyZmdLBzLf1wuvK9iF1xhkHjwelKN02PQzgtlNqI9ujagapKT6YO7vb+OPOE0cBnzrusW+/dPbAc36nW4kUrrSqNBo9ZXpEqUVu8KU7rrdM+BsmqR42DC/2vVC203/4mP7PU7X27tmxex78Dk9bHxhuOH2ard6mHbfOPLy2riDG1croof0YZ6eJUx9g9qK0Eykra44ntLnTx2XI5JXlqek8YOXR7MH6gXudrbYvxMgLV2N2xbiNMa9qadF16+ULj+bwPI1abN+ZHXRgwZolG27mLnq5bvvxyog0/3lmyOLl9y2FUcam4FEz208Ni7vZNFdzrb3lGttlvRpR4cRhNzztFvvAzWtq6yF+z4V9dzkWTthnNW7ZohHTAyZ22jJr6aZl64EIt0O6DsE6RyLTe6f3sO6gdeTFuzRXA592y68/8jjpdkbkdPHJ1CRtp1eBiycUXyQ8Nfx6CMXPotq4qtnR9dlKwhPLYnxSSpp/gcmT8rpg7dFNazd8XtNSkOEyfLZ69e6R+OTwrJHWqbeDlUiNjk2Y7vW5LzWmbedvcAYyRjYT51r0XqupXU34hZUKXTJp9BCEeihwa/m8msaxQaktfMfB95wa/6nBu6KTicGa5+d+aNL5bNOZ61VaV9Zy3nW1Ca0fNdutqsdN+wu4vUi9orrDE06d+pZtuTW8Mkm926rROaquF97qN0/W2Xg5tgXWb7vdaYUrwYmFIrMDTlkzD+D8CJgInyrUqTYOtsehNWVKnxZ+DRE2V6l+P+TJB9uvWW1E+VVfDEo4Hic4hb3GL9Lqn16hEVi8TrXu052eFWt2atQ6Fj5Wrx62cdxHHc6jOuPHtWFbC9tH6vW520ztXe09Y4y+UD/Fqzc4tcTk8ytfjXXVLjYzmrd4J0m94f1YH4hwE7S0XGFdunmuY9675uq5NYvOFQtqevQ+oMjZEvas88hVzazeZGt0KisSf1QxfKafwcUvh1D8NDLU2kIiplxuXla/kk4iDggADiQSwqMSCfdxE30xJVw0SJFY4t1tCo6S8geBPV9MOBIJhwtQiRgFrfmp6CMhX6+J+GZ3hQOaIO8BoTyJhFvXV09MOIAIlNzpnvvamn9TYqcs4VTe4JnfqRtMM3Xvag7M4nXEl6etSvR0gPdES8ShlOZ3kOCNQiqlZnq4p9Pyy9WBypf6auMtR4sIU3srosGXz/p4/Lx9TxSncrRaPSAcvo0CAOGVFgVtjdLe2ajcqG9UaKjQJ62RD3fa2965X+0/5Bc217vbdFB1ej8+Sgs1CmwIcE235rPHIPMAySsFIeG9emGTUm2TxtXV5zzN1De5LBqsDtHVakuty9WEJ2xW96XpwMzHHYzS2wqqazQ8jNcDiHCbE9gYKW+MuuD5owFNr9b1zKwGR617iqjJoMuarZqmaXbgpzfXl7zO/9yk33XqQPDLIRSMzCjvU4eyOwb4V16ZK7cuGb4N/0NOl67YAA8d32nHmUKuEQpGdnyKsGqphX8taUlfb1VV/A/5dnYHUOD4sd92fcg1QsH8ZIQcLv7HxISDBnViBS7kG6FgmH+Ur6GBXxOhYJh/8MzB2xO/JkLBMP9A+ElFBb8mQsEw8oRQMIw8IRQMI08IBcPIE0LBMDJAcnb31+qx/lQYF6M/1AzSQygYRgaET1Zuax3hpXduRfnUqlW+kBpCwTB/vrjJayYoKj13rDozAKKjxxIhNYSCYf58wzgxaBAfdhrA65B1kBpCwTB/Pr+saDSYkHm7EXDpXAikhlAwzJ8vyT1JF7g5n9dsF6fx8ZSzkBpCwTB/vs/j369rdHvl9H3Lz5fajRsO6SEUDCMLkvY/HetsQFBZ0gnSRCgYRjZUqOH/AKFgGHlCKBhGnhAKhpEnhIJhZIHwqyr+LxAKhpEBJVNVovCbsxo2kBZCwTB/vrf2Tm6dgcIX1nwA603tIC2EgmH+fHfmJjUCkGfZKK49EH/XH9JCKBjmz3cs5hy+6akjmOIEh6FzIC2EgmH+fOH7UrgA6teu5l8Ld88WuENaCAXD/PnuWqYbA0UbeTvwZcvNnGWLIC2EgmFkgP+B6Le3ep86rQCgLtaqOaSFUDCMDKCxwRWmQRxIHaFg/qnqShVVML8WQsH8U8u5o4zB/FoIBfNP1fG4YH4xhIJhZINERPiQOkLBMLJAUpngYbi1cVMVZUgVoWAYGVB7cFFHl3j9UWt57l6QJkLBMDLg+Fy/6RrAx6yAukArSBGhYBgZ0K/3NjQ49GF5xQSHOZAeQsEwf75n3Tf5osH+11twaOuRvvgjde9b4X+NUDCMDBg9ZyAarFFdBGTOv6SIP3D02jH8rxEKhpEBx1c+aSSufjL7QmuguqftTvyBKpEG/tcIBcPIgM/9++p8Md2xzwQN7r0eC2khFAwjC74WZrZvpqoMaSMUDCNPCAXDyBNCwTDyhFAwjDwhFAzz5xPWKvHxneSMRl8FBUgNoWCYP99HW5U1A/HNF88WxfcutoW0EApGuigB8++ZNulUuNoUDSSciuFv01UhJYSCkapP6XZg/r0eQ+e5Fpw2wXdPTXbNhpQQCkaqasSqYP693bzZOBMYZoLvui/0gJQQCoaRAcfzVgCP5q8ZwAHwwmSXB6SEUDCMDDiScApAubM4wDr/5X71EA6khFAwjAw4/GwHGqTtrOy3V2ljT31IC6FgGBlwOmclvvtUrqCoCekhFAwjAySUi/8ThIJh5AmhYBh5QigYRp4QCoaREa/2OtpA2ggFw8iIKzO7ZXl6qECqCAXDyIgPzqEX1C/3c9bhQHoIBcPIiI/DrykhekGR/0J1SA2hYBgZUeO6sTNQ+Ty42tmxEaSEUDCMDKjYrV/8/tDM9u9NP+V/2le72QdSQigYRgZcm64mnHLYvkd9WeHAa6bcnsaQEkLBMDKipt/WgZA2QsEwsiKyvxakjVAwjDwhFAwjTwgFw8gTQsEw8oRQMIyMyVNrCqkhFAwjY2aUXoDUEAqGkTEFi6tOq0NKCAXDyIbKfFBKeZAoNRppvgNSQigYRhbspCHPVAWKKjngOdhfL7vOhXQQCoaRAaIlxZ1d+Dy+YjHhdeaKKhtDSggFw8gTQsEw8oRQMIw8IRQMI08IBcPIE0LBMPKEUDCMPCEUDCNLarLShraG9BAKhpEBJV4OU9CgxF/hrq6qrbUOpIRQMIwMKO3aIpMAuf0tTgOXnVyPQUoIBcPIgihXnwDg0Il4RQCXPTOUIB2EgmFkwpq9u8fiwMODaFA7PLgNpINQMIxseOiqeZY3fqcBgFqrAHtIB6FgGBnxwfv+lhvtp3PqX43sGgMpIRQMIzPOvHv1tNg889VcX3VICaFgGBlSc5kKOS37QWoIBcPIE0LBMPKEUDCMPCEUDCMjXmQ78AmE2WUWfEgNoWAYmVB44sB7NZdJnRYfExpOmKIJKSEUDCMLaqwfbhh3cFcnvRcLROLtHRIgJYSCYWRB5IrjpkCxTdUFIyBvSkh7SAehYBgZUN9GIxMNTiQcRYOFXWdAOggFw8iA+jYamQDqjwbfB5DqEtcD0kEomF/MQ7X2+Am5h2UYAhFu42qMjcOf9z4KKSEUzC+mTKCKn1Dugqe6us8qZk1bV8AXTbTUhpQQCoaRCZLdeVyRoQekjFAwjDwhFAwjTwgFw8gTQsEw8oRQMIw8IRQMI08IBcPIE0LBMPKEUDCMPCEUsk4U1m4AANFDM+DD5XF8QPjIUBEoPGZtge9yoxq5NcIfexU/XVG43/aR9gCk1Q5EddgIHfxVYdS0RrjD64ny6y74Ta6gFYCL3fTxb9A6RfxHhF95SvjmqwLBv1Yt1EADcbUa/gMVwsYc/FAnpnwB/kh1LQHUeWC+IxQy7uOcs6qLling1pS05o/dHzpv6Ijdm3KUgau2l+3wTb5DNgaFFR7yMsTvfV0+vhcQ7VrcBI62V9ruQY8vL/iRKzIU8VfX7AtbwsZhEUKC0/Gbs9tuCVDR4/AA/FBybj7+zv1DpLao0yzD+ChKOPO74Zs3B0vb+AgOpAt0VqaHcEdbY/vLJite7lfIf93pHBqUrNor2P6KV+fOOyxq7aNwKkGh5QoOfrM5S6BAbmoko0H0oUsAoi9wBrrWb8lrsVQlPBX9JgI4fJ+POnvntMP9Rytfi0wsOj4cQMHhtxOtVn15/akuwMHv4wxTVAWajMHv+AYpc4Q3zPB7eVummAHFqY4q+J03mkol5c2a4XMxaVunwsMviVDIuG3eVi4LbhtNuiF8U+4s4N1Z6D/hepNXSsAVp8IW+GZ0tUt4UurDeWnmAKiE8vDd544RtsCe+aOCm/aG9atzj3upZeiuPZqL39wYdGRKSj+LOI1F1x/juxIV9Si3h1Wm1Zvna+KHdXFp+EbEw29OTJjpGHhv1hSX0nEfLxvG6gMo6FHR5IO/p06rQuGd7SeA/YM7AFOHjBKMvdnyDkF1yBbFHDI8Flh2ssDg2crplqr51YlW+M2s+6LHjWcON0eD9bF3gPDJw1OaxM+8pvXBy84ewCUHwDkawLLu88vgcsb6jvr70KnA7WGf0DRpSD44ksA7V+v0HteMTFdw26GCH+aEKlRg7xz8ztzYosZBkwMjXhhFRcWqCpvuaA6cPaSQGjawW77eiJ3DLpBBpWNXAs+8OfWLHdbcFnzZ8GEPr5VfG6/HXKdpqviZEQoZV/DRqFQ/rX6neUr0bat8vc1Xd9tX83OVgITRuc3QQGhuMrCtRvs5B2eWZisePPyVW7+6bGtZxZyUs4YhXTHoBsYdb27g6Va2M13jTYKBiz9+U2PgttZB/cXaoe287z1WrovKWdSmbh7Hyf+U+pmVs7ZkqXwd6j2uRKToevPaqfuxSpIjjzaLoB6tiwbHJ96yrJ70abrrOWfsehOgCKC4X5CtfYu9tkmffbROH2s9fKhFXMeI8hs16gVeF3SB/JUvPufUmr4da2IQsMxqcHPjuKVBKUk98TfvTENtkTX1rdsq79T7QGDe5luuNy0tz0+uWnViOsd640wg75Pq0ZB7G6q2LuB7WNubaM8jgNuzE9wZq/SqeEtHNB69y27syugr528tudMbP3iYj/gs1pOcqhZYv811u/d0eEv46jpF3tlhuL+9i09hzdSHM86OBsxbbY+9v9nwBN879bmobOXXS82ByUWBY/qM8L0k3jvD19ZmTt/2fn6CRVcH42dGKGRehf+ZuzqIPh+W3P916/OTX6oH+xcpAfGej1TwzZ2Fd3kjD5yek1Cw/8CTBD/h8Ak3x1qtzozwjmjLx8odx3wv997YZnS+g5HmpTCruL74YduN9WZZWxybuz7cNFVjsM/TyMvbbRVHlV0fWTJt5uKS+KmSgwP3FQRlXz14q23rbTZGATY+nw6fHIcGEW7pvTD3cffIQiX8prxJ0kQ7g+P34bVDOUfHoeIGt1dGn1R87OfjgW9ilmafdIWSYowleddvsPYG8tX+Ag+/M2hjL/T/OH3bGCTdxzd+229aTDpyeM0jTaRaBM9Ag3JLVz+/0Ok7QxWHqFdpZTYB3I887Tboyy3lVXtKpkQWaZt/zh0cn9t+uxd+mFViVNtu9sh7kzbtfHrw+L6UC0PQYF7d3B4ZRqMyMlRx2S3RANgQ6/xo4LSJSuqJ9wiu2EWNBCoM+5wMSrP29lJw1+3fTS/G8r5RUFnHAy74mREKWZe4OPeEI7AmLyy5/+vWpy8fQah3sRJwxamwBRoU7FmSGbPfR2fx67kdNlg/NxLXOO9tolUr2ep7RRE47PnSWSH5qJv5lNnnVTZMn16sih9ixs86+cJH0Cz7RHbRjouLjWcIbVd9dCm7Y5c3yWcBJ9vzfPDaJN7gfftT7mhtnD7j1s6hb/N6+mxGgxMTDntg7iON+wVKONTdHN+V2qglrkq9Ba8dyjk6O1YUq7ueNE/DhvDME8f5WvsUtu4oOn+9f4dVVotuTUH6sNzlzw5Hj8DfZHbb5AvzRy7XuJZ5d9Fgjb/d/g7XrJ8aPum+dmuz/eH1Ols5cyKzNLfvlBSN3nin1ztvq/dV7g9XdSQvtJ9pGJmFOiUUaVukwuFSbvvxJ/DDnP3jB2kNi1PfGrt9lnVhl7X90GD/wm352x4busS/bHFppO4LHrBhTR2C5nTPQetHGuU9WiTzgSyX48a391rPalP/PvXWYvROcX559PlC80v4mREKGZdnrLe/L+VidKOw5P6vtG0NghHqXawExHunqUg4XByYfWosJlQOzt7XafS6nmb7UCwYum4QfaU0KlEJsE7/GDcWYZM7vOqVnmeuMDAMf1PToWRU5NZVtVtGmlp1vj7BNTM5oV+zwHep9q8n+c5x3rp308H7K972v7TndorZmY6bQjYdjE/v7btJwgGObkhsxpmVM23K4y6Y/uimKhqcWDB8h2qIaGZVz9qPWfq92nlp658Luv2lS7cr9/zFzQ4qbt1RFJseiLWCIXb1l3qNHLAgp+tJF/xNkXHosE+9dTV11VSi0gDh+HOTtlWOTFJ/aPMoeqFDZK4hOryobeW1orLL3uHuR1bqTcPgN7VvVvqnPSnf6XB0yeacDo5XirQHOPkNuJzbfuIx/OBhsAgQx69TFtsuj3BbEYAGh+bqPwn2emw4THwxYZTKpegozLiUNEI35uyIg41s13m96nDOeeOJRp3iTtgcuWy5Ok84yOJ1AZ6vd7GsktQcnYSfGaGQbZ965Xb+XN/zUnGHWTvvmWnSMp/NCPUuVgJ2eWpxqn1X4sHCLD4+xb+cp1Xqv3qfv8HLryGbnqnUG6xxXLoaFT1LC9UGJA+NNXpic+WNQeXSDfgdh8tu4TndhDdOxi3lbAuM1lDZNeKJ8blrQ29aX5xhEb53fdK490pvnqWP37ermvducrXo+J0+0Q8V/IBjS3o8FVcd6WAp0aIlgw9rA/jcO6eZitFs1x4tw/esazVh4ZELVxa+OPOk3NovEN9t3VEUOisgP3rcuSJ+iwlaPgvLj1wYgr/JNU42vmvefUZuknF2KuB6Uu/wp3aORtYHtAZvc3F/YCU+a+d0bnTY5E+t502Yl+QZvoi/dvXIHS4pe2ZzA2MHjYrObbNu9dImu7duL/V8c+pKV/zg8f4CcNV2qs4pY1e/58Q6Rg3Dbm/Vu9drnk3HfY1Xj1xXbiuIoB3ipo7dsubqrJl0t971JReecjNudlGc3CvSuKPVhgKO83lesvk0BaM5U5V2Xx2MnxmhkG1fI4SUivRHIKaXDj1XwuGPbIbsOxN5wIvrEgh79wVE8bkcrfGZ1zm0ryk9+Y6rNOljFBENbef6+g7EUZUTFOruqJrcT2nvhMsvzHvjd+6ljtBH7LspKef2dDNtNNf9vuuGOXXxVyfesI4JyU3aszcT84YsP6nceoLDvKqJR6I33r1r/nbFi1vAiQlQcFpuivQLm/kTVrdEg6eGAJTTNp0R2V6MWVzY+JmqUzK3X1zE7Mt2+G7rjqJs2zfw8OpOgS6HNlyEaaoAf5PZbdsiGumbj6Xvs9KAAYkcjshDaQ+w/UmYsrjO5AGA8MlHJ2FWMFfcJ2L0IwzZ1BUonZgkVnys3c7+GGCdBH5+hnMd+iXjbzyyUwCx515Auw5rbsc+6gyTR42EdaHxZ4HQ1MOqNeLYocDAxEaVo47apQBuIc073sE300JGRs+e0dNBmHA05IP9sYmNV0/Kv3VtEH5mhOKXVZVlhv+QJLGT4F23j0XGKPlk8L7UKEP/E9rmk+q5w1WXJna8qmuYIeqJ90Umn+/Yu7+6BZQ+RAsTfJOm3hXfVaYAlGuplP7Fmo+XWXo9UJamasmpSzTRwnd5Bf3Jyxd8K0kyAMkASbLIoA1+pypJxxh4ncWzolm9gPSPHCru2OI2kfTKrgKougWA4gemOniey6VNzOtvCS0b4ZvkL83MkKGjBRQ95nIsle6/R9Pe+JtnVeYARCdTRnR/yHHCvc6qSP3Me1rq+yEufuSC9SsAnHMG0tefX7Vc4dmWz1OsVYY2PYFvKvf5jzigfm7WxyV+F4PSjffrbgzR9Jqmhp8ZoWD+qZeBhU1Nfbn4vaL6tviVfCjlQNJaDYA4u5Ua/uJrvRq+k+S35gAFlZ15EL3QUwVeNdLGz41QMP/CVwEHzC+FUDCMPCEUDCNPCAXDyBNCwTDyhFAwjDwhFAwjTwgFw8gTQsEw8oRQMIw8IRQMI08IBcPIE0LBMPKEUDCMPCEUDCNPCAUjk6iYB0YKCAUji54673IAIwWEgpFFb664EzBSQCgYRp4QCoaRJ4SCYeQJoWAYeUIoGEaeEAqGkSeEgmHkCaFgGHlCKBhGnhAKhpEnhIJh5AmhYBipqRdA1hAKhpGaJ90JZAyhYBh5QiiY/5pPRAN/LLONMhiZQCiY/5ovRA1/jBIwsoFQMIw8IRQMI08IBcPIE0LBMPKEUDCMPCEUDCNPCAXDyBNCwTDyhFAwjDwhFAwjTwgFw8gTQsEw8oRQMIw8IRQMI08IBcPIE0LBMPKEUDCMPCEUDCNPCAXDyBNCwTDyhFAwjDz5fzmq2ut/w1HDAAAAAElFTkSuQmCC;" parent="1" vertex="1">
          <mxGeometry x="238.46" y="270" width="228.09" height="302.5" as="geometry" />
        </mxCell>
        <mxCell id="uUMPkl429nScn1y42nC5-37" value="" style="rounded=1;whiteSpace=wrap;html=1;fontSize=12;fontColor=#000000;fillColor=none;strokeColor=#007FFF;strokeWidth=3;" parent="1" vertex="1">
          <mxGeometry x="268" y="367.75" width="82" height="10" as="geometry" />
        </mxCell>
        <mxCell id="uUMPkl429nScn1y42nC5-38" value="" style="rounded=1;whiteSpace=wrap;html=1;fontSize=12;fontColor=#000000;fillColor=none;strokeColor=#FF3333;strokeWidth=3;" parent="1" vertex="1">
          <mxGeometry x="332" y="410" width="90" height="10" as="geometry" />
        </mxCell>
        <mxCell id="uUMPkl429nScn1y42nC5-39" value="" style="shape=image;verticalLabelPosition=bottom;labelBackgroundColor=default;verticalAlign=top;aspect=fixed;imageAspect=0;image=data:image/png,iVBORw0KGgoAAAANSUhEUgAAAx0AAAFHCAYAAADEEyErAAAgAElEQVR4nOzdZZxd5bmG8YvibsHdXYoG9+IQvLhbcW+RFqdYcXd3dwmF4u5OCO6uQXM+9FznPftNdmYSZgGB+/9lfjOzZe1lM+u51/O+Q/Tt27cvERERERERDfnDL70AERERERHx25aLjoiIiIiIaFQuOiIiIiIiolG56IiIiIiIiEbloiMiIiIiIhqVi46IiIiIiGhULjoiIiIiIqJRueiIiIiIiIhGDdWZBz399NMA3H333QD86U9/AmDSSScF4LvvvgPg+eefB2CGGWYAYIghhuiShfzyyy8BeOedd/670EP9d7EnmWQSAN58882Wn48zzjgtz//oo48AGH744Vu+/to8/vjjAHzxxRcATDfddACMMcYYv9gyBbz77rsA9OnTByj7XURERER0TpKOiIiIiIhoVKeSjuuvvx6AXXfdFYBTTz0VgI033hiAzz//HIDFF18cgL/85S8A7LDDDgCMPPLIQEkcDjnkEABmn312AHr37g3A9ttvD8AwwwwDwHvvvQfAcsst1/I4E42JJpoIgLfeeguAH374AYCjjjoKgLnmmguApZZaCoBhhx0WgD/84b/XWt9//z0A3bt3B2C33XYDYMopp+zMavk/jz32GAAHHnggUBKfRRZZBICdd94ZgAknnLDleQ8//HDL4//6178C8Prrr7c83/Xi+h1hhBEAuP322wF4++23Aejbt2/L6/u969kExeRqtNFGA/pdPy+99BIADz74IFCSrKmmmgqAeeaZp+Vxa6+9dsv7mnANOeSQAPz4448AfPvttwDMOOOMAJx11lkAvPzyywAcfPDBLe9rIrXNNtsAsMoqqwAw9NBD0xluz549ewJlv5Hbf5pppgHg9NNPb/m8N998c8tyvfjiiwBsu+22AGy11VYAjDXWWEA5Dm644YaWz7/kkksCMNJII/V3OR955BEAnnrqKQCmnXZaoOy/HXH93nTTTQB8+umnQNn+fp5ZZ50VgJlnnrnl+fvttx9Q1tM555wDwAQTTADAddddB8Bdd90FlON63HHHBUpCt/feewMw3njjAXDssccC5Xhrmp/f42WTTTYBYKeddurv401uDzroIAB23HFHAO69914Axh9/fKCcdz744IOW5+2zzz4A9OjRAyjnH9e7Ce0tt9wCwDfffAPA1FNPDcCcc845aB80IiJiMJSkIyIiIiIiGjVE37o83h/nn38+UCraddLx8ccfA6US/uGHHwLw0EMPAaXS7vd1hc/nPfHEEwAMN9xwLb9ffvnlAbj22muBUoG1d2TUUUcF4JJLLml5/bPPPhuAueeeGygV8vXWWw8oicKVV14JlITl6quvBmCxxRbr7/qwQm7F2wq5lW0TAyudVuwPPfRQANZff32gJBn33HMPAAsssAAAs802GwAnnXQSUHoJXC7Xh8t32223AaWSbtJg5X2WWWYBynYzMXjttdda1tO6667bshxWtq34uv7/+Mc/AiUxmW+++VreV5988glQki4rwfPOOy8AJ598MgALL7xwy/KYwLhrWrlfZpllALjoootaPm/t/fffB2D66acHSoXa15WV50UXXbTldd0/Lr/88pbPbw+TlfBu3boBcMYZZ7S83xRTTNGy/G7HzTbbrL/L6+u5XnwfEzT373ZMDk125H5n0uDynHDCCUDZ3lbe7Y169tlngZLEub/I57nfbLnllgCceOKJQNm/zzzzzAEud1czMVpooYWAcjzfeeedQNk+JjImFZ4fNtpoI6Aktar3M5MlE51HH3205XU9X5psmmB5Phh77LFbltfzWURExG9Zko6IiIiIiGhUp3o6rOxZybYyqNFHHx0oFW8r8jUTkJr3yv/9738HSuVWdaXRyr4VWiu43ltu74iV/s8++wwolWQTB5MJv7dn5ZVXXunvcsoeFyvG3oN/1VVXtSyXvRyHH344AM888wwAp512GlASDivbp5xyClB6DLz33kTpiCOOAErSYaXeXg97Cexd2GWXXQA47LDDgLL9TGZ83nPPPQdAr169gNIjY6XW3gZH05LfmxiZ8Fi5N8Fwvbj+TZxMCEw4XN59990XKMmIPQSuHyvr9h7UrrnmGqAkHPaguL7tcXC/drlNJEw43C+22267luU2Mdp0002Bsj8uu+yyQNluVrgd7a0dt7+JhklTRwmHy2/CN+aYYwKwxx57ACUZsvdi/vnnB0oSMfnkkwOlYu92tPfGZKt22WWXAaUXwl4hbb311kDZn6zw2ytlT1JXMyH0+PTzu/087uz5chSyW2+9FYCjjz4aKPudx5nnM/cbmXiaKNlbZWL0t7/9DYCVVloJKEmI+/G5554L9JtQRURE/BYl6YiIiIiIiEZ1KumwQm6iYOXPSqaVdX8/4ogjAuWed1nxl/eAm2w88MADnVpoew2sKDr6k6MpeU+3vSJWkk1U7JFwOb0HX1bQTRhqVjhlZdeEQ2uuuSZQelUcVcdKsaywm3DIe8yPO+44oCQ5JhxulzphcDuY5MhEw94cexkcdcuv3gtvMlAnHLJXwJ4N2ashkyqXU/YEWPl29K66p2fPPfcESoXY5KqdevvYW+IoQlbyTRJMAKzYW/k3YanXoxV1+bpfffVVy+u6fVyf7ZgA2rvS2Xlk9t9/f6D0SjnKl8tdW3XVVYGSwLie3U/tffA4cb+1R8rt5ONMRkxEPN5d/gUXXBAoydl9990H9JuUdjWTIj+X+40/d38wyXD/NOGQvUEmWR53Ps4k0FHB6vY45xVyfZoMuVyehyIiIn4PknRERERERESjOpV0fP311y3fX3rppUBJGKxgW9FzdBbvMbfS6b3TSyyxBACbb745UEbp8V58K4zOf1CPirTFFlsA5Z52K4+OTnPxxRcDpSLu6Fp1BV1WPL33/4477gDK6EyOkjWwHLXLngjV94Z3xETBz2PPiRVa51Hwa817913vcpQd7313NJ011lijZfk7y0p9/Xlrjo5kxdxKsclTO64He0DcL+tkwHv13W98P+d7MemYY445gDIviImBz3M71UmH84zYu+HyvPHGGwC8+uqr/X1eV/N9Ze9AZ5l81UmMSZHr1x4Qj2+PD5MhEwCTDY8XEzV7rDwvdMT3dzuYqJhYdpajbNmD4/pyu9vD1Y7J69JLL93yc/cfe5ZMQuzhcD8ywTWRcpQqk9i99tproD5PRETE4CxJR0RERERENKpTSceNN97Y8r33jm+44YYtPzeBsEfBe5qtqHrPszP8OsqOvQP2aDh60THHHNPyPJmMOD6+8yo4WpGVyDHGGAMo99ibdNQzUzvqjD0TznTe2cpsO1Z4nVnd5RvYGZpNdPwcjgJkJdpeEEdT8vFW2ldbbTWg388zzjjjADDTTDMBJelwpu2muHxyP3H91PMWWHH2efbgtOt98HXcb+xJMIExwaj3A9ePyZy9N/WM6yZ89jy4PUx6rMy3S9ZqJmqqk7126tGtnJHb+V9qdS+Mx4c9FvaCHHDAAUAZbc1Ru+rlcr9yP9xggw1afl+PQteO28kE9YUXXmh5XfdTzzudZQ+HycLtt98OlCTPxKodRx1zdDCXp+5dsyfH791vPK+cd955QEn2TBg97uxlioiI+C1L0hEREREREY3qVNJR35teV6odDebCCy8ESgXRUYAchcl7x+31cPQi79W2R8F7r61Iv/zyyy3vZzKyySabAKVXxBmQHW/f31tJd2Zp39d7u8866yygjD7Uo0cPoPSU1Fx+HX/88UCpHDsqlPN0OB6/81DUvRImO3IUrPvvvx8oPQn+3O1h5fndd98Fymhb9czb7Th/Qj1qWGdHTxpU3vNvJdz1YlJmb4/bzVG15HwY7fi5ZKW+o/VSjz7mPB1WzB29yflZZK+IiYoztjujt9vH/a/mKGuqk712nK/E5bniiiuAklSZ+Hn8OCqb+8/EE08MlOPS5Mf9we/t1bBnyv3Z4171/Bvuv/Z8uF7q0c7cj5dcckmgJAydTXw60tHoYR09z/NSPV+QPJ84k7nr4cknnwTKfDTut476FxER8XuSpCMiIiIiIho1wKTDCq3zP3TEyqDzAHhvs70XVrgdr9977703vZ7R3Hu8Z5llFqBUYOt75b0X/corrwTg2GOPBco91VZMHV1os802a/m5lWVHUepoVBvvEbcnxXvgHS3HGaDtUXFULCv5jibl763kO0qOM7x7r7iVcO8tl8ttRbtOoDpiRdaKt4nKz8XeA0c/s3fIeTDcP+yRMHlyP2lnUEeNcvQnEzNHITKZcjndbpNNNhnQ73wuJnwyCTHpcHQm93sTOXt9PG7ssalHabPHwRnoF1tsMaDMl+H6MfGxt8gEyx6DuqdhqaWWAuCCCy4AynHmcrse3D533303AKOMMgpQ5q1w/okVVlgBKD1NHc3T4ev8WjgKmUmFx5nnOY+fddZZByg9NVdddRVQEkz3K3uFVM8PFBER8VuWpCMiIiIiIho1wKTDiqr3gjs6kvd2y3vlHW3KCr2jKpks1PeuO4OxlV8rviYXjoNv0mEPhhVUOV+Co+14D7k9Ifvtt9+APub/JQb2ZNT3nLez2267AWW9mJxYkbZybYW+vud9xx13BEpy4kzFVvj9fp999gH6XX/2llhZH9hRsazc1q9nD8TAMgnwczlaUrteBivmBx98MFDmZ7FS7Hp1P3Q+ESvq7bh/uN7rmdDbcTkd5ciZxk0yPv/8c6D08Fjhdn+xF8nR2ky83L8dtc39w+3mPDI+3t/7ePk67tcmCh6fO+20EwAXXXQRACuuuCJQZpRfffXVgX57V+QoXa5fP1fdy+C8Hd27dwfKdjHJ9PjzOHZUr3pUsp/LWmutBZRkx+SxZu+OSaeJmcmtPS72HJkMOlqfCZWjUR155JFA6Rnz546i5vkmIiLi9yBJR0RERERENGqIvp0dKocyTr33enfV6DLxX65fK93t5hWRlW4fb5IysNvFxMOvvs7AJiddxc9l4jKoPRp33XUXUCrKdULXEderyyOTk3q7+Hi3Y0fbwd/7evX7dPQ8ezTqGdRNGvx90zOj/97Y69GzZ08AVl55ZaDf0dGc6d7RqpzXJNsjIiJ+j5J0REREREREowYq6YiIiIiIiBhYSToiIiIiIqJRueiIiF+177777v/6VSIiImLwlIuOiIiIiIhoVHo6IiIiIiKiUUk6IiIiIiKiUbnoiIiIiIiIRuWiIyIiIiIiGpWLjoiIiIiIaFQuOiIiIiIiolG56IiIiIiIiEbloiMiIiIiIhqVi46IiIiIiGhULjoiIiIiIqJRueiIiIiIiIhG5aIjIiIiIiIalYuOiIiIiIhoVC46IiIiIiKiUbnoiIiIiIiIRuWiIyIiIiIiGpWLjoiIiIiIaFQuOiIiIiIiolG56IiIiIiIiEbloiMiIiIiIho11C+9ABE/t969ewPw7rvvAjDBBBMAMNFEE3Xq+T/88AMAH330EQBjjTVWVy/iT3LIIYcA0L17dwAWXHDBn/R6vXr1AuDDDz8E4A9/6H+twvUy6aSTAjDOOOO0/P7bb78F4IknngBgmmmmAWDkkUf+ScvXkeeffx6AcccdF4BRRx215fdffvklAKecckrLzzfddFMARhxxxEaXLyIi4vcgSUdERERERDRqiL59+/bt6EHPPvssAE8++SQAQw3V/4DEl1p88cWBfiuKd9xxBwBvv/02AHPNNRcAk08+ecvjPv/8cwCuv/56ACabbLKWx9fvd8MNNwAw1VRTtXxtt3w//vgjAEMOOWR/HycfZ2W3fr4/H2KIIfr7fCu/9eN8vt/7unUF+a233gLg1VdfBeCrr74CYNFFFwXK57Zi/P777wPwyiuvADDrrLMCMO200/Z3+axcu33nn3/+/j7ut8KK/QYbbADAXXfdBZTK/I033giU9Skr4f/+978B+M9//gPASy+91PJ6c889N9Bvhb/m8/bZZx8AnnvuOQAuv/xyoPOJS839ZIYZZgBgt912A2CvvfYC4KqrrgJg7733BspxbNJz8sknAzD22GMD5TidbbbZAHjnnXc6tRxHHHEEANtvvz1QPu9GG20EwJ133glAjx49APjLX/4CwMILLwzA0EMP3an3aef7778H4IILLgDKevZ8MvXUUwPlfLbddtsB8OKLL7a8zpRTTgnA0UcfDcBMM83U8vtjjz0WgLPPPrvlc3ic+n3t5ZdfBmDXXXcFYOWVVwZg+OGHb3ncxx9/DMCJJ54IwBlnnAGU7RsRETE4SdIRERERERGN6lTS8Y9//AOAfffdt1MvaiWzrpzPN998ANxzzz0AzDPPPC2PN3mwwjfnnHMC8PrrrwNw7bXXArDEEksAcOihhwKlYlhXWGsXX3wxUCrA3rO97bbbAjDSSCMBpQK68cYbA3DaaacBcMsttwBwwAEHAPCvf/0LgPXXX7/lfXycz3f9mTi4vCY8VpTPPfdcoNx77ue0sm5yYoV+ww03BOC9994Dyj3zX3zxBQCTTDIJUCquq6++OlAq+6ussgpQKuwrrrgiULabFWPf1+UxSTr99NOB9kmPic5oo43WsrwdJUxdbf/99wdKxX/JJZcEShJ06qmnArD00ksDcM455wAlMdpiiy0AuOmmmwBYc801gbLee/bsCcCll14KlPVae+SRRwBYdtllgVJxX2mllQDYZpttgIFfP24ft5/JxUknnQSU4+tPf/oTAMsvvzwAH3zwAVASnIMOOgiAv/71r0BJcEwIfF235yyzzAKU/d0KvImJn9fj7JNPPml53SuuuKLl5yYAvv7AeuONN4ByfJl07LTTTgAcdthhQFlfJiv2+Nx7770tr+fvRxhhBADOOussoCQ/nm9M0Nw/unXr1t/X0zLLLAOUpLJmAuXx53bzeHM7REREDE6SdERERERERKMGafSqnXfeGSgVbyty7XoT2rESaK+HvQqjjz46ACeccAIA66yzDgA77LADUO5tvvrqq1ter6MKqaMMWcHeY489gHJPvfdme0++vQ7e833kkUcCsOeeewLlXu866fCeeBOa888/Hyj3gD/66KNASXx05ZVXAqWybs+FCYb83uV0+a3UDzfccC2f02THyu99990H9Dsqz2233QbA448/3vJze0WeeeYZAHbZZReg7AcdGXbYYQGYccYZgTKq0s/FSvEwwwwDlETA3g33W0d9WnvttQFYZJFFgFKZdjubdNjjMPHEEwNwzTXXAP0mHVb87XWygm7C9FNZqb/99tuBfo8LmRx6XHncTjjhhEA5Dk067GWxol9/LvezLbfcEijr2ePw66+/BkrCZ4I0xhhjAGW9eRz+VCax1113HVDOL/X+ZpLk+cDPUffSHHfccUA5rnxdkw7PRzLRMfly/dXHmcfvGmusAZTzngmHzzOB3WyzzYAkHBERMXhL0hEREREREY0apKRj9tlnB+DPf/5zy8/tTRhvvPFafu69zlbMF1poIaBUVr0X3oqf7CFYddVVgTKKy2qrrQaU0XpMIrxXvJ1RRhmlvz+/6KKLgNILYkXeiqgVcSuhVkb79OnT39erK5ves28y0a4HQt7bboJR8/29p/6pp54Cyj3nVnC9Z9/KrPMjfPbZZ0DpYdF6660HlERGr732GlA+r6PzaLrppgPKvfMmJa63rbfeGii9A+OPPz5Qtpujlf3zn/8EYI455ujv5x5Ujnrm16effhoolesLL7wQKJVyR6EyobHiLOfnsNfHHpj6ce7vJiv2Kvn5HC3LHgNHS6pHz2rH7evxYJJRH0eO/mYF3tGhHFXK5auP54MPPhgoiUTda2By5nbdfffdW55v74pJkfu929v1b3LZ7vhs59NPPwVKYuB5xuTG/dj1bi+TiYFJiMdHze0vj7N23I7u3/V5wETN+UDcLjV7xVwue+EiIiIGZ0k6IiIiIiKiUYOUdGyyySYA7LfffkCp8FnZs6JqJd3RZBzn/rLLLgNg+umnB+CFF14Y4Pt5b7Wv76hViy22GFB6LTpi0uDoMvaOOMqSo/DMPPPMQKlMWnl2FCkrp52dT+G7775r+d715ehFjrpjz4TrxYqyvSbOc/DNN98AJemx98MeEyu6JjXeQ+/7mYT4+rKHxXv6TQTcPt57b0VdJlKO1mWvg70FJjO+vpVzex3qSn9T3H4rrLACUCrljk7k+7tf1Ewm7JExOTKxqRM+Rxty+5p4OR+Do5XdfPPNQNnfrNi3q8DLSr4zbrv/1Kz833rrrUA5/kzG3C8WWGCBlufV8+fIUbvWXXddoPT4tDseXC6TSJOzeeedFyhJzcAyMbEXyQTBJMmkxqTFz2fvlNvZ496eHEf3qpmADiqTnnYJh8ezvUX23jiaXURExOAsSUdERERERDRqkJIOkwDng7Dy6QzkVtitdFsRthLq85wnwXvCHW3JSr0cBaeu5L755ptAqVjXM6DX7DnxXngroFYSvZfaZMBRuNr1brRjBVb2OPh6JgzLLbccUCrbVtK9l9zPY8+ElVIr8yY9zjRt0mHF3NGaTELqe/brKVq8x915SlxPPs6KvT0PMomx4m4l22TD0YusiMveAz/PoM7P0Fn3338/UHoaTDycx2KttdYCShJmguNoQ+4fVuhN7o455higJAkPP/wwUPZL+br1qEeOamVCaK9Tu6TDUa+OP/74lvevj5uay2OFf8cddwRKUmiF/fDDD+/v800EjzrqKKDMs2Pi2Y77v19NHB988EGgJC2eBzz+nMfD49ZeCUeT8vcmiY4WZxJr8mEvhtvZ48GkyMTHeWwcZcvjQF3da1Szp8lEzK8RERG/BUk6IiIiIiKiUYOUdDgakZVhK8FW8h3l5qGHHmp5nqPVjDzyyP19XSusVm61+eabtzzfmY/tObDS7ozOnWXl1MqzMyk7Lr6cj8QKv70q9iLUHA1JVmZ9vMmBFVoTF3tVnDnZ+ToczcrH+9UKrpVrK7O+vp/PeSWcydztVc987YzhVvS99933c/QnkyfZI+L8JFaUZS+IyYCcCbyj0by6ikmL29v91PXt7x1NzaTDxMjei5q9Ru4/Vubr+WrqngmZ+Jl0tPPiiy8CpYfE7eE8Nu24vVz/9XwbjoJmpd/eIY8zuR09Ti+++GKgrMd2fD9HYZpkkkmAMmqcCZwJ0RRTTAGU48H16PHz1ltvAf3uvyZx8jh1dCuPF5MMRytzND3nZ3HUOH/vec55SLqan9PR+UyGIyIifkuSdERERERERKMGKelw9BsrgFaCZUXWcfy9V997lB0n33vQHaWlnpfigQceAEoF2EqplUrvsfZeaHsE6gptO/acHHjggUCp8FrplxVWez/q3hF7SxylyWRC3rNe91C4/CYFVjzl6EGOriOTAde7o2lZOXYUJivHVtLtBXB5vQe+fl17SqwQ13zdmvMtmNyYsBxwwAFAqfRb6XZ92Cugzs5o31nOqG0PgMtpRb2umFu579WrF1BGabLSbS+E80rYizTmmGMCZf/w9WXPjpV9e0see+wxoHxuk7HannvuCZTR1C655BKg3/kkai6vydKjjz4KlNGYOpoXxHlJPO5MWJzfox17NEx+7NVw+/t5TYoWXHBBoJwvXM523N/l/EE1e0lUj8rl9ve84ahiJpsHHXRQy+Paqffjjnie8Lj0eHH0uoiIiN+SJB0REREREdGoTiUdJhed5eg7VoCtvJsg1KMUWbE00bCnw3ucvYfbe9kd536rrbYCyug5Jh5WZDviqFvOsG2vistjIlAnFFbs7d2wYmyF3FGf/NzOk1D3dFx//fVAGUWp5uhAjlIkl9dKspwRvB1HXbIi62hO8nvXp8mHy2uPQz3Tsr0cMiGxB8fKsaMeOZ9Hjx49gDKakAnaIossMsDPMbBMBBydyx4OK+sup0mZ85S431kp9/nOU+IoZPZ6WLG2x8YeGV///PPPB0piZsJlomLvUj2Pg70iHh/XXnstUOb7aMft7HHo8vr5TTg8vt1/rPg7Cps/d9Qpt1NHlX/PA/vssw9QjgMTp/POOw8oSVy7Xq92HL3N84m9Jv7c5XMUtf333x8o84U4L4ejaLmePe6c16VOcu1xMjHr3bs3ULa/o5SZ8Nlb4vnLmeDdP9z+HicdrdeIiIjBUZKOiIiIiIhoVKeSji233BKA7t27A2XeiHbmn39+oMwbYWXXil/NCqAVcu+l9p5vEwPnM5CjyzhD9w033ACUymF9T72VYSu8Vm6tCFthdt6L9dZbD+i3AnvSSSe1LI/zeFjJ9p5xx/+3om2y4jwn9j64Pr3X/8svv2xZTntO7N3w5//4xz+AkhS064Xw8zkviBVnRx9yfg05o/hpp50GlMTHirKJh6z81xVat4+VYXsrrKTXM6N3NArSoPJzWNm218j5UewV8nFWtp1XxkTJyvXee+8NlMRp9913B9rPq2By5+u53p3B3BnO3f72aJis2JPhKFUehx1xf/D9/Xz2VPi5/Lw777xzy/Pt5XDUM5O9eub1dkxu7HUxQdx0002BkizZqzKwFX4TBY9XEzpHoTKh83hz9C05yprJqImOiWedcMjt7n5kb8bEE0/c8r72qtVJpvMNeZx53qrPVxEREb8lSToiIiIiIqJRQ/StGxYGY1b0/Ui5N/qnsdLtaFXOZ2CyZKXYCm27UZBMgrxH3lG7HM1ocOV+1tXzjDiPigmMoz85D4s9I4Mrj9OuHqWsfn019T4RERHReflrHBERERERjfpNJR3x+2QPjL0hHTGZGGGEEYD2M7TX81/4OHtU7BHq6kq6ozDZc+Gob873EhERETG4SdIRERERERGNStIRg73ll18eKKMAOTN8O97z7+hhTz/9NFDmGzG5mGmmmYCSjDz33HNAGe1r2223BcqoVZdeeilQ5sUY2J4i3+eTTz4ByszmjqJk0vJzc36Zn4vrv7O9MiZck046KVDm4XB7OtqUo0a99tprQNkPnAHcmeHtnXEULOdZ+eMf/wjA66+/DpTR7hwNzuebSLfCr/0AACAASURBVDnjvHw/5w1xtKt3330XKNvX13FUO2eAN2HzdR197amnngLKflKf0gf1FF9vB9/Xn/u67h8+ztEOp5pqqkF6X3uYnO9ocOnJcTkdTdBR6twu9Xry8Y6OuPDCCwNl/3OGeh/3a+vlMmE2EXZ7Ocqi5z/3g6+//hooo705qqWPc/14/vO4dTRI9zffr93ochHx6zV4nM0jIiIiImKwlaQjBnu33347UGYQb5cw+HMrqWeeeSZQKrj1qEd1j4jPt/LovCImK87gbUV6UEe1qivJP/ch6nqwsup8NX7+ppbH9emM587c3dH8LS6P29FR0ey5cTu6fertasXUUdn8OsooowDwxRdfAGU714mDXx2lzddrt/19fZ/n8vg5/L2v4+fw9z7emdet/D7yyCNAmUfF5zsvzsDuj84Y//777wPw6quvAqWS7es7344VfivYs88+e8vydsTlsyLueujq0eGa5vHz2WefASVhc74aP5frq+ZxNsEEEwCl98z5qurRGf3e961Hh6vPa6qPK7eTr+tXf+48W46qZwJoEmcCfPPNNwMlCVx55ZVblsP9ap555gHKfDsePyaJjp7oqIked48//njL52unTkbWX3/9ls8hj2/n1Rpc9zu3Z1clg/Vx6+t29nhupz5fm0x73q7fx+3wwgsvAGU/cz/0777bbdZZZwXKecsk+NFHH/1Jy93V/Pzt9jOTv4G908D1ZuK++uqrA+3/L6mTxvq84e/93uf7+Pq84fnOz+d6d3TTJB0REREREdGoJB0R8Zti5cuKi5VUK2AxaEyerCCawJhsmIBYwR/YCp2PtyJmpX9w98QTTwBlPb344otAWY9W2scff3yg9Hi4Pqz4n3zyyUBJrqz02hNkL8h7770HwCSTTAKUnjUrkVY8V1xxRaBUJC+88EIAll56aQBmmWUWoFQq5513XqD0Ntmb5DxNVkI9/jzuTAhNbPw8/rxO8upKfZ3cHHnkkQD07NkT6HxvR0c9dj9371pXcXsutdRSQDnP+fOBVfeM2WPjfnfttde2PG5gWSk3mfA4cL/w+LBXzt63iSaaCCiV9fqOgPr1Vc/f9kupEx7vIDBRdzn9/S233AKUedI6u75dL67X3r17AyVJMvFXr169gNJ79cYbbwDl/Ot53/OX281E3fNEndjXn/v/etk69SkiIiIiIiIGUZKOiIiIiPjZWNm3h8vR+z799FMARhxxxJavJmXROSYSJhv2NtUJmL83cXFUOte3vWl+byJoQjnaaKMN1HIl6YiIiIiIiEYl6YiIiIiIiEYl6YiIiIiIiEbloiMiIiIiIhqVi46IiIiIiGhULjoiIiIiIqJRueiIiIiIiIhG5aIjIiIiIiIalYuOiIiIiIhoVC46IiIiIiKiUbnoiIiIiIiIRuWiIyIiIiIiGpWLjoiIiIiIaFQuOiIiIiIiolG56IiIiIiIiEbloiMiIiIiIhqVi46IiIiIiGhULjoiIiIiIqJRueiIiIiIiIhG5aIjIiIiIiIalYuOiIiIiIho1FC/9AJE/NzeeecdAE455RQAVl55ZQBmmGGGTj3/hhtuAOCNN94AYNNNNx2o9//+++8BePnllwG44IILANhoo40AmGiiiQbq9eTn2nvvvQHYfffdAZh44okB+Prrr1ved+ihhwZgyimnBOAPf2itQXz77bcA9OrVC4C+ffsO8P1/+OEHAMYZZxwAxh57bAB+/PFHAF566aWW1x1ttNEAmHDCCTv9GQeGy3PLLbcA5XP6tZ0+ffoAZX1OOumkA/W+Pv/mm28GYP755wdgjDHGGODzXE+ffPJJpx4fERExOEnSERERERERjRqi7wDKl1bqTjzxRADmnHNOAOaee24A7rnnnpbHb7PNNgCMOuqoABx44IFAqTQed9xxAEw//fQtz9trr70AuP322wHYYYcdgFKB1uuvvw7AYYcdBpTK9Prrrw/AsMMO2/L4r776CoBtt9225X0mmWSS/n7eRx99FIDJJ5+85XN0xFX40EMPATDzzDP3d3nil+F+s9122wFw1113AfD+++8DMPXUUwNw4403AjDZZJO1PP/VV18Fyn532mmnAfDNN98AsOqqqwJwwgknAB1XqA844AAA9txzT6DsxyYoA5t0uP+deeaZQDkOn3jiCaDshyYqu+yyCwBDDTVUy/J7fLr8d999NwALLLBAy/t05JJLLgFgpZVWAuDQQw8FSvLi65iEXH/99QDMPvvsnXr9jrz33ntAOd579uwJwJNPPgmUpGe33XYD4Msvv2x5/ueffw6U/WaWWWYBShLl+tpyyy0B6N27N1CSIxOwp556CoDbbrsNgEUWWaTlfY444ggArrrqqpbnu19efPHFQNk/IyIiBmdJOiIiIiIiolED7OkwkfjPf/4DwBVXXDHAFzMZMdl47bXXgJJgeA+9FT498MADQKlAr7jiii2/twJ8/PHHA3Dttde2/H7fffcFYL311gNKwjL88MMD8MILLwAw22yzAbDooosCcNZZZwEwwggjAKUSa+XykUceAWD//fcH4LLLLgNgiCGG6O9X71lfcMEFAbjpppsAGHLIIYlfjvujlf/ll18egOmmmw4o+1ePHj0AePjhh4HSE7DYYosB8NFHHwGw7rrrAqVH4pxzzgFg3nnnBUqiUrvwwgsBOOaYYwA4/fTTAVhrrbWAQU/GPvzwQ6AkHEsuuSQAE0wwAQBPP/00UJIVP+coo4wCwNlnn93yeiYiF110EQALL7wwUCrurpdhhhkGKMnBxx9/DPSb/Bx77LEAbLbZZkA5Xnz9v//97wBcd911A//h/x8TBtfDs88+C8BJJ50ElPOByYbb3e077rjjAjDWWGMBZT0ut9xyQDmuTYhMek0oTLBMelxvdYLz/PPPA7DHHnu0PO6f//wnADvttBNQEl/Pm+OPP36n10VERMSvTZKOiIiIiIho1ACTDu/ttpLnqDQ77rjjf5/8vxU/K3t33nlny/dWWrXssst2bqH+93Wt4Nqz4b3Ofm9yYaJw0EEHAfDdd98B5V5y76V2+UxsrIhawZSj9VjRNbExMfH1rKxaOfUede/1l6PgjDnmmEBZn/HzmHXWWYFSMXb72fNjj8YXX3wBwLvvvgvAeOONB5R79+1tmGuuuVpe/4MPPgDa9wDVPRzufyYOP5VJwkgjjQSUirnJiT0Jr7zyClD2U5fbZGPaaadteV1HUTKZ9HXk87fffnugjJol15O9InWCaaLkcen7OapVZ7kcJph+vksvvRSAGWecseXxDz74IFDOHyYedSK53377ASXRMeGSCekyyywDlPNbR+c5e8dMyux9sRfM/WLrrbcG4L777gP67XGLiIgYnCTpiIiIiIiIRnVqng4r/iYXu+66a8vvvafbipwVzG7durU8zkqrv9enn37aulD/m3Q4qo0Jh/e+O0qPvCfbe/YdZch7yK1U1p/HCqOj2vi+tXrUHns8vIe//r33rD/33HNAGaffSuzRRx8NlHvIo1lWtOWoROeeey5QEoLLL78c6Deh8x57uZ/Zm2FiUs/zYbJiwuE8GP7cniJ7S/bZZx+g80nYlVdeCZQkxd6IqaaaquVxVvDd3+xNeeyxxwA46qijAFhllVVanudxVs/fIXupPH7qJMReBr+a+Jn0OH+In9vkoLNMJLfYYgsARh99dKCMzmVCs8EGG7QsxzrrrAOUhKJOON58800A/v3vfwMl2a1HvXM7mXTaA2bS6fqoP5fJiurzZO3tt98e4O8jIiIGB0k6IiIiIiKiUZ1KOqzoOQqOvRJvvfUWUCqijobTvXt3oIzSooGdubmuQDrKS80Ks5VaK7fO8GuyoSWWWAIo4+dfc801QPsKs8mFrJxaQbfXw4q3FWDv2bY3xcq0oxsl6fh5nXzyyUCZt8WKtPMvmHjU3H6OrmTvgr0fjqpWz1xd7/8mXSOOOCIA999/P1D2C3sTXM6O2Lvh/l8nkDVHz9p5552BUtH/29/+BpReCLVLODzeTYochWq44Ybr7+Odr8KeDpNRExqTyjqR7Ii9Y7feeitQEiXX49VXXw2UUcL83J6/6h4cE0v3B3vDPJ7ledDejHvvvReAww8/vOVx9p6deuqpQElSHVXLZGbxxRcf4Od0vo6tttpqgI+LiIj4NUvSERERERERjRpg0mHlcppppgFKsmGF1nuc7Z1wlJg11lgDKPNeyNFfvJfbBOG8884DyvwYVlgdlUoDO069Ferzzz8fKEmMo/38+c9/BsrMxFa+64pt3bNh4uIoO1ZyHSXJGaXtYXG8fR/vPfzx83J/tQfAeRscvcp5ZpxXZooppgDgxRdfBMp8MquvvjpQkiyTLyvtJgcmCyZaJgOOAue8LgsttFDL4x2FzdHOao4GZS+F80W0m+fj22+/BUrF3dG7nFfD9xt55JFblr9mZd+eCR9nctiOvSsTTjghUOa/cJ4KeyEcbcrzwBlnnAGUhMDk0vNNfR5y/fs4ezhMXk1E3G5uf9lr5fb3a83ziL0e9Xw97i9+7jnnnBMY9KRijjnmGKTnRURE/Jok6YiIiIiIiEYNMOmwQmrF3oqt97DX94B3xAqzoz7JiqUVzvnmmw8oiYMzJjuaTD0Ovr0U7733XsvPvXd+7rnnbnkdR+/xczhPh/dwW/FtxwrvZJNNBpRKsQmNFc955pkHgDXXXHOArxfNsrfC0YSstMt76028fLzzdJhQOVqV29cE7JlnngHgX//6FwCbbLIJUCrUVszdvzTllFMCJUl0/3bUM48Dub86L4bf16NGyYq/ozzZ6zT99NMD0KdPH6DszyaTK6ywAlB6RVxu561wfdgb05GDDz4YKL1V9k45D5DLZQLhKFf2YpjgfP/990CZr8JRoewFqZMek0e3t0mHo+WZdDiKl8mLPVcevzXPextuuCFQ9h+TKUebcpQqEyU547m9IS5Pu/NOvR9EREQMjpJ0REREREREowaYdFjh/Oyzz4DSqzCwCUdH6p4JK5YmEFY0HR3Gce29V9p7uZ0nxFGlfFxdAbXiagLivAZWrDti5dpRq6wo+9V7vq0oe8+9yYv38Nejc0XXsoJt4uB+a2+Fo0nV28GeI3sM6lGINt54Y6AkHlbuV1ttNaD0GDgq0VVXXQXA3XffDZSeJ5MGR8FyP3Rmajnakz0Ee+21F9DxaHAmgFbKTVbsTbHS73J4nLn/yhnLnV/Dz9Guh8TXs4fBUcFMguTn9Pi3p8qE4Y033hjg57OXxITooYceAsr2dr3+5z//AUqCU48aZwJisuW8Ie08/vjjQDl/OI+L8wO5XtutH3vbnIfIRGRgR/eLiIgYnCTpiIiIiIiIRg0w6Xj11VeBUrlsN25/O/XoMHWiofpeZiuAVnYdj9+Ks/ee+3pWmhdYYAEATjrpJKDMLO3nkEmHo+J4D/fmm2/e3+Ws5+lwHP92HMXL0XCssDpqkfdytxudKLqGlXsr2FbOHVXoxhtvBEqvhr03bj/vxbe3yP3D/cnRp5ynwURLznx94oknAqUHwNGNevbsCcAnn3wClAStPh5MCEwM7I3qLCvuDz74IFB6OHwfR3fzODDRtMfCeS0ctaruyao547vr2ePN5MfzgomN67vdPCnt2Ntlb4nr2/l3XA4//9JLL93yfHtG/FzO41Gft2qeN+ToWyZh9qi5/9U9GSagJj32hDmq3ZFHHgmUnhR7fiIiIgZnSToiIiIiIqJRQ/RtFz/8P7fccgtQZjB2XoKOeI+297Q7Xr73zMtKr4+zgmlPhov45ZdfAmU+A2c0dsZeK4P1zOKOauXoVc7P4bwB8t51R8/ZeuutgVJptmej3czJ/t7eAXsGXD57Rqwo1/fuRzPcb7x33+1qBd4Ew2StThruuOMOoIzeZGV7rrnmAsp+6LwQNRMRe0Q8LkzQ3A969OjR8jxnQF9uueUAuPzyywFYaaWVOvrIQOnJch6SL774AigziNs74fubJHr8mMjYg2TvQbvRsmr2gDgzuImQo1CZfJhQzD///J163ZqJir1dJoq+jz00Jjz1KFgmWpdddhnQ+Z41Zyo/4YQTgLI/2dNzyCGHAGVelJq9NSZeJmWOZuV8QjlPRETEb0GSjoiIiIiIaFSnko5fGxfZyqKjD9W9F13FBGNge1qaep0YNO43bgf3l85uD/c3X8fndfX2fO211wBYZZVVAJh88smB0nvxU0c983PU88rUrLjXo9cNLNeXyYvvZ2/ETz1u6/OBX2UyWb9P/biBXa/1+8r3GdjXcxQukyTnMYmIiPgtyH+/ERERERHRqMEy6Yj4/7799lugJBg1K872KnhPv1+tuNejEv1S7NkwaTjnnHOAMhrbr02dOEZERETUknRERERERESjknTEYMteA2emfvbZZ4F+Rxdz/oMll1wSgJtuugmAJ554Aigz2zuak/N6OGpUfc9+zQq/88s4j8fAVv7tsfjoo4+AMoqW80yYzPzc6l4W+b3zzjjfRq1Okkyk2iVTHS3H2muv3fJ+77//PgBjjTVWf5/Xu3dvAD744AOg9MyMOOKIAIw66qhAWb9vv/02UJIle1ns1XC0qeeeew4o281Rr5wR3cc7I7qjh7XrYXH9ODO967Vdz1C7+YT82m6UPdlj43ao97OZZpoJgFVXXXWAr9PVXK6OZqTvanWPVr0+23E7eLy6P/1efPXVV0DZfzzvebw6Wp/z1kTE71eSjoiIiIiIaFSSjhhsWaF1Hggr3s77ct555wGlcupXezusLFvZ9fdW7EYffXSg34pyzUqo8z3U83AMLCuF9WhbPzfXy/LLLw/AtNNO2/Jz1ZVNWTE+99xzgTJPjTOP+7WzpyDXg/P8WFF2fgvnxZHr30TM/cMeIJfP/cDl8PcmBe4PstfGGdvlflXPrP75558DHSdmLu9www3X39eXr+M8Qy6/CZvb55VXXhng+7ke/Zwvv/wy0O98RM6b5EztTf3J8PO7/p0vqWnuB87nZCLm/D5uh3bHs+vDhMr15X7Tq1cv4LfT81SPPuc8RCbEJhp1sufx2qdPnwG+vudhj+d5550XKPul+4ev6/Hg9x6HPs7ldDt7fHicffjhh0CZ78ftaUL+2GOPATDbbLMBJSH3dTwOTcxNvNzejz/+OFCS0RVWWAGAK6+8Eij7l8miSWxHyWg7HY2m6Hps18tYj27o4/08fu5lllkGgBlmmKHl512t7sHsan5O/07ceOONQBk9sqtHRTVhd7TCu+++G+j374bcH9daay2gzEPV0d+Tprlc/r/TWUk6IiIiIiKiUUk6IqJRVqisxFvx7Nat2yC93ltvvQXAQw89BJQKfF1xsULn+1gx/a3zHvv777+/v793vViZtTLtjPFWmmUltuk/FS7XKKOMAsDCCy/c6PvV7rrrLqBUtq3I33rrrUDHPTJ1RdYK6S+VVHa1OvmcfvrpgX4TWb/366STTgqUXqmzzz4bKMdxuwTIpMjj3KRyrrnmalkee69Mph5++GEAunfvDpQEz0RjyimnBMrx4X5mQlJX9uvR+doluu3mHXI5fZ77kUmMfP16PXbE17UCvs4667Q839c1Qbn00kuBsl78KhMrewvtVXv99dc7tTxdzf3MJLGpCn89n1RHx/ugMpmfeeaZgXJ+bXe+/rXy767HT33HQDtJOiIiIiIiolFJOiIiIuJX6c033wRKkmEPhYmA98KbKJig+Dh77UwAxxhjDKCMjjb55JMDJen4vTD5sZep7r1xfdmj4nr8ubh9xx13XKD0WA7uTJzGH398oCQ3jrLY1T0kXc1LBo8Xj5/OLneSjoiIiIiIaFSSjoiIiIiIaFSSjoiIiIiIaFQuOiIiIiIiolG56IiIiIiIiEbloiMiIiIiIhqVi46IiIiIiGhULjoiIiIiIqJRueiIiIiIiIhG5aIjIiIiIiIalYuOiIiIiIho1FC/9AJEREREBPzwww8AfP311wCMNNJIv+TiRHSpJB0REREREdGoJB0RERERvwIfffQRAA888AAAyy677C+5OBFdKklHREREREQ0aoi+ffv2/aUXIiLit+a7774D4NNPPwWgW7duv+TiRERE/KKSdERERERERKPS0xER0YAff/wRgD59+vzCSxIREfHLS9IRERERERGNSk9HREREREQ0KklHREREREQ0KhcdERERERHRqFx0REREREREo3LRERERERERjcpFR0RERERENCoXHRERERER0ahcdERERERERKNy0REREREREY3KRUdERERERDQqFx0REREREdGoXHRERERERESjctERERERERGNykVHREREREQ0KhcdERERERHRqFx0REREREREo3LRERERERERjcpFR0RERERENCoXHRERERER0ahcdERERERERKNy0REREREREY3KRUdERERERDQqFx0REREREdGoXHRERERERESjctERERERERGNykVHREREREQ0KhcdERERERHRqFx0REREREREo3LRERERERERjcpFR0RERERENCoXHRERERER0ahcdERERERERKNy0REREREREY3KRUdERERERDQqFx0REREREdGoXHRERERERESjctERERERERGNykVHREREREQ0KhcdERERERHRqFx0REREREREo3LRERERERERjcpFR0RERERENCoXHRERERER0ahcdERERERERKNy0REREREREY3KRUdERERERDQqFx0REREREdGoXHRERERERESjctERERERERGNykVHREREREQ0KhcdERERERHRqFx0REREREREo3LRERERERERjcpFR0RERERENCoXHRERERER0ahcdERERERERKNy0REREREREY3KRUdERERERDQqFx0REREREdGoXHRERERERESjctERERERERGNykVHREREREQ0KhcdERERERHRqFx0REREREREo3LRERERERERjcpFR0RERERENCoXHRERERER0ahcdERERERERKNy0REREREREY3KRUdERERERDQqFx0REREREdGoXHRERERERESjctERERERERGNykVHREREREQ0KhcdERERERHRqFx0REREREREo3LRERERERERjcpFR0RERERENCoXHRERERER0ahcdERERERERKNy0REREREREY3KRUdERERERDQqFx0REREREdGoXHRERERERESjctERERERERGNykVHREREREQ0KhcdERERERHRqFx0REREREREo3LRERERERERjcpFR0RERERENCoXHRERERER0ahcdERERERERKNy0REREREREY3KRUdERERERDQqFx0REREREdGoXHRERERERESjctERERERERGNykVHREREREQ0KhcdERERERHRqFx0REREREREo3LRERERERERjcpFR0RERERENCoXHRERERER0ahcdERERERERKNy0REREREREY3KRUdERERERDQqFx0REREREdGoXHRERERERESjctERERERERGNykVHREREREQ0KhcdERERERHRqFx0REREREREo3LRERERERERjcpFR0RERERENCoXHRERERER0ahcdERERERERKNy0REREREREY3KRUdERERERDQqFx0REREREdGoXHRERERERESjctERERERERGNykVHREREREQ0KhcdERERERHRqFx0REREREREo3LRERERERERjcpFR0RERERENCoXHRERERER0ahcdERERERERKNy0REREREREY3KRUdERERERDRqqAH98quvvvrvg4b678OGGWaY5pcoIiJ+dfr06QPA0EMPDcCQQw75Sy5OREQMZpJ0REREREREo4bo27dv3/qHVrTmmWceAJZaaikAtt9+ewC+/vrrlsf7EuOOOy4Aww8/fMvv33//fQC++OKLlp9369YNgJFHHnmAC/nll18C8N577/13oYcYouX3f/jDf6+dJpxwwpbve/fuDcD555/f8v7+Xt9//z0A0047LQAbbrhhy+9PP/10AJ599lkARhllFAC22morAMYYY4wBLv/g4vPPPwfK9hp22GEBmGCCCbr0fdye7777LlD2l9FGGw2Ad955p+XxY489NgAjjjhily5HNMvj1ePOpNT9qT6O49fpueeeA2CttdYCYNZZZwVgt912A2Caaab5ZRYsIiIGK0k6IiIiIiKiUf1NOj7++GMAll12WQDuvfdeoNzD+8MPP/T3xa6//noAll566Zafr7feegCcc845LT8/9dRTAdh44437+3qvvPIKADvssAMAV155ZX8f53JdfvnlAKywwgoA9OjRA4Crrrqqv8+r/elPfwLgpptuAuDggw8G4K9//Wt/Hz/bbLMB5XNNP/30nXof1+cRRxwBwH777QfAkUceCZSk4ZBDDgFg8skn79Tr/lR/+ctfADjhhBOAUtk877zzuvR9Lr30UgBWW201AOadd14A/v73vwMlWdNFF10EwOqrr96ly/FTvfXWW0BJ1Kzcn3nmmUDZHzbaaCOgJGS/VZ5Kbr/9dqAkhq+++ioA4403HlCSxznnnBOA4YYbDoBHH30UKEmrFfWRRhqp8WXvjDfeeAOAW265BSif7/jjjwdKYur5bHBN5kw8TznlFAD22GMPoCTBzz//PFC2y4MPPgjAJJNM8rMu56B6+umnAbj77ruBct6fdNJJAfjuu++A8jlnmGEGoOuSOZNeE117Jl1/b775ZsvPxxlnnJbnf/TRR0BJiOs7C34tHn/8caAkndNNNx3w27kzYHDlHQaeZweX4zZ+G5J0REREREREo/o7etXoo48OlAqQlfk55pgDKJV3RzG59dZbAXjyySeBfpMOK0e1dj//5ptvAFhzzTUBuO+++4BScZppppmAUlk0Ydlll10AmG+++YBSSTfp2H///YFSsbv44osB+PHHHwHYZJNNWt7/8MMPB2DUUUcF4KyzzgLgmmuuAeC0004DYMcddwTgiiuuANpXIv4dvQAAFzhJREFUnqxQrbrqqi3v6+e45JJLWr53/bperYAttthiANxwww1Auae63b3Vvo8VaCvIdcWpfv4222zT39f7qez9kaOk2buxzDLLAKWyaAVS7fYbmXy1692xIu/vXT/tnld77bXXWpbTymk7JnDuN+5P7Zar3XL4uTu7nDVfv/68neVy+ry68mtSseSSSwIl2TExs/K5yCKLAHDGGWcA5Xjw5yOMMAIADz30EFASAxNWK8D153L55PHTTmef53Hn+cH3N+no1asXAP/617+Acn5cbrnlALjrrruAktjOPPPMQEkUf22jAlrhd/vcfPPNACywwAJAWQ+e/0x+/PmvnX8vdt11V6DfxN2kZ/HFFwdKAuz2swfR87mJ9Oyzzw6U5NMeSLevPU7uFz7O/WmiiSYCSoLq/n7UUUcBMNdccwElCbbnzvOA+3H37t2B0nMz5ZRTdnbVAPDYY48BcOCBBwJlf/D43HnnnYHSQ6mHH3645fHeIfD666+3PN/14vr1ePfv09tvvw2U41N+73o2QfH8a09gvX5eeukloCRynkenmmoqoPSu+ri111675X09z3ne8/z57bffAjDjjDMC5f+Dl19+GSh3Svi+/l/g39VVVlkF6Pg8Jbdnz549gX7Pg25//47bi+rn9Th2uV588UUAtt12W6D0qI411lhAOQ78P8PP7/m9XQL9yCOPAPDUU08B5f8t99+OuH694+TTTz8Fyvb38/h/jOdTeeeI68k7UewlvO6664B+z8v+X+Lfqb333hsoCf2xxx4LDPzf3UFlIuXn8O+p+7fb38TK85rrx8f5/4br1f/XPX+5fU0it956a6C5OwySdERERERERKMGOE+HiYc222wzoNyjfscddwClknvbbbcBpYL04YcfAuXKceWVVwZKBefEE08E+q0gWjky4VhjjTWAUnmrkwSvBK+++mqg9ERYifaKzc9jz4dJjnyc99xaObBStMQSS7S8rhVYl8seFK8Ya/fffz9QKlkmIyY4Cy20EFDu9bXyteKKKwJlPY4//vhAucd8sskmA8p6cz2ffPLJQElQ3F6uB3ttTHTklb2VCXsUvDffCo0VHrejFaHNN98cKJW9Cy64ACiVKV9HVg5c71bKTD6suFiRcv145S4rTwcccABQ9lOTOiuZLoeVkgceeAAo68/10s6WW24JlArboYceCsA666zT8jms6FkJtpL2xz/+ESiVpvXXXx8oFfNFF10UKJUW9z97IKxEeNx4nFnZcvv6uo42d+eddwKlgmnFdeGFFwbK+rUyZGJohWXTTTcFYN999wVK4ij3byst/t6eIJfTSpkJpImklawxxxyz5X08v7g87k8ef1ZmPU7cn6zcuZ7q85nHx1577QWU49+fTzHFFECp0Lrfuj6sWO6+++5AqUh7PnD9WlkzuXniiSda3rdO8n5pVpLteah7keqkoz4Of+06Go3P85jn/3/84x9A6XF0/dQVbVlBt4Isz2f2aFgBd3ncP90fPG8fdthhAJx99tlASQKskHu+MlHwfG3vlH8XTchrfk6X1/OIlW0TA5M5X9/znucZn3/PPfcAJRnz79FJJ50EwL///e+W5Vp++eWBUqH2/wiPR7eHfwdmmWUWoCRU9gKaQLue1l13XaAkkla2/ft57bXXtqwH73Dw70+d5H7yySdASbr8P8Y7BkyuPF+4PCYwnt+8g8P/I+xZbFdZ9v8Zt8sHH3zQ8rr18luxd7u6fTyP+vn9P8XzrL1pnr/sSfzzn//csvxuR/8frLkcvq/7s+fpOumvub+b7Mj/+zy/uzzul25vt78Jtecne4L9/0UeTz7P/2d8vJ/j50o45B0udfJmouZx/9lnnwGwwQYbAOU4MWlyfbu9fL69lB7nfn4TFnuOu1qSjoiIiIiIaNQAk476nso999wTKJVGKxJeSdpToaOPPhoo81tY8bTi7r10XoE7OpFXbrJi7JWuFX4rpyYC2223HVCu5F1+r/SsfPp6sjLrvW3eC2eFxoqer2Olo75ns6Px6r3nW1YA7GlwfVrJkRV575n3HknvrXU9WgkxMfnb3/4GlMp+vf1cHivNVrTklb3bzXsBTVZMOkwITKqs+LseXW6fZxKg+p5ZEyMr/8888wxQ7kH0925n39cEpB4dxlHMTF58nhU310+939WsZFkBtsJlJc0KvRyly8qPFWMr4wcddBAAE088ccvz7TUyOXC/cH82cTAx8fOaMFphXHDBBYGS6FkZdbu6HFZurcRbwTQZqntB2vX6WBH75z//CZRKja9jhddKltvbhMrl83zh9nO92BNj0mNFztczQfT42GeffYCSNHlPs9tlp512Aspxa4XHRNNKqpUxjxeX2+U1GXQUNiuRsvJor4cVys7ey/1z83hsN9qa5zsNbqMRuR/7Oeeee+6W35s4mKxZka/596dmgmkF3vOj6oq2x/fUU08NlOPNZNvznhVMz1Pubx6v7pd+7/nA82U73gtuxdjjxyTS5fLvjcm452X/Pppw+HfN0c88vrz33vOBlVSTDs+T9nr499jzu/9feLy7/fy75/OcV8a/H54X7EHxPFDfkeD3Jkb+PTQpNxF2vbj+PY49H5lwuLwmCSYj/r12/Zic16N7yvOe5xUTade3/7+4X7vcJhL+f+V+4f9JLrfnOf+uuD+a7LndrJzXd4jU3P7+v+Tfo44SDpffhM/zvqPnmQx5Pp1//vmBkkR4fvV87Hb070udbOmyyy4Dyt/jej45/964P/n31jsQ7En6ufj/hn9P7eHyvOHyuL7tOfY4dX/z/3PXuwmco6ia2NrT1lWSdERERERERKMGmHSce+65Ld9b0fLK2itLK4b1PaNWhmVCUd8r6T2i7eZh8HmygmRloWblxsql9/Z5j7mV5XoUirpSbaXAz+29/371HjkrZd4zX1cwHV3AHgDv4bXy7/r0Hkwr8vVoRbJyYi+I9z76vlaIvAfViow9At77Z6Wq7m2oWUkw6WjHUVqsDJlwOA64lQIrePYoWOGyomZFynvo/d719sILLwClgmhyYS+En8t7rl2fVmxMOLznubOjdLmcbk8Tr3YVaytOfvX5vq/c/62kmXSZFFhZcX83mXC/dZQPWeG3Iu16tPJpQmdCWCdPHhd+NRk0WbFyVbNCbGXNngXvpXa7WWFxNDk/r5VA16vHscvpfuBxYSLi+rRX5MYbbwRKRc9KdZ1oWgmycmsCaE+H68Xz2zHHHAOUCq3HhbwH2ntmXe8uh18HV1baTXzcbvbSDC78+2Nl0P3D85OVdX9v71C3bt1aXqfuhfNecM9L7c6nNY8P/07ZU2APmMm1lUcrySYqno9cTnuRZAW93XxY9ehtVnY9H8tKqD1JnhesFMu/m3Xyb4/dcccdB5S/A54X3S51wlCP6icTDe959/xvz5pf/btkMtCu59IE2POPPB/IpKq+M8B74q00O3qX987LOw5MOjpK2Ovt4991E1z/Dng+MwGwYm/l34SlXo/ONyZf1zswfF23T0ej7ZkAOupUZ+eR8e+Bibt/l13umqMemsC4nt1P/X/M48T91v873E4+zmTERMTj3eX3zgGTM3uO66S0af5d9u+Miaz7gceBPWT+3+DxbOJVj35mT4//H3l8dbUkHRERERER0agBJh01K+qOEuC9pvU9vd6TV9+j6Hj99ZWy90B6RV+PiuM9nI465b19vq8V9brHpE5qrFhaofTKUFZUHFXK5XI0JitYXjl7D7v33vvzdjOTW0nx3kyvmK0IWaEy2fHK23GvO6uje8W9J9KEwO3RbhSa+udW3DrL9WSlxAqe29sKhRWOenQr9zPXV0dMlOrtu9JKKwFlv6nHme+I9zqbDLWrBFghtzfDHhB7KFyfbm/v0XX9mBiadPh4EzorbI4b7v7vz02W3H/kfuRoKVZ6TIKszLqfun/Yo1FXRuRx4/Hm/mdSYUXIRMJKksmZFVCTCJM571Wt17P7qxU5ufxWpFx/VgZdDreH+5PzClnRshLocWgPWrvkUa43K8/uz24PK39uZyumP/eoKIPKnjg/v+dJK9XuB7+2eUdqjuYme3xMGDyOPJ9bMTQJd79x/7UHyL8TjtLjvfiOPuT8B3XSv8UWWwDlODfx8++I5xEr4h9//DHQbwVd9kh4XnH/9bxoQj6wTFjtiVBH8yb9T3v3chQ5EARhuHEKR7ADH8AEvODIlQMBns2evp0glw5JMNoVS/4XgteMptUPdWZVdaK/+zxyTowH1d58TURYaHeYXzwfmO9Uv3T9azFe8/MmHFeKufWB8zRDO3jO0C/TGTB/6DfeT3U865xz1Djc5h//N5u/5GaKBHA95j/r8dZznbbifWG9Xot1Iucfzxna1/Of8W18cIbMZ9YR44Wj5nnEvLCE95+tn2uRI8SJ4zibD6xjPqd+Yv0zn8z6pfnJ85F1mrN/qfv/PVa7UkoppZRSyrflw62XnTPFbsasaonYbdhBc0js8LNKjxNNOSJ2cn4vZlvsO+VpVnVJzgTUW1elwE6eAqBalSoYYlZdBwdH1QAKgh1sXkfi7+2k7ay9v3rRnB4Khyo+S3hdSpcYe0oS50lODIVbDN/s+ilwYjvdd46F/kKhSaVGLCXWKruuh3Kk3SmSM/KEb2S1GYrFVnz+VMLEmKoSIYZfToJYXlAO5B5RaLxufh4xpmLoMzeEM0AJdF9BmVF9hNNCWTVOfa/fUUizqhr0a4oI50UsqXEuxpmyJGZb7tdMSUlHw/WJzYWqHmKDKWVyXjg3csfktnB+tI+cJ/X2835oF0qtKk9Z9cR9EENr/tF/xJhzsI6KGH25UnIQzHupyOuHR0XOD8SO6z/gQPj87jtF1fyi/6qy477K0ZCDJyco5yXOiHGj/j5H3Pyq35iHOR2poFpH5EyYf9YqszPMl9YN17fVqcv1RBUgCi3nXzUlf29+UG0xP4/1wfrJ6eDQ7UVGAugn2ifPheHIpuM9y33wOvqNec+64/kh+4H24czJvclzH6yn1mn3w7zHMZ85a4n1AunszcjqVuZt83CSuTDGhxwLuSDO7TJ/ceLzuvQr/dA6gKxCN8N94qB6HjY/fBbPc6qSqqLmeYBzk+2lXT2vmZeyX8rh8dXrXNrhqtNRSimllFJK2ZUPnQ5KTe5Yl6BIpqJrh8ipgB02J0M2vp0qZVAuxtvb27uvoLRQcFXZoTBRyikJFAY7Y0qSKg+UJjG5dpCuy06ZwscRyaohoBCIQaUA21FTbu0wKUpi8VJJ8j1FhcPhc4mNFbuo7nKetM1JoGhwclIpE/vv7+Q2JGINVVOwI+csiTldq3z4XGI9c8fN6UqliZLtOjhjzhuhsK+9joTyKXaYQqJqCMVIf6K4c67EWstBmp1ITfHL8xJmilNWR5IbIYZTjLQqRHIuxILKyZCTQkHT/2dOB9R71w6UOA6K2FP9Xv/gSBoHifEMzo9YZP2Tk6dfUGSvr6/HGOfxKZfHuHeOC4Uq659nfXextWKnnRNAeTIOvI/29rnF+G89yTtj/tMpo+Tlib0UUPOXce/1KOzmSVWc9Bd13s3HlFfOhn661uHQDhyDPIfIfd0rNyTnkbwP5t3Hx8d312M8y0Fyffqb6kXGs3nY/GU8qaoH662T3uWKqGqn2pvfm/c5d97X/GodtZ7o32K2k6zaqIqN9VE1HOd0mCeMg8yVsO5C1RzrvFhzP3c/zMf6s2pbefL2DPNWVg1bWz3ps4j595yjXThlniPcN1W14DyMGVld0PPHUrtk9TGOq+qD5k3ns0CuCEfF/CsSxf3R/5LM+Uxnb4bzI1yPnDFOlfna+DHf6z8cY+PSvKc/+F6uhuc3/dm4R56/of96LtEuWe1MP/a8u3SuyVqyHTnpnttg3bNeq7Lq/msPzyUiYVS39PyXkQSXok5HKaWUUkopZVc+dDrUbbYjotxSjGeIOaeIUZxndbEpnRT43DnbidmZUlxTybPzp6ja0VIg7QiXci6Sp6enMcZ5Z+ukbTtritLa1xUrCcqXnblcFo4CRVSugBwU7ew61KX2+aHql1hAzpV2o9BTQCnBrjNPTHcdWR0rqyvBieTuW35u101ZoTBzIqD/6If+jqKS58HoH9qVUi2GX3/w+4xxXUKMtNd1/WLdVVl7eHgYY/zpZMghML7U+3c/tY8ciFSOOCVyCMTuel9oNwocZ4VToD9T3ig0lDfK3NqcA8oPB4XDxfGgHFFUKKJybShGHDaKzcvLy7v30U7+nsMgl0PsrPdz/gbEinMUKXjGhXY0bjhU+j+cn6B/izHW7ynLlFA5Y657qbpNwhlQhcs4oDxyHIzHdDpmzp7fa1ex0O6j+U1stPvm9c2za3Ed6Tik4n1ptFPOLzPMD84BEBPPkXFf3Q8OkBjqPNFcjDcF0vhP51L7W39UqaNAah/rASUzzx/hIBlvM/Rj48Z9loOp2qFYcPMPJd986vfmEw6qcWScm89SoXXdFO2tTqDxbr7iqPwtxMAbL3KHPE/pH3IkzA/6yYzPxtR7fuKYqWbFmXKd7hvHOc9z4fDBeud5zXqi33PkrMPGjRybdGzNY85PUr3R+qp9OD7mbQ6WCAaOJMzD5n/jzHVrB/dHVUORBZxquc3WBevS0jkdGaHwVUTIeF4WUeS5jtPNkZHDof1EIhjfHGfOps9v3sj17lLU6SillFJKKaXsytVpbcBd+a34U/qXzsNIxErbeVKQ5KisjV0t77Fjz1hTCrbcC0qY2FHVnyhiqss4kXctlBex+95/a//436AQuS8Ude1DmaV8qbJCOfN37q925hTkCdHZDyjVs9jjS8HZ5QBQqL/bSd3gsJrvZs6DpUNOgByGo6N6GseLY03BB0eSQk8ZlctCsaf4Q//lAOmvIgXkNnFGnWOUyihng9POAV1y1t0XORkZcz7D/GWcue8Uaco1hT5j3mHe5WRT+CnP9/f3Y4w/Hdybm5sxxtnppMyvXRe1k3Hn/52fMYu4mGH+UpWPk2l9yOo/2l0OjnHEiRX5Qdm3Li2dF+V1OGsUfc71EhwCObecDP3UOUycb/1FLhLngbOeToWvHBHrq9f1+zxZ3ffaUY4cp0sur3HovrqP2jNzVyAnzXj3ueTg+t7J8HKM3Re5TPqVfiASRa7J1vO+1qLfcqxcB8eDE8GhUDWTM8s5Mj9zfOTCGH/GpUgZ45pDeWnqdJRSSimllFJ25ep0Op0oKGKG7agzd2L6IqGEURjE2tuZ26F6va2xu3kd/t/7QRWPoyIWV2ydGNi9dpY/Fe0sp0F1Ckqc2GnKjapLsxPlS/kI841YWLGz5dhwxsR675VL8lPJ6oyzc0XAWfD3FNet94VS7qvX2XqeyKXwuTjfn83R4IxxsLauU9o1z1/jnOV98ffu49J98Huvt3TOW/6fHI08QZ3C7/d7n4x+FLbeL88x+v2syqV2/VeRGHU6SimllFJKKbtydTqdTmLa1St2voPYStUWcodpx6QOsZ0Txd4OjbJsByaGT1Wqtag64oRH15mxgjMlpfxsxKhn1adSvkKeqP7VE8ZVw1IlaUmRoohxgvN7XylfrnNrdSCvq3qbqi3mX++Tr+/nS0pzVtuSm+P15cR5X1VaVIPKE41LKaUcizodpZRSSimllF1p9apSSjkQzjVRrWWWA5fOw+3t7RjjXHVGNSJOgSo0qmupnz+L/U04F6qGiS2H6kvq/qtmxYFQ357j4bp87/9VixJLzpF0boxzhFRpubu7G2Ocq92UUko5JnU6SimllFJKKbtSp6OUUg6EKVm1tdkU7eeqmaw9J0NOk6owW6sDcSbk2Kkqo0qhcyyckK6q1/Pz8xjjnKPi3AP/r2ri6+vrGOPsqDjZGnIJ5Y74/+9yTkgppfxU6nSUUkoppZRSdqVORymllFJKKWVX6nSUUkoppZRSdqWbjlJKKaWUUsqudNNRSimllFJK2ZVfE6RQ9rfY7fwAAAAASUVORK5CYII=;" parent="1" vertex="1">
          <mxGeometry x="578.76" y="355.25" width="292.48" height="120" as="geometry" />
        </mxCell>
        <mxCell id="uUMPkl429nScn1y42nC5-44" value="" style="endArrow=classic;html=1;rounded=0;fontSize=12;fontColor=#000000;exitX=1;exitY=0.5;exitDx=0;exitDy=0;entryX=0;entryY=0.5;entryDx=0;entryDy=0;strokeColor=#FF3333;strokeWidth=2;" parent="1" source="uUMPkl429nScn1y42nC5-38" target="uUMPkl429nScn1y42nC5-28" edge="1">
          <mxGeometry relative="1" as="geometry">
            <mxPoint x="380" y="450" as="sourcePoint" />
            <mxPoint x="480" y="450" as="targetPoint" />
            <Array as="points">
              <mxPoint x="460" y="415" />
            </Array>
          </mxGeometry>
        </mxCell>
        <mxCell id="uUMPkl429nScn1y42nC5-46" value="Blank document&lt;br style=&quot;font-size: 12px;&quot;&gt;&lt;font color=&quot;#ff8000&quot;&gt;pred : form&lt;br&gt;&lt;/font&gt;&lt;font color=&quot;#6666ff&quot;&gt;gt: email&lt;/font&gt;" style="text;html=1;resizable=0;autosize=1;align=center;verticalAlign=middle;points=[];fillColor=none;strokeColor=none;rounded=0;fontSize=12;" parent="1" vertex="1">
          <mxGeometry x="85" y="320" width="110" height="60" as="geometry" />
        </mxCell>
        <mxCell id="uUMPkl429nScn1y42nC5-51" value="" style="endArrow=none;html=1;rounded=0;strokeColor=#0066CC;fontSize=12;fontColor=#9999FF;exitX=1;exitY=0.5;exitDx=0;exitDy=0;strokeWidth=2;entryX=0;entryY=0.9;entryDx=0;entryDy=0;entryPerimeter=0;" parent="1" source="uUMPkl429nScn1y42nC5-37" target="uUMPkl429nScn1y42nC5-24" edge="1">
          <mxGeometry width="50" height="50" relative="1" as="geometry">
            <mxPoint x="460" y="380" as="sourcePoint" />
            <mxPoint x="480" y="410" as="targetPoint" />
            <Array as="points">
              <mxPoint x="480" y="373" />
            </Array>
          </mxGeometry>
        </mxCell>
        <mxCell id="uUMPkl429nScn1y42nC5-52" value="" style="rounded=1;whiteSpace=wrap;html=1;fontSize=12;fontColor=#000000;fillColor=none;strokeColor=#FF3333;strokeWidth=2;" parent="1" vertex="1">
          <mxGeometry x="740" y="458" width="130" height="20" as="geometry" />
        </mxCell>
        <mxCell id="uUMPkl429nScn1y42nC5-54" value="" style="rounded=1;whiteSpace=wrap;html=1;fontSize=12;fontColor=#000000;fillColor=none;strokeColor=#FF3333;strokeWidth=2;" parent="1" vertex="1">
          <mxGeometry x="578.76" y="353.75" width="131.24" height="20" as="geometry" />
        </mxCell>
        <mxCell id="uUMPkl429nScn1y42nC5-57" value="" style="rounded=0;whiteSpace=wrap;html=1;fontSize=12;fontColor=#000000;" parent="1" vertex="1">
          <mxGeometry x="570.15" y="160" width="310" height="140" as="geometry" />
        </mxCell>
        <mxCell id="uUMPkl429nScn1y42nC5-55" value="" style="shape=image;verticalLabelPosition=bottom;labelBackgroundColor=default;verticalAlign=top;aspect=fixed;imageAspect=0;image=data:image/png,iVBORw0KGgoAAAANSUhEUgAABNUAAAH7CAYAAADrSKnzAAAgAElEQVR4nO3dW6xcZdkH8E733m3pUSpYLYdSChUMBEGDJKI2mJp64FPjgQSPN154CPHmi1d4YW+4+xJJvPDSoMZEuLE1UVFEa+VQUb5yEE+YglTaRmlLT7vde74LkrePfrNwPZ01M2tm/35XT7Zr1jyzZs3szd/36dvpdrvdRQAAAABAbYtH3QAAAAAAjBuhGgAAAAAkCdUAAAAAIEmoBgAAAABJQjUAAAAASJoedQOv5uHvdHr+/G23d//jMU3p57ma6nOYr7eO2A8AAADAQmSlGgAAAAAkCdUAAAAAIKnV45/9qDMymR1jHPQoaNUxsR7E62qqHwAAAICFwko1AAAAAEgSqgEAAABA0liOfza1A2YbxkIHoanXBQB13DmX+923fers76M6jx308XVUnXMQz9WU2BsAAM2zUg0AAAAAkoRqAAAAAJA0luOfTY1bNrVLZp2fD3P0sqnnMkYKQB39jEDWeWydccs656kahxzEOGc//VSpc554TNXrAgCgGVaqAQAAAECSUA0AAAAAksZy/HMQ+hl1bNvun9EgXteoxloBGC9t2xmzqTHMprStHwAAcqxUAwAAAIAkoRoAAAAAJHW63W5rZwzqjC62Ydxy0P204fXW6cEoKMDCNMxdMvsZmazT5zju/lmnBwAAmmelGgAAAAAkCdUAAAAAIKnVu39md6hsg0H304bX24YeAGi/Ue3+GZ8r9pDtp5/js/oZEa3qs+o6AADQDCvVAAAAACBJqAYAAAAASbXGP9uwwyYANMUYe3v0s6NlnccOYmyzTg9N9ZY9xigoAMDwWKkGAAAAAElCNQAAAABI6nS73f84A2D8E4BJYvwTAADol5VqAAAAAJAkVAMAAACApFq7fwIA7ZfdSXMhsNMlAACDYqUaAAAAACQJ1QAAAAAgSagGAAAAAElCNQAAAABIEqoBAAAAQJJQDQAAAACShGoAAAAAkCRUAwAAAIAkoRoAAAAAJAnVAAAAACBJqAYAAAAASUI1AAAAAEgSqgEAAABAklANAAAAAJKEagAAAACQJFQDAAAAgCShGgAAAAAkTY+6AQAAAGij2dnZUu/evbvUW7ZsGUU7QMtYqQYAAAAASUI1AAAAAEgy/gkAAAA9LF58dh3K+vXrR9gJ0EZWqgEAAABAklANAAAAAJKMfwIAAEAP09Nn/5N58+bNI+wEaCMr1QAAAAAgSagGAAAAAElCNQAAAABIEqoBAAAAQJJQDQAAAACShGoAAAAAkCRUAwAAAIAkoRoAAAAAJE2PugEAAICFrtvtlnp+fr7Uixf3XgfR6XR6Hh9/Hut4/vjzaG5urufPp6amUn1W9RMfy6uL1y1e26rr35R4/meffbbUmzZt6nkM9GMcvx/i9+H8/LyVagAAAACQJVQDAAAAgCTjnwAAwFDdddddo27hX8Sxx0suuaTUmzdvLvXf/va3Uq9bt67UcQQvHh9HmWZnZ0v905/+tNQbN24s9c9+9rNS33PPPaX+8pe/XOrjx4+X+o477ij19u3bS33ppZeW+vbbby/1V7/61VKvXr26Z/3d7363Z8+f+cxnSv3MM8+U+le/+lWpt23bVuqdO3eWOl6TvXv3lrpqrHUhq7oPP/7xj5d6165dpf71r39d6pmZmcb7OXr0aKlXrVrV+Pnh2muvLXX8fmiD+B0eRz4/+clPlnrPnj1WqgEAAABAllANAAAAAJI63XHZYgEAAJgIGzZsGHUL/yL+J9F5551X6hUrVpT65MmTpV66dGnPx65cubLnz2N96NChUi9btqzUcdzyzJkzPY+Jo6Zr164tdRzTm54++y/8xMceOHCg53NFS5Ys6fnzeHwc24zPFXuOo4hxpDGOUPHq4nsdr3+85rEehKodXaEp4/j9ED+PU1NTVqoBAAAAQJZQDQAAAACSjH8CAABD1eb/BKka2+x0Oj1/XvXYKnGkrur8dZ4rjuNVnbNq9zoAmmGlGgAAAAAkCdUAAAAAIMn4JwAAAAAkWakGAAAAAElCNQAAAABIEqoBAAAAQJJQDQAAAACShGoAAAAAkCRUAwAAAIAkoRoAAAAAJAnVAAAAACBpetQNAJyLO+c6qeO3T3VTjx308XVUnXMQz9WU2BsAAMAks1INAAAAAJKEagAAAACQNPbjn50ak0/dMI00iOP70a2YlBr081bp57VXvZaoDe9XnT5pv35GIOs8ts64ZZ3zVI1DDmKcs59+qtQ5Tzym6nUBAABMGivVAAAAACBJqAYAAAAASWM5/lk14lc1BhjrpkY765wnO2aYPU/2Ogz6mCqDfr/qHG/kc+Fo286YTY1hNqVt/QAAAIwrK9UAAAAAIEmoBgAAAABJnW53/Abj2jb22NQumcPcbXPQo6nZxzZ1nY1/LhzD3CWzn5HJOn2O4+6fdXoAAACYZFaqAQAAAECSUA0AAAAAksZy989xkR05zI6FGm98RVM7ujIZRrX7Z3yu2EO2n36Oz+pnRLSqz6rrAAAAMGmsVAMAAACAJKEaAAAAACQZ/xyS7O6W8efGG6FZ/exoWeexgxjbrNNDU71ljzEKCgAALERWqgEAAABAklANAAAAAJI63e547xtZZxyyzivMnqepMcx+zpndLXRU58meM3tN6vQ/3nc5AAAA0DZWqgEAAABAklANAAAAAJLGfvyzSp3dNoH+ZXfSBKjDjrEAALSdlWoAAAAAkCRUAwAAAICk6X4e3NQOmMM0jj1DU4w/AwAAQDOsVAMAAACAJKEaAAAAACQJ1QAAAAAgSagGAAAAAElCNQAAAABIEqoBAAAAQJJQDQAAAACShGoAAAAAkCRUAwAAAIAkoRoAAAAAJAnVAAAAACBJqAYAAAAASUI1AAAAAEgSqgEAAABA0vSoGwCG5+DBg6W+8MILR9gJAAAAjDcr1QAAAAAgSagGAAAAAEnGP2EB2bVrV6k//OEPj7ATAAAAGG9WqgEAAABAklANAAAAAJKMf8ICcvXVV4+6BQAAAJgIVqoBAAAAQJJQDQAAAACSjH/CAnLVVVeNugUAAACYCFaqAQAAAECSUA0AAAAAkox/wgIyPz9f6sWLZeoAAABwrvxXNQAAAAAkCdUAAAAAIMn4JywgP/7xj0u9bdu2EXYCAAAA481KNQAAAABIEqoBAAAAQJLxT1hApqamRt0CAAAATAQr1QAAAAAgSagGAAAAAEnGP2EB2bp166hbAAAAgIlgpRoAAAAAJAnVAAAAACDJ+CcA0Dr/+Mc/Rt3CRJmePvsn329+85tS7927t+cx0fz8fKm3bNlS6qNHj5b66aefLvXFF19c6je+8Y2lfu6550q9Z8+eUm/btq3Ub3jDG0o9NzfXsx/OTbfbLfWf/vSnUsf366GHHir1pk2bSv3iiy+W+tprry31fffdV+qNGzeW+h3veEepz5w5U+pOp1PqEydOlHrXrl2lvuWWW0q9eLH//79f8ZqfPHmy1Dt27Ch1fC+q3vfrr7++1FdccUWpDx8+XOrdu3eXOt5Xzz//fKnf/va3l3r58uWljvcnzZqamir1Aw88UOr4nRyPiffM5ZdfXur4nfzCCy+U+uabby51vB9OnTpV6vhex++K+Fw0K17b+D0cP/vHjx/veXxW/PzG74fTp0+XOt4bhw4dKnX854kuuuiiUsf7LfYWzxnv5/j3yZIlS3r2Nih+UwEAAABAklANAAAAAJI63T7Ww1mtCeNlEKtf75zzRQA07/6bbxp1CxMljtEdPHiw1HHMtmrULv6pGMcz4wjGSy+9VOoVK1aU+jWveU2pX3755Z49XHLJJaU2DjY48XoeOXKk1PH9OnDgQKlXr15d6jgeuHbt2lI/++yzpV61alWpX//61/d83iiO9vz9738v9fr160ttNKxZ8Zrv27ev1HE0rOp9v+CCC3oeMzs7W+o4Lhrvq2PHjpV63bp1pa4aOadZ8XMUxzbj+xKPiXX8XMfPcnxs/LzH+yH+0wFxvDTePwxHfO/iZz/+Hm/q+za+v/EeiPdGHEWPI5/xe6Pqd0c85/79+0sd/z4Z9j8dYKUaAAAAACQJ1QAAAAAgqa/xT4BHH3201J/73OdKHXddqRLHEOLy47hEfGZmpt8WWykuS47LmPs5TxzDicun47L8OGKzZs2aUldd56rl03GJeOw//kqJy7zjzj5xd56vfOUrpb7ttttKHZeF79y5s9TxnvnSl75U6riL0Pnnn1/qL3zhC6V+8sknS/31r3+91HfffXep4+v9xje+Uer3vve9pb700kt79jOOqnb7qqPqvq36s8KfG+0R7/PsiETVblxV32nxfa86Pp7TfTIcVe9X/E6IP6/6zo/je/G9y343xucd9+/VcVE1eln1ma3zOY3vY53zMHzZ3/tV3wNV72n2nAzfoMeuq+6ZKPvdUqUtvzusVAMAAACAJKEaAAAAACQZ/wSYEHH8c+XKlaW+8MILSx13dotjkpM6ZgsAADAoVqoBAAAAQJJQDQAAAACSjH8CAAAAQJKVagAAAACQJFQDAAAAgCShGgAAAAAkCdUAAAAAIEmoBgAAAABJQjUAAAAASBKqAQAAAECSUA0AAAAAkoRqAAAAAJAkVAMAAACAJKEaAAAAACQJ1QAAAAAgSagGAAAAAElCNQAAAABIEqoBAAAAQJJQDQAAAACShGoAAAAAkCRUAwAAAIAkoRoAAAAAJAnVAAAAACBJqAYAAAAASUI1AAAAAEgSqgEAAABAklANAAAAAJKEagAAAACQJFQDAAAAgCShGgAAAAAkCdUAAAAAIEmoBgAAAABJQjUAAAAASBKqAQAAAECSUA0AAAAAkoRqAAAAAJAkVAMAAACAJKEaAAAAACQJ1QAAAAAgSagGAAAAAElCNQAAAABIEqoBAAAAQJJQDQAAAACShGoAAAAAkCRUAwAAAIAkoRoAAAAAJAnVAAAAACBJqAYAAAAASUI1AAAAAEgSqgEAAABAklANAAAAAJKEagAAAACQJFQDAAAAgCShGgAAAAAkCdUAAAAAIEmoBgAAAABJQjUAAAAASBKqAQAAAECSUA0AAAAAkoRqAAAAAJAkVAMAAACAJKEaAAAAACQJ1QAAAAAgSagGAAAAAElCNQAAAABIEqoBAAAAQJJQDQAAAACShGoAAAAAkCRUAwAAAIAkoRoAAAAAJAnVAAAAACBJqAYAAAAASUI1AAAAAEgSqgEAAABAklANAAAAAJKEagAAAACQJFQDAAAAgCShGgAAAAAkCdUAAAAAIEmoBgAAAABJQjUAAAAASBKqAQAAAECSUA0AAAAAkoRqAAAAAJAkVAMAAACAJKEaAAAAACQJ1QAAAAAgSagGAAAAAElCNQAAAABIEqoBAAAAQJJQDQAAAACShGoAAAAAkCRUAwAAAIAkoRoAAAAAJAnVAAAAACBJqAYAAAAASUI1AAAAAEgSqgEAAABAklANAAAAAJKEagAAAACQJFQDAAAAgCShGgAAAAAkCdUAAAAAIEmoBgAAAABJQjUAAAAASBKqAQAAAECSUA0AAAAAkoRqAAAAAJAkVAMAAACAJKEaAAAAACQJ1QAAAAAgSagGAAAAAElCNQAAAABIEqoBAAAAQJJQDQAAAACShGoAAAAAkCRUAwAAAIAkoRoAAAAAJAnVAAAAACBJqAYAAAAASUI1AAAAAEgSqgEAAABAklANAAAAAJKEagAAAACQJFQDAAAAgCShGgAAAAAkCdUAAAAAIEmoBgAAAABJQjUAAAAASBKqAQAAAECSUA0AAAAAkoRqAAAAAJAkVAMAAACAJKEaAAAAACQJ1QAAAAAgSagGAAAAAElCNQAAAABIEqoBAAAAQJJQDQAAAACShGoAAAAAkCRUAwAAAIAkoRoAAAAAJAnVAAAAACBJqAYAAAAASUI1AAAAAEgSqgEAAABAklANAAAAAJKEagAAAACQJFQDAAAAgCShGgAAAAAkCdUAAAAAIEmoBgAAAABJQjUAAAAASBKqAQAAAECSUA0AAAAAkoRqAAAAAJAkVAMAAACAJKEaAAAAACQJ1QAAAAAgSagGAAAAAElCNQAAAABIEqoBAAAAQJJQDQAAAACShGoAAAAAkCRUAwAAAIAkoRoAAAAAJAnVAAAAACBJqAYAAAAASUI1AAAAAEgSqgEAAABAklANAAAAAJKEagAAAACQJFQDAAAAgCShGgAAAAAkCdUAAAAAIEmoBgAAAABJQjUAAAAASBKqAQAAAECSUA0AAAAAkoRqAAAAAJAkVAMAAACAJKEaAAAAACQJ1QAAAAAgSagGAAAAAElCNQAAAABIEqoBAAAAQJJQDQAAAACShGoAAAAAkCRUAwAAAIAkoRoAAAAAJAnVAAAAACBpetQNADTpzrlO6vjtU93UYwd9fB1V5xzEczUl9gYAADAJrFQDAAAAgCShGgAAAAAkGf8EJko/I5B1Hltn3LLOearGIQcxztlPP1XqnCceU/W6AAAAxpWVagAAAACQJFQDAAAAgCTjn8CC0LadMZsaw2xK2/oBAABoOyvVAAAAACBJqAYAAAAASZ1ut2u2B5gYw9wls5+RyTp9juPun3V6AAAAmARWqgEAAABAklANAAAAAJLGfvfPTo0JpDjgOojj+1E1fDvo563Sz2uvM0jchvfLwPPCNKrdP+NzxR6y/fRzfFY/I6JVfVZdBwAAgHFlpRoAAAAAJAnVAAAAACBpLMc/q0b8qsYAY93UaGed82THDLPnyV6HQR9TZdDvV53jjXxSRz87WtZ57CDGNuv00FRv2WOMggIAAJPMSjUAAAAASBKqAQAAAEBSp9sdv8G4to09NrVL5jB32xz0aGr2sU1dZ+OfAAAAwDBYqQYAAAAASUI1AAAAAEgay90/x0V25DA7Fmq88RVN7ehKs7I7aQILkx1gAQAYV1aqAQAAAECSUA0AAAAAkox/Dkl2d8v4c+ONAAAAAO1ipRoAAAAAJAnVAAAAACBpLMc/q8Yh64xYNnWeOmOY/Yxq1nlsdrfQqmMGfZ5BX+emHgsAAABQl5VqAAAAAJAkVAMAAACApLEc/4zqjC5mRxT7ed5+NHXOtp2nn3P208Mg+gcAAABYtMhKNQAAAABIE6oBAAAAQFJf45/juLviOPY8SYxkAhCdPn261DMzMyPsBAAAcqxUAwAAAIAkoRoAAAAAJI397p8AwPg6ePBgqdevXz/CTgAAIMdKNQAAAABIEqoBAAAAQJJQDQAAAACShGoAAAAAkCRUAwAAAIAkoRoAAAAAJAnVAAAAACBJqAYAAAAASUI1AAAAAEgSqgEAAABAklANAAAAAJKmR90AALBwrV27dtQtAADAObFSDQAAAACShGoAAAAAkGT8EwAYmWXLlo26BQAAOCdWqgEAAABAklANAAAAAJKEagAAAACQJFQDAAAAgCShGgAAAAAkCdUAAAAAIEmoBgAAAABJQjUAAAAASBKqAQAAAECSUA0AAAAAkoRqAAAAAJAkVAMAAACAJKEaAAAAACQJ1QAAAAAgaXrUDQDjbW5urtQnTpw4+z+cN4JmgLHzl7/8pdS/+MUvSn369OlSdzqdofY0iRYvPvv/o7700kulvueee0odv8+rrvl1111X6scff7znYzds2FDqkydPlvqKK64o9eHDh0s9Oztb6osuuqjUjz32WKk/+9nP9uxnevrsn7I/+MEPSn3NNdeU+rLLLuvZZ1PivRqvc+wtPu/8/HypZ2Zmeh4Tz1Ol2+2W+syZM6Wempoq9alTp0q9atWqUu/du7fUO3fuLPWSJUtKffz48Z7Pe955Z3/Bx/NXHROvT3yv+/HWt7611Js2bSp1vMfi9XzkkUdKffXVV5c6Xv+lS5eWup+e43ni+xg/C/G9G6b4eu+///5Sx89aPGbQ4nVYvnx5qTdu3FjqeK/Ge7uO+Flbu3Ztqd/5zneW+sknnyz1rbfe2rO35557rtRPPfVUqZ9//vlSf/rTn+7Z56je6yj289e//rXU9913X89j2iB+ft/0pjeV+oUXXij1kSNHSh2v8/nnn1/qd7/73aW+9957Sx3vjTe/+c2lfvrpp0sdfw/G30Hxd2g85wc/+MFSx++cD33oQz3PGcXr/4c//KHU8b597Wtf27P/OuLneteuXaXevXt3z2MmSfw+f8973lPq/fv3lzp+/8Tv7RtuuKHU8frEv53++c9/WqkGAAAAAFlCNQAAAABI6nT7WJNqGoOsFqyApmE///nPS71t27ZS//ex3iMhANH/rFlR6jhu1oaRGagjjhzGkZw42rxu3bpSr169utR//OMfS71s2bJSx5HDqjGfOC4Ux53imOFHPvKRUn/rW98q9VVXXVXql19+udTxM3jHHXeUOo55fvOb3yz1+9///lLHz2x8rjiK+9GPfrTn8VXiGM6hQ4dK/cMf/rDUN910U6m//e1v9zzPW97yllLHEa1f/vKXpf7JT35S6jjyE0cCq8bS4/WJPcTxtE984hOljvfDIEaS64j3T51x42GK93xTvcX7rWrUuuq9iO91PD7+PI5gt1nsOY6ot1m8H2L/VaOUVe911eutc79VffbjOavG8LP3Ruwhvpam/i5q82d/0Or8MxdVx0fxfe90OlaqAQAAAECWUA0AAAAAkox/MlSmeSZP3DnlRz/6UanbtotQ1bLtqiXWdUYA4nLxuGPaiy++WOo4VnP55Zf3PCaOh0Rxx5+4M9eePXtKHXeiif1ff/31pY479MUl6OvXry913NWozWN38ZpXLbOvUmf5fVzOHa9DHKeKOzq97nWv63n+OMb1xBNPlDqOicUduOLz9rPTWR3xs3DjjTeW+n3ve1/PY6rE3uL7Eq9b1ZhMFB87qu+N+Lx//vOfSx13S4z9x50rL7744p6PjeN4jz76aKm3bt1a6vi5/u1vf1vqOPp3wQUXlDp+J/z+978vdZ0RnnidY2+f+tSnSt22HevaIL7vcYfrZ555ptSf//znS71v375Sx89yfE/j5+6uu+4q9Re/+MVSHzt2rNQPPfRQqeMudWvWrCl13OEu7uYWv+e///3vlzr+cw1xp844shrHHqN478VdGuO1euCBB0p98803l3rFirPj3llHjx4tdfwe3rJlS6l37NhR6vj9E19v1Q53Dz74YKmvvPLKUsdrWEfcPTD+jXTLLbekzgPAeLBSDQAAAACShGoAAAAAkNTX+CcAAAAALERWqgEAAABAklANAAAAAJKEagAAAACQJFQDAAAAgCShGgAAAAAkTY+6AQAAAICF7s65Tur47VPd1GMHfXwdVeccxHM1Jfb276xUAwAAAIAkoRoAAAAAJBn/BAAAABixfkYg6zy2zrhlnfNUjUMOYpyzn36q1DlPPKbqdS1aZKUaAAAAAKQJ1QAAAAAgaaLGPzs1VhR2w0q9QRzfj27FisVBP2+Vfl571WuJ2vB+1ekTAJpiV69mn6vKB77X++c7bvvPxzTlbbeffb0Pfyf3evt57CDO05TYDwD1tW1nzKbGMJsyyn6sVAMAAACAJKEaAAAAACR1ut3xHoCrGvGrMwY4qmPqyJ5nEP3381xVBn2d6xw/3nc8AJMiO57Zz2OHuatXUz+v00+VqlHHOuOQ2WOy6oxhVp2/ba9rVNcQYFINc5fMfn7nDvOfmBjm7p91evh3VqoBAAAAQJJQDQAAAACSJmr3zzYb1VholtFIABg+u3q9ukGPhWY1NdLYtt05jWoCtNOo/k6o+ucahrk7eVY/fzNU9Vl1HRYtslINAAAAANKEagAAAACQZPxzSLJjldmdN+1u+YrsDqEAMExVIwl1ft7P2EKd45vqJ/sa62hq7HTHbWfrD3zv3M/T1C6ZdX4+zNHLpp7LGCnA8PWzo2Wdxw5ibLNOD031lj2m7iiolWoAAAAAkCRUAwAAAIAk458jUGcHz6pxTuONADB57OpVX1O7ej28aPQ7gbZt989oEK9rVGOtAOMi+7ts0M/bhuca1c7jdXuwUg0AAAAAkoRqAAAAAJDU6XYnZ6/IOuOQdV5t9jxNjWH2c87sbqGjOk/2nNlrUqf/ybnjARg3dUYXB7FLZp3drPo5f/a5Bj3uWrWzZ1O7fzZl0OOfbRgvrdODUVCgbYb5TzHwijaMeZ4LK9UAAAAAIEmoBgAAAABJEzX+WaXObpsAAAAAxj+Hz/gnAAAAACwQQjUAAAAASJpu6kRN7YA5TOPYMwCMizb/MwvjPtYxLiMSo9pxEgCq2HGYJlmpBgAAAABJQjUAAAAASBKqAQAAAECSUA0AAAAAkoRqAAAAAJAkVAMAAACAJKEaAAAAACQJ1QAAAAAgSagGAAAAAElCNQAAAABIEqoBAAAAQJJQDQAAAACShGoAAAAAkCRUAwAAAIAkoRoAAAAAJAnVAAAAACBJqAYAAAAASUI1AAAAAEgSqgEAAABAklANAAAAAJKEagAAAACQJFQDAAAAgCShGgAAAAAkCdUAAAAAIEmoBgAAAABJQjUAAAAASBKqAQAAAECSUA0AAAAAkoRqAAAAAJAkVAMAAACAJKEaAAAAACQJ1QAAAAAgSagGAAAAAElCNQAAAABIEqoBAAAAQJJQDQAAAACShGoAAAAAkCRUAwAAAICk6VE3AAAsLCdOnCj1rbfeWuoDBw6UeuXKlaWem5sr9dTUVM/zzM/Pp3r4r8dSh7fODTfcUOrNmzeXetOmTaW+5pprSn3s2LFSP/7446V+5JFHSh2vZ6fTKfWpU6dKvXXr1lLffffd59Q7ALTd9qnuqFtgTFipBgAAAABJQjUAAAAASDL+CQAMVRzhfNe73lXqJ554otT33ntvqeMo6OHDh0v9sY99rNQbNmwodRwXrfa/tfttoyNHjpR63759pb7ssstK/bWvfa3nMXG0M45zXnnllaU+c+ZMqU+fPl3q6667rp+2AQAmipVqAAAAAJAkVAMAAACApE63221kW4swSQAAsCj7F8b+/ftL/bvf/V14xfQAAAB6SURBVK7UN954Y6kffPDBUsedQ2dmZs6hw//v5MmTpX7qqadKHXfbjGZnZ0u9ZMmS1DFxrHJ6errnz+MY5vLly0t9/PjxUsdx2qVLl5Y67uYZzxP/9IvnjD005eHv+AMRgHZ52+129qQ5VqoBAAAAQJJQDQAAAACS/g+hQMMga+Gj+gAAAABJRU5ErkJggg==;" parent="1" vertex="1">
          <mxGeometry x="577.22" y="170" width="292.78" height="120" as="geometry" />
        </mxCell>
        <mxCell id="uUMPkl429nScn1y42nC5-58" value="&lt;b style=&quot;&quot;&gt;&lt;font color=&quot;#6666ff&quot;&gt;gt&lt;/font&gt;&lt;br&gt;&lt;/b&gt;" style="text;html=1;resizable=0;autosize=1;align=center;verticalAlign=middle;points=[];fillColor=none;strokeColor=none;rounded=0;fontSize=12;fontColor=#FF8000;" parent="1" vertex="1">
          <mxGeometry x="708.61" y="300" width="30" height="30" as="geometry" />
        </mxCell>
        <mxCell id="uUMPkl429nScn1y42nC5-61" value="" style="rounded=0;whiteSpace=wrap;html=1;fontSize=12;fontColor=#000000;" parent="1" vertex="1">
          <mxGeometry x="568.61" y="520" width="310" height="140" as="geometry" />
        </mxCell>
        <mxCell id="uUMPkl429nScn1y42nC5-60" value="" style="shape=image;verticalLabelPosition=bottom;labelBackgroundColor=default;verticalAlign=top;aspect=fixed;imageAspect=0;image=data:image/png,iVBORw0KGgoAAAANSUhEUgAABPkAAAH4CAYAAAA4vTgDAAAgAElEQVR4nO3dW6xdZbk/YGa7eqAnpALVUiilgKA0CCrbRNQGU1N181ejSILHGy88EW92uNILueFuJ5J44aXBbXYi3EhJPCJaK0JF+ZeD4KGmIJW2UdrS82HuC+LX173nsGOsMcaa813rea7eLMb85jfHGHPO1R/fu77BcDgcngMAAAAApDVv3BMAAAAAANqZGvcE6hgMzn5MXI/Yx/FtVK2V7Pt5q7R57XXWfU7C9bI+FQAAAJhLrOQDAAAAgOSEfAAAAACQ3MS261a1ZFa1bca6q1bcOuM0bQttOk7T89D3MVX6vl51jteiCwAAAMxVVvIBAAAAQHJCPgAAAABIbmLbdbMYVxtvU1pZAejbJOyu3kbTP53Rtzavvc2f2mgzhzbHAwDQjpV8AAAAAJCckA8AAAAAktOu21LTNpOmrUB2j33VTLZrAVBf37ur19HVTvFR03Fmcqf7Nq+x7+tV5/i5/PsMAECfrOQDAAAAgOSEfAAAAACQnHbdDjVtgYk/144KAP0ZVxtvU1pZAQCYLiv5AAAAACA5IR8AAAAAJDex7bp1dnmrOr6rceq0zbZpra3z2Ka7+FUd0/c4fZ/nrh4LwNzUtA226fem3WNf5TsaAGB8rOQDAAAAgOSEfAAAAACQ3MS260Z1WmaatpS2ed42Jm33vUl4jW3mMJdbogCYnqZ/SiL+XDsqAACTyko+AAAAAEhOyAcAAAAAyQ2Gw3/d8KgVBYDZRJt/f9rsGt9mnK5+V+lq5/do0sZpOmbTc1Jn/t6DAAD9sJIPAAAAAJIT8gEAAABActp1AZhTtArOvDq72QIAAO1YyQcAAAAAyQn5AAAAACC5qXFPAABoL+Of1+h7ztqBAQCYS6zkAwAAAIDkhHwAAAAAkJyQDwAAAACSE/IBAAAAQHJCPgAAAABITsgHAAAAAMkJ+QAAAAAgOSEfAAAAACQn5AMAAACA5IR8AAAAAJCckA8AAAAAkhPyAQAAAEByQj4AAAAASE7IBwAAAADJCfkAAAAAIDkhHwAAAAAkJ+QDAAAAgOSmxj0BAAAAmDTHjx8v9bZt20q9cePGcUwH4Kys5AMAAACA5IR8AAAAAJCcdl0AAAD4X+bNO7MmZvXq1WOcCUA9VvIBAAAAQHJCPgAAAABIbjAcDof/8oDBTE0FAPr3r7/18vJ9/X/N1msNAACjWMkHAAAAAMkJ+QAAAAAgOSEfAAAAACQn5AMAAACA5IR8AAAAAJCckA8AAAAAkhPyAQAAAEByQj4AAAAASG5q3BMAAACYy4bDYalPnz5d6nnzRq/JGAwGI4+PP491HD/+PDp16tTIn8+fP7/RPKvmEx/LvxbPWzy3Vee/K3H8nTt3lnr9+vUjj4E2Mn4+xM/DOp91VZ+9Va83jl/lbN8RVvIBAAAAQHJCPgAAAABITrsuAAAwY+6+++5xT+GfxDbVSy65pNRXXXVVqf/yl7+UetWqVaWObVPx+NiKdfz48VL/+Mc/LvW6detK/ZOf/KTU9957b6m//OUvl/rw4cOlvuOOO0p91113lfrSSy8t9e23317qr371q6VesWLFyPo73/nOyDl/+tOfLvWzzz5b6l/84hel3rx5c6m3bNlS6nhOduzYUeqqNuS5rOo+/NjHPlbqrVu3lvqXv/xlqRcsWND5fA4ePFjq5cuXdz4+bNiwodTx82ESxM/w2EL7iU98otTbt28v9Zo1a0r9+OOPl/rEiROlXrlyZamfe+65Ui9btqzUX/rSl0p96623ljp+Lzz44IOlvvPOO0v9pje96ZxzzrGSDwAAAADSE/IBAAAAQHKDYZZtTAAAgPTWrl077in8k/jPoXPPPbfUS5cuLfXRo0dLvWjRopGPjS1XVbsr7tu3r9SLFy8udWyPPXny5MhjYmtwbPuKbZVTU2f+GlN87J49e0Y+V7Rw4cKRP4/Hxzbb+FxxzrF1NLag1tk1klfFax3Pfzznse5D1Y7J0JWMnw/x/Vi1027VezN+F1Ttmh1ddNFFpX7ppZdGjh+/j/7xnWUlHwAAAAAkJ+QDAAAAgOS06wIAADNmkv/5UdVmOxgMRv686rFVqlq04vh1niu2hlWNWbU7JACTKX5ux8/5qs/weMw/HmslHwAAAAAkJ+QDAAAAgOS06wIAAABAclbyAQAAAEByQj4AAAAASE7IBwAAAADJCfkAAAAAIDkhHwAAAAAkJ+QDAAAAgOSEfAAAAACQnJAPAAAAAJKbGvcEAJr6yqlBo+Pvmj9s9Ni+j6+jasw+nqsrcW4AAADMLCv5AAAAACA5IR8AAAAAJJe6XXdQo1NtGLrH+ji+jWFFZ1vfz1ulzWuvei3RJFyvOvNk8rVpWa3z2DrtsXXGqWpf7aP9ts18qtQZJx5T9boAAADon5V8AAAAAJCckA8AAAAAkkvXrlvVklnVthnrrlpx64zTtC206ThNz0Pfx1Tp+3rVOV6L7twxaTvPdtU225VJmw8AAADdsZIPAAAAAJIT8gEAAABAcoPhMFcz46S1qXa1C+1M7mbbdytx08d2dZ61684dM7kLbZsW1zrzzLi7bp05AAAAMLOs5AMAAACA5IR8AAAAAJBcut11s2jaItq0jVc76qu62jGZ2WFcu+vG54pzaDqfNsc31aalt2qeVecBAACA/lnJBwAAAADJCfkAAAAAIDntujOg6e6x8efaUaFbbXaMrfPYPtps68yhq7k1PUbrLgAAwGSwkg8AAAAAkhPyAQAAAEByg+Ew796sddpX67y6puN01TbbZsymu/GOa5ymYzY9J3Xmn/cOBwAAAKjHSj4AAAAASE7IBwAAAADJpW7XrVJnN1ugvaY71QLUYUdmAABozko+AAAAAEhOyAcAAAAAyU1N94Fd7TA7kzLOGbqiXR0AAABmLyv5AAAAACA5IR8AAAAAJCfkAwAAAIDkhHwAAAAAkJyQDwAAAACSE/IBAAAAQHJCPgAAAABITsgHAAAAAMkJ+QAAAAAgOSEfAAAAACQn5AMAAACA5IR8AAAAAJCckA8AAAAAkhPyAQAAAEByU+OeADAz9u7dW+oLL7xwjDMBAAAAumYlHwAAAAAkJ+QDAAAAgOS068IcsXXr1lJ/+MMfHuNMAAAAgK5ZyQcAAAAAyQn5AAAAACA57bowR1xzzTXjngIAAADQEyv5AAAAACA5IR8AAAAAJKddF+aIq6++etxTAAAAAHpiJR8AAAAAJCfkAwAAAIDktOvCHHH69OlSz5sn3wcAAIDZxL/0AQAAACA5IR8AAAAAJKddF+aIH/zgB6XevHnzGGcCAAAAdM1KPgAAAABITsgHAAAAAMlp14U5Yv78+eOeAgAAANATK/kAAAAAIDkhHwAAAAAkp10X5ohNmzaNewoAAABAT6zkAwAAAIDkhHwAAAAAkJx2XQBgovztb38b9xRmlampM7/u/frXvy71jh07Rh4TnT59utQbN24s9cGDB0v9zDPPlHrNmjWlfsMb3lDq559/vtTbt28v9ebNm0v9+te/vtSnTp0aOR+mZzgclvoPf/hDqeP1euSRR0q9fv36Ur/00kul3rBhQ6nvv//+Uq9bt67U73znO0t98uTJUg8Gg1IfOXKk1Fu3bi31zTffXOp586xFaCue86NHj5b6gQceKHW8FlXX/frrry/1FVdcUer9+/eXetu2baWO99ULL7xQ6ne84x2lXrJkSanj/Um35s+fX+qHHnqo1PEzOR4T75nLL7+81PEz+cUXXyz1TTfdVOp4Pxw7dqzU8VrHz4r4XHQrntv4ORzf+4cPHx55fFPx/Rs/H06cOFHqeG/s27ev1PHPSV188cWljvdbnFscM97P8feThQsXjpzbXOLbEwAAAACSE/IBAAAAQHKD4TTXMFpdC7n0sVr5K6d8EADd+9FNbx/3FGaV2Pa4d+/eUse26KrWyPhrYmynjS0zL7/8cqmXLl1a6te85jWlfuWVV0bO4ZJLLim19r3+xPN54MCBUsfrtWfPnlKvWLGi1LGdc+XKlaXeuXNnqZcvX17q173udSOfN4qtWH/9619LvXr16lJr5etWPOe7du0qdWzlq7ruF1xwwchjjh8/XurY3hvvq0OHDpV61apVpa76EwF0K76PYpttvC7xmFjH93V8L8fHxvd7vB/in3qI7cDx/mFmxGsX3/vxe7yrz9t4feM9EO+N+KcDYotu/Nyo+u6IY+7evbvU8fcTf+rBSj4AAAAASE/IBwAAAADJTbtdF+Cxxx4r9Wc/+9lSx12NqsS2kbhcPC7pX7BgQdspTqS4jDwuO28zTmybisvdYxtFbIk677zzSl11nquWu8cl/XH+8eskLsuPO2fF3a/uvPPOUt92222ljsv4t2zZUup4z3zxi18sddyl6/zzzy/15z//+VI/9dRTpf76179e6nvuuafU8fV+4xvfKPX73ve+Ul966aUj55NR1W56dVTdt1W/UvhVY3LE+7xpS0vVbndVn2nxulcdH8d0n8yMqusVPxPiz6s+82O7Zbx2TT8b4/Nm/1zNoqpVtuo9W+d9Gq9jnXGYeU2/96s+B6quadMxmXl9t8lX3TNR08+WKr47qlnJBwAAAADJCfkAAAAAIDntugCzQGzXXbZsWakvvPDCUsedE2Nb62xtiwYAAJhLrOQDAAAAgOSEfAAAAACQnHZdAAAAAEjOSj4AAAAASE7IBwAAAADJCfkAAAAAIDkhHwAAAAAkJ+QDAAAAgOSEfAAAAACQnJAPAAAAAJIT8gEAAABAckI+AAAAAEhOyAcAAAAAyQn5AAAAACA5IR8AAAAAJCfkAwAAAIDkhHwAAAAAkJyQDwAAAACSE/IBAAAAQHJCPgAAAABITsgHAAAAAMkJ+QAAAAAgOSEfAAAAACQn5AMAAACA5IR8AAAAAJCckA8AAAAAkhPyAQAAAEByQj4AAAAASE7IBwAAAADJCfkAAAAAIDkhHwAAAAAkJ+QDAAAAgOSEfAAAAACQnJAPAAAAAJIT8gEAAABAckI+AAAAAEhOyAcAAAAAyQn5AAAAACA5IR8AAAAAJCfkAwAAAIDkhHwAAAAAkJyQDwAAAACSE/IBAAAAQHJCPgAAAABITsgHAAAAAMkJ+QAAAAAgOSEfAAAAACQn5AMAAACA5IR8AAAAAJCckA8AAAAAkhPyAQAAAEByQj4AAAAASE7IBwAAAADJCfkAAAAAIDkhHwAAAAAkJ+QDAAAAgOSEfAAAAACQnJAPAAAAAJIT8gEAAABAckI+AAAAAEhOyAcAAAAAyQn5AAAAACA5IR8AAAAAJCfkAwAAAIDkhHwAAAAAkJyQDwAAAACSE/IBAAAAQHJCPgAAAABITsgHAAAAAMkJ+QAAAAAgOSEfAAAAACQn5AMAAACA5IR8AAAAAJCckA8AAAAAkhPyAQAAAEByQj4AAAAASE7IBwAAAADJCfkAAAAAIDkhHwAAAAAkJ+QDAAAAgOSEfAAAAACQnJAPAAAAAJIT8gEAAABAckI+AAAAAEhOyAcAAAAAyQn5AAAAACA5IR8AAAAAJCfkAwAAAIDkhHwAAAAAkJyQDwAAAACSE/IBAAAAQHJCPgAAAABITsgHAAAAAMkJ+QAAAAAgOSEfAAAAACQn5AMAAACA5IR8AAAAAJCckA8AAAAAkhPyAQAAAEByQj4AAAAASE7IBwAAAADJCfkAAAAAIDkhHwAAAAAkJ+QDAAAAgOSEfAAAAACQnJAPAAAAAJIT8gEAAABAckI+AAAAAEhOyAcAAAAAyQn5AAAAACA5IR8AAAAAJCfkAwAAAIDkhHwAAAAAkJyQDwAAAACSE/IBAAAAQHJCPgAAAABITsgHAAAAAMkJ+QAAAAAgOSEfAAAAACQn5AMAAACA5IR8AAAAAJCckA8AAAAAkhPyAQAAAEByQj4AAAAASE7IBwAAAADJCfkAAAAAIDkhHwAAAAAkJ+QDAAAAgOSEfAAAAACQnJAPAAAAAJIT8gEAAABAckI+AAAAAEhOyAcAAAAAyQn5AAAAACA5IR8AAAAAJCfkAwAAAIDkhHwAAAAAkJyQDwAAAACSE/IBAAAAQHJCPgAAAABITsgHAAAAAMkJ+QAAAAAgOSEfAAAAACQn5AMAAACA5IR8AAAAAJCckA8AAAAAkhPyAQAAAEByQj4AAAAASE7IBwAAAADJCfkAAAAAIDkhHwAAAAAkJ+QDAAAAgOSEfAAAAACQnJAPAAAAAJIT8gEAAABAckI+AAAAAEhOyAcAAAAAyQn5AAAAACA5IR8AAAAAJCfkAwAAAIDkhHwAAAAAkJyQDwAAAACSE/IBAAAAQHJCPgAAAABITsgHAAAAAMkJ+QAAAAAgOSEfAAAAACQn5AMAAACA5IR8AAAAAJCckA8AAAAAkhPyAQAAAEByQj4AAAAASE7IBwAAAADJCfkAAAAAIDkhHwAAAAAkJ+QDAAAAgOSEfAAAAACQnJAPAAAAAJIT8gEAAABAckI+AAAAAEhOyAcAAAAAyQn5AAAAACA5IR8AAAAAJCfkAwAAAIDkhHwAAAAAkJyQDwAAAACSE/IBAAAAQHJCPgAAAABITsgHAAAAAMkJ+QAAAAAgOSEfAAAAACQ3Ne4JAHTlK6cGjY6/a/6w0WP7Pr6OqjH7eK6uxLkBAADQDyv5AAAAACA5IR8AAAAAJKddF5g12rSs1nlsnfbYOuNUta/20X7bZj5V6owTj6l6XQAAAHTHSj4AAAAASE7IBwAAAADJadcFZr1J23m2q7bZrkzafAAAAGjOSj4AAAAASE7IBwAAAADJDYbDoX4sYFaYyV1o27S41plnxt1168wBAACAfljJBwAAAADJCfkAAAAAILnUu+sOanSMxWbkPo5vo6pRuu/nrdLmtddp+p6E66U5fW4a1+668bniHJrOp83xTbVp6a2aZ9V5AAAAoDtW8gEAAABAckI+AAAAAEguXbtuVUtmVdtmrLtqxa0zTtO20KbjND0PfR9Tpe/rVed4LbrU0WbH2DqP7aPNts4cuppb02O07gIAAMwsK/kAAAAAIDkhHwAAAAAkNxgOczUzTlqbale70M7kbrZ9txI3fWxX51m7LgAAADBXWckHAAAAAMkJ+QAAAAAguXS762bRtEW0aRuvdtRXdbVjMt1qulMtMDfZYRkAALpjJR8AAAAAJCfkAwAAAIDktOvOgKa7x8afa0cFAAAA4Gys5AMAAACA5IR8AAAAAJBcunbdqvbVOi2xXY1Tp222TWttncc23Y236pi+x+n7PHf1WAAAAIDMrOQDAAAAgOSEfAAAAACQXLp23ahOq2nTltI2z9tGV2NO2jhtxmwzhz7mDwAAADCprOQDAAAAgOSEfAAAAACQ3LTbdTPuXppxzrOJFloAohMnTpR6wYIFY5wJAADkZyUfAAAAACQn5AMAAACA5FLvrgsA5LV3795Sr169eowzAQCA/KzkAwAAAIDkhHwAAAAAkJyQDwAAAACSE/IBAAAAQHJCPgAAAABITsgHAAAAAMkJ+QAAAAAgOSEfAAAAACQn5AMAAACA5IR8AAAAAJCckA8AAAAAkpsa9wQAgLlp5cqV454CAADMGlbyAQAAAEByQj4AAAAASE67LgAwFosXLx73FAAAYNawkg8AAAAAkhPyAQAAAEByQj4AAAAASE7IBwAAAADJCfkAAAAAIDkhHwAAAAAkJ+QDAAAAgOSEfAAAAACQnJAPAAAAAJIT8gEAAABAckI+AAAAAEhOyAcAAAAAyQn5AAAAACA5IR8AAAAAJDc17gkAeZ06darUR44cOfMfzh3DZIB0/vSnP5X6Zz/7WalPnDhR6sFgMKNzmo3mzTvz/3RffvnlUt97772ljp/nVef8uuuuK/UTTzwx8rFr164t9dGjR0t9xRVXlHr//v2lPn78eKkvvvjiUj/++OOl/sxnPjNyPlNTZ36N/d73vlfqa6+9ttSXXXbZyHl2Jd6r8TzHucXnPX36dKkXLFgw8pg4TpXhcFjqkydPlnr+/PmlPnbsWKmXL19e6h07dpR6y5YtpV64cGGpDx8+PPJ5zz33zBd8HL/qmHh+4rVu461vfWup169fX+p4j8Xz+eijj5b6mmuuKXU8/4sWLSp1mznHceJ1jO+FeO1mUny9P/rRj0od32vxmL7F87BkyZJSr1u3rtTxXo33dh3xvbZy5cpSv+td7yr1U089Vepbbrll5Nyef/75Uj/99NOlfuGFF0r9qU99auQ8x3WtozifP//5z6W+//77Rx4zCeL7941vfGOpX3zxxVIfOHCg1PE8n3/++aV+z3veU+r77ruv1PHeePOb31zqZ555ptTxezB+B8Xv0DjmBz/4wVLHz5wPfehDI8eM4vl/7rnnSh3v29e+9rUj519HfF9v3bq11Nu2bRt5zGwSP8/f+973lnr37t2ljp8/8XP7hhtuKHU8P/F3p7///e+ljtc3fg/G3502bNhQ6p07d5Y63s/xe+Rtb3vbyNdyNlbyAQAAAEByQj4AAAAASG4wnOY6Yt0zNDUBK9bp2E9/+tNSb968udT/cWh0Cw9A9J/nLS11bA+chBYnqCO2iMYWqtiKvmrVqlKvWLGi1L///e9LvXjx4lLHFtGqtqzY3hXb02Jb6Ec+8pFSf+tb3yr11VdfXepXXnml1PE9eMcdd5Q6tuV+85vfLPUHPvCBUsf3bHyu2Dr90Y9+dOTxVWLb1L59+0r94IMPlvrtb397qb/97W+PHOctb3lLqWNL3c9//vNS//CHPyx1bNGKLZxVf0Ygnp84h9h+9fGPf7zU8X7oo4W8jnj/1GkPn0nxnu9qbvF+q2qNr7oW8VrH4+PPY8v8JItzjn9SYJLF+yHOv6r1tepaV73eOvdb1Xs/jln1ZxOa3htxDvG1dPV70SS/9/tW58+SVB0fxevedJyq+y2OE69109bsMva0HgUAAAAATAwhHwAAAAAkp12XGaP7avaJOxN9//vfL/Wk7dJVtcy+akl8nZaNuHw67kj40ksvlTq2QV1++eUjj4ntPFHcUSvufLd9+/ZSx52e4vyvv/76UscdMGPLwOrVq0sddw2b5DbJeM6r2iKq1GmXiMvv43mI7W9xx7SLLrpo5Pix7e7JJ58sdWzrizvcxedts5NgHfG9cOONN5b6/e9//8hjqsS5xesSz1tVG0IUHzuuz434vH/84x9LHXcjjfOPO8OuWbNm5GNj++Rjjz1W6k2bNpU6vq9/85vflDq2al5wwQWljp8Jv/vd70pdp+Uqnuc4t09+8pOlnrQdISdBvO5xB/lnn3221J/73OdKvWvXrlLH93K8pvF9d/fdd5f6C1/4QqkPHTpU6kceeaTUcRfI8847r9RxB8m4W2L8nP/ud79b6vjnNeIOgLHFOLapRvHei7ugxnP10EMPlfqmm24q9dKlZ9rzmzp48GCp4+fwxo0bS/3AAw+UOn7+xNdbtYPkww8/XOorr7yy1PEc1hF354y/I918882NxgGA6bKSDwAAAACSE/IBAAAAQHLTbtcFAAAAACaDlXwAAAAAkJyQDwAAAACSE/IBAAAAQHJCPgAAAABITsgHAAAAAMlNjXsCAAAAALxqMDj7McNhv8e3EZ8r6vt5q7R57VWvJZqE6/WP463kAwAAAIDkhHwAAAAAkJx2XQAAAIAxqmrJrGrbjHVXrbh1xqnTvho1Hafpeej7mCp9X686x4+ap5V8AAAAAJCckA8AAAAAkps17bqTsJtJG3afaT+HNscDQN++cqrZF+pd8898UdV5bN/H11E1Zh/PVeXf/3v0zx+47ezHdOXfbj/zen/1X81eb5vH9jFOV+J8AMhrXG28Tc3Vf+9byQcAAAAAyQn5AAAAACC51O26dp+pf7zdZ+rPEwD60KZltc5j67TH1hknHtN0/KbazKfKr845+zhVx9RpcW3adtp3627VMbHu43V1NR8Acmn6b+qmOYZ/v79qupmVlXwAAAAAkJyQDwAAAACSS92um4XdZwCAKjO582wdXbXNdqWzNt6OdpidhDbePnT1ugCYO5r+Sa74867+hBr/zEo+AAAAAEhOyAcAAAAAyWnXnQF2n5kZlvsCMMnq7Ipb9fM6ralN237r7KLbdD5NX2MdXbUJP3Dbmfrf/3v643S1C22dn89kq2xXz6XtF2B6qv492/TPdrUZp86/o9v8W7vOY5vmIVXH9D1O3+d5uo+1kg8AAAAAkhPyAQAAAEBy2nVnmN1nAIBoXLvrVrXftmn7bdMmXEebnXbjMb86Z/w77U7a7rpRH69rXG3IABnVaTVt2lLa5nnb6GrMSRunzZht5nC2x1rJBwAAAADJCfkAAAAAILnBcDg79mNts0tLm3G6apvtaqeVaNLGaTpm03NSZ/6z424HIKM6raZ97EJb1Zbb9LnqtMTWea6+25Ords7tanfdrvTdrjsJ7cB15qB1F5g0/jTWzPPv9O5YyQcAAAAAyQn5AAAAACC5WdOuW6XObrYAAAAA2nVnnnymO1byAQAAAEByQj4AAAAASG6qi0EyLmfNOGcAyGKS2y762NF1JtXZ5XYSjGtHVwCoYkdvZjsr+QAAAAAgOSEfAAAAACQn5AMAAACA5IR8AAAAAJCckA8AAAAAkhPyAQAAAEByQj4AAAAASE7IBwAAAADJCfkAAAAAIDkhHwAAAAAkJ+QDAAAAgOSEfAAAAACQnJAPAAAAAJIT8gEAAABAckI+AAAAAEhOyAcAAAAAyQn5AAAAACA5IR8AAAAAJCfkAwAAAIDkhHwAAAAAkJyQDwAAAACSE/IBAAAAQHJCPgAAAABITsgHAAAAAMkJ+QAAAAAgOSEfAAAAACQn5AMAAACA5IR8AAAAAJCckA8AAAAAkhPyAQAAAEByQj4AAAAASE7IBwAAAADJCfkAAAAAIDkhHwAAAAAkJ+QDAAAAgOSEfAAAAACQnJAPAAAAAJIT8gEAAABAclPjngAAMHccOXKk1Mlj1k4AAAGgSURBVLfcckup9+zZU+ply5aV+tSpU6WeP3/+yHFOnz7daA7/7/FGh0+cG264odRXXXVVqdevX1/qa6+9ttSHDh0q9RNPPFHqRx99tNTxfA4Gg1IfO3as1Js2bSr1PffcM625A8CkGw7HPQOYPiv5AAAAACA5IR8AAAAAJKddFwCYMbHl9t3vfnepn3zyyVLfd999pY6tu/v37y/1rbfeWuq1a9eWOrb3Vvv/tec7iQ4cOFDqXbt2lfqyyy4r9de+9rWRx8RW3Nh+e+WVV5b65MmTpT5x4kSpr7vuujbTBgCgZ1byAQAAAEByQj4AAAAASG4wHLbfOyZ0fgAANN6Zbvfu3aX+7W9/W+obb7yx1A8//HCp4868CxYsmMYM/6+jR4+W+umnny513M02On78eKkXLlzY6JjYBjs1NTXy57FtdsmSJaU+fPhwqWP786JFi0odd8uN48Rf++KYcQ5d+dV/+QURgMnyb7fbOpfZzUo+AAAAAEhOyAcAAAAAyXXSrjuTqlqD46vIfkzVFakzTpvjq7QZZ9LOMwAAAMBs9D+BJ9tDqbJfVwAAAABJRU5ErkJggg==;" parent="1" vertex="1">
          <mxGeometry x="572.07" y="530" width="303.09" height="120" as="geometry" />
        </mxCell>
        <mxCell id="uUMPkl429nScn1y42nC5-62" value="&lt;b style=&quot;&quot;&gt;&lt;font color=&quot;#ff9933&quot;&gt;F1 : 68.69&lt;/font&gt;&lt;br&gt;&lt;/b&gt;" style="text;html=1;resizable=0;autosize=1;align=center;verticalAlign=middle;points=[];fillColor=none;strokeColor=none;rounded=0;fontSize=12;fontColor=#FF8000;" parent="1" vertex="1">
          <mxGeometry x="685.15" y="670" width="80" height="30" as="geometry" />
        </mxCell>
        <mxCell id="uUMPkl429nScn1y42nC5-63" value="" style="rounded=1;whiteSpace=wrap;html=1;fontSize=12;fontColor=#000000;fillColor=none;strokeColor=#FF3333;strokeWidth=2;" parent="1" vertex="1">
          <mxGeometry x="728" y="633" width="130" height="20" as="geometry" />
        </mxCell>
        <mxCell id="uUMPkl429nScn1y42nC5-64" value="" style="rounded=1;whiteSpace=wrap;html=1;fontSize=12;fontColor=#000000;fillColor=none;strokeColor=#FF3333;strokeWidth=2;" parent="1" vertex="1">
          <mxGeometry x="572.07" y="530" width="137.93" height="20" as="geometry" />
        </mxCell>
        <mxCell id="uUMPkl429nScn1y42nC5-66" value="" style="rounded=1;whiteSpace=wrap;html=1;fontSize=12;fontColor=#000000;fillColor=none;strokeColor=#FF3333;strokeWidth=2;" parent="1" vertex="1">
          <mxGeometry x="577.22" y="170" width="137.93" height="20" as="geometry" />
        </mxCell>
        <mxCell id="uUMPkl429nScn1y42nC5-67" value="" style="rounded=1;whiteSpace=wrap;html=1;fontSize=12;fontColor=#000000;fillColor=none;strokeColor=#FF3333;strokeWidth=2;" parent="1" vertex="1">
          <mxGeometry x="730.61" y="273" width="130" height="20" as="geometry" />
        </mxCell>
        <mxCell id="uUMPkl429nScn1y42nC5-68" value="" style="endArrow=classic;html=1;rounded=0;exitX=0.5;exitY=0;exitDx=0;exitDy=0;" parent="1" edge="1">
          <mxGeometry relative="1" as="geometry">
            <mxPoint x="60" y="370" as="sourcePoint" />
            <mxPoint x="100" y="130" as="targetPoint" />
            <Array as="points">
              <mxPoint x="60" y="130" />
            </Array>
          </mxGeometry>
        </mxCell>
        <mxCell id="uUMPkl429nScn1y42nC5-69" value="documnet&lt;br&gt;VQA" style="edgeLabel;resizable=0;html=1;align=center;verticalAlign=middle;" parent="uUMPkl429nScn1y42nC5-68" connectable="0" vertex="1">
          <mxGeometry relative="1" as="geometry">
            <mxPoint x="-35" y="-25" as="offset" />
          </mxGeometry>
        </mxCell>
        <mxCell id="uUMPkl429nScn1y42nC5-70" value="" style="rounded=0;whiteSpace=wrap;html=1;" parent="1" vertex="1">
          <mxGeometry x="100.01" y="70" width="80" height="100" as="geometry" />
        </mxCell>
        <mxCell id="uUMPkl429nScn1y42nC5-71" value="Blank document&lt;br style=&quot;font-size: 12px;&quot;&gt;" style="text;html=1;resizable=0;autosize=1;align=center;verticalAlign=middle;points=[];fillColor=none;strokeColor=none;rounded=0;fontSize=12;" parent="1" vertex="1">
          <mxGeometry x="85" y="170" width="110" height="30" as="geometry" />
        </mxCell>
        <mxCell id="uUMPkl429nScn1y42nC5-72" value="&lt;font color=&quot;#ff8000&quot;&gt;Q : What is the FAX NUMBER given ?&lt;/font&gt;&lt;br&gt;&lt;font color=&quot;#3333ff&quot;&gt;&amp;nbsp;&lt;/font&gt;&lt;font color=&quot;#6666ff&quot;&gt;Answer : 910/335/7707&lt;/font&gt;" style="text;html=1;resizable=0;autosize=1;align=center;verticalAlign=middle;points=[];fillColor=none;strokeColor=none;rounded=0;fontSize=12;" parent="1" vertex="1">
          <mxGeometry x="185" y="115" width="230" height="40" as="geometry" />
        </mxCell>
        <mxCell id="uf2CPdE_hXpiw68XRons-1" value="" style="rounded=1;whiteSpace=wrap;html=1;strokeColor=#007FFF;strokeWidth=3;fontSize=12;fontColor=#6666FF;fillColor=none;opacity=0;" vertex="1" parent="1">
          <mxGeometry x="340" y="320" width="120" height="60" as="geometry" />
        </mxCell>
      </root>
    </mxGraphModel>
  </diagram>
</mxfile>
